<?xml version="1.0" encoding="us-ascii" standalone="no"?><svg xmlns="http://www.w3.org/2000/svg" xmlns:xlink="http://www.w3.org/1999/xlink" contentStyleType="text/css" height="782px" preserveAspectRatio="none" style="width:513px;height:782px;background:#FFFFFF;" version="1.1" viewBox="0 0 513 782" width="513px" zoomAndPan="magnify"><defs/><g><text fill="#000000" font-family="sans-serif" font-size="14" font-weight="bold" lengthAdjust="spacing" textLength="99" x="208" y="29.5332">Delete Patient</text><rect fill="#FFFFFF" height="518.1016" style="stroke:#181818;stroke-width:1.0;" width="10" x="240" y="157.1797"/><rect fill="#FFFFFF" height="30.3516" style="stroke:#181818;stroke-width:1.0;" width="10" x="445" y="212.8828"/><rect fill="#FFFFFF" height="30.3516" style="stroke:#181818;stroke-width:1.0;" width="10" x="445" y="428.6641"/><rect fill="none" height="496.1016" style="stroke:#000000;stroke-width:1.5;" width="503" x="3" y="172.1797"/><rect fill="none" height="141.0781" style="stroke:#000000;stroke-width:1.5;" width="302" x="3" y="258.2344"/><rect fill="none" height="141.0781" style="stroke:#000000;stroke-width:1.5;" width="302" x="3" y="474.0156"/><line style="stroke:#181818;stroke-width:0.5;stroke-dasharray:5.0,5.0;" x1="245" x2="245" y1="124.8281" y2="685.2813"/><line style="stroke:#181818;stroke-width:0.5;stroke-dasharray:5.0,5.0;" x1="450" x2="450" y1="124.8281" y2="685.2813"/><rect fill="#E2E2F0" height="49.2188" rx="2.5" ry="2.5" style="stroke:#181818;stroke-width:0.5;" width="100" x="195" y="74.6094"/><text fill="#000000" font-family="sans-serif" font-size="14" font-style="italic" lengthAdjust="spacing" textLength="86" x="202" y="96.1426">&#171;component&#187;</text><text fill="#000000" font-family="sans-serif" font-size="14" lengthAdjust="spacing" textLength="61" x="214.5" y="113.752">Back-End</text><rect fill="#E2E2F0" height="49.2188" rx="2.5" ry="2.5" style="stroke:#181818;stroke-width:0.5;" width="100" x="195" y="684.2813"/><text fill="#000000" font-family="sans-serif" font-size="14" font-style="italic" lengthAdjust="spacing" textLength="86" x="202" y="705.8145">&#171;component&#187;</text><text fill="#000000" font-family="sans-serif" font-size="14" lengthAdjust="spacing" textLength="61" x="214.5" y="723.4238">Back-End</text><text fill="#000000" font-family="sans-serif" font-size="14" font-style="italic" lengthAdjust="spacing" textLength="86" x="404" y="104.1426">&#171;component&#187;</text><text fill="#000000" font-family="sans-serif" font-size="14" lengthAdjust="spacing" textLength="62" x="416" y="121.752">DataBase</text><path d="M432,53.6094 C432,43.6094 450,43.6094 450,43.6094 C450,43.6094 468,43.6094 468,53.6094 L468,79.6094 C468,89.6094 450,89.6094 450,89.6094 C450,89.6094 432,89.6094 432,79.6094 L432,53.6094 " fill="#E2E2F0" style="stroke:#181818;stroke-width:1.5;"/><path d="M432,53.6094 C432,63.6094 450,63.6094 450,63.6094 C450,63.6094 468,63.6094 468,53.6094 " fill="none" style="stroke:#181818;stroke-width:1.5;"/><text fill="#000000" font-family="sans-serif" font-size="14" font-style="italic" lengthAdjust="spacing" textLength="86" x="404" y="698.8145">&#171;component&#187;</text><text fill="#000000" font-family="sans-serif" font-size="14" lengthAdjust="spacing" textLength="62" x="416" y="716.4238">DataBase</text><path d="M432,729.5 C432,719.5 450,719.5 450,719.5 C450,719.5 468,719.5 468,729.5 L468,755.5 C468,765.5 450,765.5 450,765.5 C450,765.5 432,765.5 432,755.5 L432,729.5 " fill="#E2E2F0" style="stroke:#181818;stroke-width:1.5;"/><path d="M432,729.5 C432,739.5 450,739.5 450,739.5 C450,739.5 468,739.5 468,729.5 " fill="none" style="stroke:#181818;stroke-width:1.5;"/><rect fill="#FFFFFF" height="518.1016" style="stroke:#181818;stroke-width:1.0;" width="10" x="240" y="157.1797"/><rect fill="#FFFFFF" height="30.3516" style="stroke:#181818;stroke-width:1.0;" width="10" x="445" y="212.8828"/><rect fill="#FFFFFF" height="30.3516" style="stroke:#181818;stroke-width:1.0;" width="10" x="445" y="428.6641"/><polygon fill="#181818" points="228,153.1797,238,157.1797,228,161.1797,232,157.1797" style="stroke:#181818;stroke-width:1.0;"/><line style="stroke:#181818;stroke-width:1.0;" x1="0" x2="234" y1="157.1797" y2="157.1797"/><text fill="#000000" font-family="sans-serif" font-size="13" font-weight="bold" lengthAdjust="spacing" textLength="7" x="7" y="152.3232">1</text><text fill="#000000" font-family="sans-serif" font-size="13" lengthAdjust="spacing" textLength="197" x="18" y="152.3232">DELETE /patients/{recordNumber}</text><path d="M3,172.1797 L64,172.1797 L64,180.5313 L54,190.5313 L3,190.5313 L3,172.1797 " fill="#EEEEEE" style="stroke:#000000;stroke-width:1.5;"/><rect fill="none" height="496.1016" style="stroke:#000000;stroke-width:1.5;" width="503" x="3" y="172.1797"/><text fill="#000000" font-family="sans-serif" font-size="13" font-weight="bold" lengthAdjust="spacing" textLength="16" x="18" y="186.6748">alt</text><text fill="#000000" font-family="sans-serif" font-size="11" font-weight="bold" lengthAdjust="spacing" textLength="96" x="79" y="185.5986">[authorized user]</text><polygon fill="#181818" points="433,208.8828,443,212.8828,433,216.8828,437,212.8828" style="stroke:#181818;stroke-width:1.0;"/><line style="stroke:#181818;stroke-width:1.0;" x1="250" x2="439" y1="212.8828" y2="212.8828"/><text fill="#000000" font-family="sans-serif" font-size="13" font-weight="bold" lengthAdjust="spacing" textLength="7" x="257" y="208.0264">2</text><text fill="#000000" font-family="sans-serif" font-size="13" lengthAdjust="spacing" textLength="165" x="268" y="208.0264">deletePatient(recordNumber)</text><polygon fill="#181818" points="261,239.2344,251,243.2344,261,247.2344,257,243.2344" style="stroke:#181818;stroke-width:1.0;"/><line style="stroke:#181818;stroke-width:1.0;stroke-dasharray:2.0,2.0;" x1="255" x2="449" y1="243.2344" y2="243.2344"/><text fill="#000000" font-family="sans-serif" font-size="13" font-weight="bold" lengthAdjust="spacing" textLength="7" x="267" y="238.3779">3</text><text fill="#000000" font-family="sans-serif" font-size="13" lengthAdjust="spacing" textLength="4" x="278" y="238.3779">&#160;</text><path d="M3,258.2344 L64,258.2344 L64,266.5859 L54,276.5859 L3,276.5859 L3,258.2344 " fill="#EEEEEE" style="stroke:#000000;stroke-width:1.5;"/><rect fill="none" height="141.0781" style="stroke:#000000;stroke-width:1.5;" width="302" x="3" y="258.2344"/><text fill="#000000" font-family="sans-serif" font-size="13" font-weight="bold" lengthAdjust="spacing" textLength="16" x="18" y="272.7295">alt</text><text fill="#000000" font-family="sans-serif" font-size="11" font-weight="bold" lengthAdjust="spacing" textLength="145" x="79" y="271.6533">[recordNumber not found]</text><polygon fill="#181818" points="11,294.9375,1,298.9375,11,302.9375,7,298.9375" style="stroke:#181818;stroke-width:1.0;"/><line style="stroke:#181818;stroke-width:1.0;stroke-dasharray:2.0,2.0;" x1="5" x2="239" y1="298.9375" y2="298.9375"/><text fill="#000000" font-family="sans-serif" font-size="13" font-weight="bold" lengthAdjust="spacing" textLength="7" x="17" y="294.0811">4</text><text fill="#000000" font-family="sans-serif" font-size="13" lengthAdjust="spacing" textLength="159" x="28" y="294.0811">Response status code -404</text><line style="stroke:#000000;stroke-width:1.0;stroke-dasharray:2.0,2.0;" x1="3" x2="305" y1="307.9375" y2="307.9375"/><text fill="#000000" font-family="sans-serif" font-size="11" font-weight="bold" lengthAdjust="spacing" textLength="122" x="8" y="319.3564">[database unavailable]</text><polygon fill="#181818" points="11,341.125,1,345.125,11,349.125,7,345.125" style="stroke:#181818;stroke-width:1.0;"/><line style="stroke:#181818;stroke-width:1.0;stroke-dasharray:2.0,2.0;" x1="5" x2="239" y1="345.125" y2="345.125"/><text fill="#000000" font-family="sans-serif" font-size="13" font-weight="bold" lengthAdjust="spacing" textLength="7" x="17" y="340.2686">5</text><text fill="#000000" font-family="sans-serif" font-size="13" lengthAdjust="spacing" textLength="159" x="28" y="340.2686">Response status code -503</text><line style="stroke:#000000;stroke-width:1.0;stroke-dasharray:2.0,2.0;" x1="3" x2="305" y1="354.125" y2="354.125"/><text fill="#000000" font-family="sans-serif" font-size="11" font-weight="bold" lengthAdjust="spacing" textLength="124" x="8" y="365.5439">[recordNumber found]</text><polygon fill="#181818" points="11,387.3125,1,391.3125,11,395.3125,7,391.3125" style="stroke:#181818;stroke-width:1.0;"/><line style="stroke:#181818;stroke-width:1.0;stroke-dasharray:2.0,2.0;" x1="5" x2="239" y1="391.3125" y2="391.3125"/><text fill="#000000" font-family="sans-serif" font-size="13" font-weight="bold" lengthAdjust="spacing" textLength="7" x="17" y="386.4561">6</text><text fill="#000000" font-family="sans-serif" font-size="13" lengthAdjust="spacing" textLength="159" x="28" y="386.4561">Response status code -204</text><polygon fill="#181818" points="433,424.6641,443,428.6641,433,432.6641,437,428.6641" style="stroke:#181818;stroke-width:1.0;"/><line style="stroke:#181818;stroke-width:1.0;" x1="250" x2="439" y1="428.6641" y2="428.6641"/><text fill="#000000" font-family="sans-serif" font-size="13" font-weight="bold" lengthAdjust="spacing" textLength="7" x="257" y="423.8076">7</text><text fill="#000000" font-family="sans-serif" font-size="13" lengthAdjust="spacing" textLength="26" x="268" y="423.8076">save</text><polygon fill="#181818" points="261,455.0156,251,459.0156,261,463.0156,257,459.0156" style="stroke:#181818;stroke-width:1.0;"/><line style="stroke:#181818;stroke-width:1.0;stroke-dasharray:2.0,2.0;" x1="255" x2="449" y1="459.0156" y2="459.0156"/><text fill="#000000" font-family="sans-serif" font-size="13" font-weight="bold" lengthAdjust="spacing" textLength="7" x="267" y="454.1592">8</text><text fill="#000000" font-family="sans-serif" font-size="13" lengthAdjust="spacing" textLength="4" x="278" y="454.1592">&#160;</text><path d="M3,474.0156 L64,474.0156 L64,482.3672 L54,492.3672 L3,492.3672 L3,474.0156 " fill="#EEEEEE" style="stroke:#000000;stroke-width:1.5;"/><rect fill="none" height="141.0781" style="stroke:#000000;stroke-width:1.5;" width="302" x="3" y="474.0156"/><text fill="#000000" font-family="sans-serif" font-size="13" font-weight="bold" lengthAdjust="spacing" textLength="16" x="18" y="488.5107">alt</text><text fill="#000000" font-family="sans-serif" font-size="11" font-weight="bold" lengthAdjust="spacing" textLength="122" x="79" y="487.4346">[database unavailable]</text><polygon fill="#181818" points="11,510.7188,1,514.7188,11,518.7188,7,514.7188" style="stroke:#181818;stroke-width:1.0;"/><line style="stroke:#181818;stroke-width:1.0;stroke-dasharray:2.0,2.0;" x1="5" x2="239" y1="514.7188" y2="514.7188"/><text fill="#000000" font-family="sans-serif" font-size="13" font-weight="bold" lengthAdjust="spacing" textLength="7" x="17" y="509.8623">9</text><text fill="#000000" font-family="sans-serif" font-size="13" lengthAdjust="spacing" textLength="159" x="28" y="509.8623">Response status code -503</text><line style="stroke:#000000;stroke-width:1.0;stroke-dasharray:2.0,2.0;" x1="3" x2="305" y1="523.7188" y2="523.7188"/><text fill="#000000" font-family="sans-serif" font-size="11" font-weight="bold" lengthAdjust="spacing" textLength="90" x="8" y="535.1377">[database error]</text><polygon fill="#181818" points="11,556.9063,1,560.9063,11,564.9063,7,560.9063" style="stroke:#181818;stroke-width:1.0;"/><line style="stroke:#181818;stroke-width:1.0;stroke-dasharray:2.0,2.0;" x1="5" x2="239" y1="560.9063" y2="560.9063"/><text fill="#000000" font-family="sans-serif" font-size="13" font-weight="bold" lengthAdjust="spacing" textLength="14" x="17" y="556.0498">10</text><text fill="#000000" font-family="sans-serif" font-size="13" lengthAdjust="spacing" textLength="159" x="35" y="556.0498">Response status code -500</text><line style="stroke:#000000;stroke-width:1.0;stroke-dasharray:2.0,2.0;" x1="3" x2="305" y1="569.9063" y2="569.9063"/><text fill="#000000" font-family="sans-serif" font-size="11" font-weight="bold" lengthAdjust="spacing" textLength="91" x="8" y="581.3252">[patient deleted]</text><polygon fill="#181818" points="11,603.0938,1,607.0938,11,611.0938,7,607.0938" style="stroke:#181818;stroke-width:1.0;"/><line style="stroke:#181818;stroke-width:1.0;stroke-dasharray:2.0,2.0;" x1="5" x2="239" y1="607.0938" y2="607.0938"/><text fill="#000000" font-family="sans-serif" font-size="13" font-weight="bold" lengthAdjust="spacing" textLength="14" x="17" y="602.2373">11</text><text fill="#000000" font-family="sans-serif" font-size="13" lengthAdjust="spacing" textLength="159" x="35" y="602.2373">Response status code -200</text><line style="stroke:#000000;stroke-width:1.0;stroke-dasharray:2.0,2.0;" x1="3" x2="506" y1="623.0938" y2="623.0938"/><text fill="#000000" font-family="sans-serif" font-size="11" font-weight="bold" lengthAdjust="spacing" textLength="110" x="8" y="634.5127">[user unauthorized]</text><polygon fill="#181818" points="11,656.2813,1,660.2813,11,664.2813,7,660.2813" style="stroke:#181818;stroke-width:1.0;"/><line style="stroke:#181818;stroke-width:1.0;stroke-dasharray:2.0,2.0;" x1="5" x2="239" y1="660.2813" y2="660.2813"/><text fill="#000000" font-family="sans-serif" font-size="13" font-weight="bold" lengthAdjust="spacing" textLength="14" x="17" y="655.4248">12</text><text fill="#000000" font-family="sans-serif" font-size="13" lengthAdjust="spacing" textLength="196" x="35" y="655.4248">return Response status code -401</text><!--SRC=[bPB1JiCm343l_Wfh9pXK6sDSfcc7ghqXX80Vy1epedL9bJYJ0F7lk5rLTKZJnirA_End9vJ4kxJVS82uiwwXG7jigDhHbb_bisOCN0c0MD6uu9g5yPd4ijDJJHTRsOQSu2HNAYkTcI15p4jShIg_RxpJpFKQ30bjA39E2eroZRgy8l-J1v2jbLvYKJwMRoLEcsEpEFrM4n_CKsVx0q2r82NvyC5-iS4KTGQWIko1r34l0LH2YnNv4aqdtdlVZ0lTZfWY1r2Xx6W0OFZagcquHj5vmNUVd05OPLah_S9H9z4fev2aY9KtZDbYjW3WMe-7BIH71x8rRMg-03_CxdlufFSrVUTTNsTml8f81_xVp6UbyHhhWUOGVBZCpNgkV_V-wSmbSDw1xKewklqDhU_mFuPL1POKtDcNkkkhZFQWN-aN]--></g></svg>