<?xml version="1.0" encoding="us-ascii" standalone="no"?><svg xmlns="http://www.w3.org/2000/svg" xmlns:xlink="http://www.w3.org/1999/xlink" contentStyleType="text/css" height="767px" preserveAspectRatio="none" style="width:645px;height:767px;background:#FFFFFF;" version="1.1" viewBox="0 0 645 767" width="645px" zoomAndPan="magnify"><defs/><g><text fill="#000000" font-family="sans-serif" font-size="14" font-weight="bold" lengthAdjust="spacing" textLength="174" x="236.75" y="29.5332">List Filtered {Resources}</text><rect fill="#FFFFFF" height="508.7813" style="stroke:#181818;stroke-width:1.0;" width="10" x="64.5" y="148.8281"/><rect fill="#FFFFFF" height="471.4297" style="stroke:#181818;stroke-width:1.0;" width="10" x="334.5" y="171.1797"/><rect fill="#FFFFFF" height="282.3203" style="stroke:#181818;stroke-width:1.0;" width="10" x="549.5" y="322.9375"/><rect fill="none" height="312.6719" style="stroke:#000000;stroke-width:1.5;" width="628.5" x="10" y="337.9375"/><rect fill="none" height="94.8906" style="stroke:#000000;stroke-width:1.5;" width="379.5" x="20" y="393.6406"/><rect fill="none" height="94.8906" style="stroke:#000000;stroke-width:1.5;" width="349" x="279.5" y="518.3672"/><line style="stroke:#181818;stroke-width:0.5;stroke-dasharray:5.0,5.0;" x1="69" x2="69" y1="138.8281" y2="667.6094"/><line style="stroke:#181818;stroke-width:0.5;stroke-dasharray:5.0,5.0;" x1="339.5" x2="339.5" y1="138.8281" y2="667.6094"/><line style="stroke:#181818;stroke-width:0.5;stroke-dasharray:5.0,5.0;" x1="554.5" x2="554.5" y1="138.8281" y2="667.6094"/><text fill="#000000" font-family="sans-serif" font-size="14" font-style="italic" lengthAdjust="spacing" textLength="73" x="30" y="118.1426">&#171;DEI User&#187;</text><text fill="#000000" font-family="sans-serif" font-size="14" lengthAdjust="spacing" textLength="29" x="52" y="135.752">User</text><ellipse cx="69.5" cy="52.1094" fill="#E2E2F0" rx="8" ry="8" style="stroke:#181818;stroke-width:0.5;"/><path d="M69.5,60.1094 L69.5,87.1094 M56.5,68.1094 L82.5,68.1094 M69.5,87.1094 L56.5,102.1094 M69.5,87.1094 L82.5,102.1094 " fill="none" style="stroke:#181818;stroke-width:0.5;"/><text fill="#000000" font-family="sans-serif" font-size="14" font-style="italic" lengthAdjust="spacing" textLength="73" x="30" y="681.1426">&#171;DEI User&#187;</text><text fill="#000000" font-family="sans-serif" font-size="14" lengthAdjust="spacing" textLength="29" x="52" y="698.752">User</text><ellipse cx="69.5" cy="710.3281" fill="#E2E2F0" rx="8" ry="8" style="stroke:#181818;stroke-width:0.5;"/><path d="M69.5,718.3281 L69.5,745.3281 M56.5,726.3281 L82.5,726.3281 M69.5,745.3281 L56.5,760.3281 M69.5,745.3281 L82.5,760.3281 " fill="none" style="stroke:#181818;stroke-width:0.5;"/><rect fill="#E2E2F0" height="49.2188" rx="2.5" ry="2.5" style="stroke:#181818;stroke-width:0.5;" width="100" x="289.5" y="88.6094"/><text fill="#000000" font-family="sans-serif" font-size="14" font-style="italic" lengthAdjust="spacing" textLength="86" x="296.5" y="110.1426">&#171;component&#187;</text><text fill="#000000" font-family="sans-serif" font-size="14" lengthAdjust="spacing" textLength="83" x="298" y="127.752">PortalModule</text><rect fill="#E2E2F0" height="49.2188" rx="2.5" ry="2.5" style="stroke:#181818;stroke-width:0.5;" width="100" x="289.5" y="666.6094"/><text fill="#000000" font-family="sans-serif" font-size="14" font-style="italic" lengthAdjust="spacing" textLength="86" x="296.5" y="688.1426">&#171;component&#187;</text><text fill="#000000" font-family="sans-serif" font-size="14" lengthAdjust="spacing" textLength="83" x="298" y="705.752">PortalModule</text><rect fill="#E2E2F0" height="49.2188" rx="2.5" ry="2.5" style="stroke:#181818;stroke-width:0.5;" width="128" x="490.5" y="88.6094"/><text fill="#000000" font-family="sans-serif" font-size="14" font-style="italic" lengthAdjust="spacing" textLength="86" x="511.5" y="110.1426">&#171;component&#187;</text><text fill="#000000" font-family="sans-serif" font-size="14" lengthAdjust="spacing" textLength="114" x="497.5" y="127.752">BackOfficeModule</text><rect fill="#E2E2F0" height="49.2188" rx="2.5" ry="2.5" style="stroke:#181818;stroke-width:0.5;" width="128" x="490.5" y="666.6094"/><text fill="#000000" font-family="sans-serif" font-size="14" font-style="italic" lengthAdjust="spacing" textLength="86" x="511.5" y="688.1426">&#171;component&#187;</text><text fill="#000000" font-family="sans-serif" font-size="14" lengthAdjust="spacing" textLength="114" x="497.5" y="705.752">BackOfficeModule</text><rect fill="#FFFFFF" height="508.7813" style="stroke:#181818;stroke-width:1.0;" width="10" x="64.5" y="148.8281"/><rect fill="#FFFFFF" height="471.4297" style="stroke:#181818;stroke-width:1.0;" width="10" x="334.5" y="171.1797"/><rect fill="#FFFFFF" height="282.3203" style="stroke:#181818;stroke-width:1.0;" width="10" x="549.5" y="322.9375"/><polygon fill="#181818" points="322.5,167.1797,332.5,171.1797,322.5,175.1797,326.5,171.1797" style="stroke:#181818;stroke-width:1.0;"/><line style="stroke:#181818;stroke-width:1.0;" x1="74.5" x2="328.5" y1="171.1797" y2="171.1797"/><text fill="#000000" font-family="sans-serif" font-size="13" font-weight="bold" lengthAdjust="spacing" textLength="7" x="81.5" y="166.3232">1</text><text fill="#000000" font-family="sans-serif" font-size="13" lengthAdjust="spacing" textLength="182" x="92.5" y="166.3232">Asks to list filtered {Resources}</text><polygon fill="#181818" points="85.5,197.5313,75.5,201.5313,85.5,205.5313,81.5,201.5313" style="stroke:#181818;stroke-width:1.0;"/><line style="stroke:#181818;stroke-width:1.0;stroke-dasharray:2.0,2.0;" x1="79.5" x2="333.5" y1="201.5313" y2="201.5313"/><text fill="#000000" font-family="sans-serif" font-size="13" font-weight="bold" lengthAdjust="spacing" textLength="7" x="91.5" y="196.6748">2</text><text fill="#000000" font-family="sans-serif" font-size="13" lengthAdjust="spacing" textLength="185" x="102.5" y="196.6748">Asks the user to select the filter</text><polygon fill="#181818" points="322.5,227.8828,332.5,231.8828,322.5,235.8828,326.5,231.8828" style="stroke:#181818;stroke-width:1.0;"/><line style="stroke:#181818;stroke-width:1.0;" x1="74.5" x2="328.5" y1="231.8828" y2="231.8828"/><text fill="#000000" font-family="sans-serif" font-size="13" font-weight="bold" lengthAdjust="spacing" textLength="7" x="81.5" y="227.0264">3</text><text fill="#000000" font-family="sans-serif" font-size="13" lengthAdjust="spacing" textLength="94" x="92.5" y="227.0264">Selects the filter</text><polygon fill="#181818" points="85.5,258.2344,75.5,262.2344,85.5,266.2344,81.5,262.2344" style="stroke:#181818;stroke-width:1.0;"/><line style="stroke:#181818;stroke-width:1.0;stroke-dasharray:2.0,2.0;" x1="79.5" x2="333.5" y1="262.2344" y2="262.2344"/><text fill="#000000" font-family="sans-serif" font-size="13" font-weight="bold" lengthAdjust="spacing" textLength="7" x="91.5" y="257.3779">4</text><text fill="#000000" font-family="sans-serif" font-size="13" lengthAdjust="spacing" textLength="225" x="102.5" y="257.3779">Asks the user to select the filter values</text><polygon fill="#181818" points="322.5,288.5859,332.5,292.5859,322.5,296.5859,326.5,292.5859" style="stroke:#181818;stroke-width:1.0;"/><line style="stroke:#181818;stroke-width:1.0;" x1="74.5" x2="328.5" y1="292.5859" y2="292.5859"/><text fill="#000000" font-family="sans-serif" font-size="13" font-weight="bold" lengthAdjust="spacing" textLength="7" x="81.5" y="287.7295">5</text><text fill="#000000" font-family="sans-serif" font-size="13" lengthAdjust="spacing" textLength="157" x="92.5" y="287.7295">Input/select the filter values</text><polygon fill="#181818" points="537.5,318.9375,547.5,322.9375,537.5,326.9375,541.5,322.9375" style="stroke:#181818;stroke-width:1.0;"/><line style="stroke:#181818;stroke-width:1.0;" x1="344.5" x2="543.5" y1="322.9375" y2="322.9375"/><text fill="#000000" font-family="sans-serif" font-size="13" font-weight="bold" lengthAdjust="spacing" textLength="7" x="351.5" y="318.0811">6</text><text fill="#000000" font-family="sans-serif" font-size="13" lengthAdjust="spacing" textLength="111" x="362.5" y="318.0811">GET resources/{...}</text><path d="M10,337.9375 L71,337.9375 L71,346.2891 L61,356.2891 L10,356.2891 L10,337.9375 " fill="#EEEEEE" style="stroke:#000000;stroke-width:1.5;"/><rect fill="none" height="312.6719" style="stroke:#000000;stroke-width:1.5;" width="628.5" x="10" y="337.9375"/><text fill="#000000" font-family="sans-serif" font-size="13" font-weight="bold" lengthAdjust="spacing" textLength="16" x="25" y="352.4326">alt</text><text fill="#000000" font-family="sans-serif" font-size="11" font-weight="bold" lengthAdjust="spacing" textLength="55" x="86" y="351.3564">[success]</text><polygon fill="#181818" points="355.5,374.6406,345.5,378.6406,355.5,382.6406,351.5,378.6406" style="stroke:#181818;stroke-width:1.0;"/><line style="stroke:#181818;stroke-width:1.0;stroke-dasharray:2.0,2.0;" x1="349.5" x2="548.5" y1="378.6406" y2="378.6406"/><text fill="#000000" font-family="sans-serif" font-size="13" font-weight="bold" lengthAdjust="spacing" textLength="7" x="361.5" y="373.7842">7</text><text fill="#000000" font-family="sans-serif" font-size="13" lengthAdjust="spacing" textLength="163" x="372.5" y="373.7842">Response status code - 200</text><path d="M20,393.6406 L81,393.6406 L81,401.9922 L71,411.9922 L20,411.9922 L20,393.6406 " fill="#EEEEEE" style="stroke:#000000;stroke-width:1.5;"/><rect fill="none" height="94.8906" style="stroke:#000000;stroke-width:1.5;" width="379.5" x="20" y="393.6406"/><text fill="#000000" font-family="sans-serif" font-size="13" font-weight="bold" lengthAdjust="spacing" textLength="16" x="35" y="408.1357">alt</text><polygon fill="#181818" points="85.5,430.3438,75.5,434.3438,85.5,438.3438,81.5,434.3438" style="stroke:#181818;stroke-width:1.0;"/><line style="stroke:#181818;stroke-width:1.0;stroke-dasharray:2.0,2.0;" x1="79.5" x2="333.5" y1="434.3438" y2="434.3438"/><text fill="#000000" font-family="sans-serif" font-size="13" font-weight="bold" lengthAdjust="spacing" textLength="7" x="91.5" y="429.4873">8</text><text fill="#000000" font-family="sans-serif" font-size="13" lengthAdjust="spacing" textLength="178" x="102.5" y="429.4873">display filtered {Resources} list</text><line style="stroke:#000000;stroke-width:1.0;stroke-dasharray:2.0,2.0;" x1="20" x2="399.5" y1="443.3438" y2="443.3438"/><text fill="#000000" font-family="sans-serif" font-size="11" font-weight="bold" lengthAdjust="spacing" textLength="133" x="25" y="454.7627">[no resources available]</text><polygon fill="#181818" points="85.5,476.5313,75.5,480.5313,85.5,484.5313,81.5,480.5313" style="stroke:#181818;stroke-width:1.0;"/><line style="stroke:#181818;stroke-width:1.0;stroke-dasharray:2.0,2.0;" x1="79.5" x2="333.5" y1="480.5313" y2="480.5313"/><text fill="#000000" font-family="sans-serif" font-size="13" font-weight="bold" lengthAdjust="spacing" textLength="7" x="91.5" y="475.6748">9</text><text fill="#000000" font-family="sans-serif" font-size="13" lengthAdjust="spacing" textLength="190" x="102.5" y="475.6748">display no {Resources} message</text><line style="stroke:#000000;stroke-width:1.0;stroke-dasharray:2.0,2.0;" x1="10" x2="638.5" y1="496.5313" y2="496.5313"/><text fill="#000000" font-family="sans-serif" font-size="11" font-weight="bold" lengthAdjust="spacing" textLength="83" x="15" y="507.9502">[unsuccessful]</text><path d="M279.5,518.3672 L340.5,518.3672 L340.5,526.7188 L330.5,536.7188 L279.5,536.7188 L279.5,518.3672 " fill="#EEEEEE" style="stroke:#000000;stroke-width:1.5;"/><rect fill="none" height="94.8906" style="stroke:#000000;stroke-width:1.5;" width="349" x="279.5" y="518.3672"/><text fill="#000000" font-family="sans-serif" font-size="13" font-weight="bold" lengthAdjust="spacing" textLength="16" x="294.5" y="532.8623">alt</text><text fill="#000000" font-family="sans-serif" font-size="11" font-weight="bold" lengthAdjust="spacing" textLength="95" x="355.5" y="531.7861">[entity not found]</text><polygon fill="#181818" points="355.5,555.0703,345.5,559.0703,355.5,563.0703,351.5,559.0703" style="stroke:#181818;stroke-width:1.0;"/><line style="stroke:#181818;stroke-width:1.0;stroke-dasharray:2.0,2.0;" x1="349.5" x2="548.5" y1="559.0703" y2="559.0703"/><text fill="#000000" font-family="sans-serif" font-size="13" font-weight="bold" lengthAdjust="spacing" textLength="14" x="361.5" y="554.2139">10</text><text fill="#000000" font-family="sans-serif" font-size="13" lengthAdjust="spacing" textLength="163" x="379.5" y="554.2139">Response status code - 404</text><line style="stroke:#000000;stroke-width:1.0;stroke-dasharray:2.0,2.0;" x1="279.5" x2="628.5" y1="568.0703" y2="568.0703"/><text fill="#000000" font-family="sans-serif" font-size="11" font-weight="bold" lengthAdjust="spacing" textLength="122" x="284.5" y="579.4893">[database unavailable]</text><polygon fill="#181818" points="355.5,601.2578,345.5,605.2578,355.5,609.2578,351.5,605.2578" style="stroke:#181818;stroke-width:1.0;"/><line style="stroke:#181818;stroke-width:1.0;stroke-dasharray:2.0,2.0;" x1="349.5" x2="553.5" y1="605.2578" y2="605.2578"/><text fill="#000000" font-family="sans-serif" font-size="13" font-weight="bold" lengthAdjust="spacing" textLength="14" x="361.5" y="600.4014">11</text><text fill="#000000" font-family="sans-serif" font-size="13" lengthAdjust="spacing" textLength="163" x="379.5" y="600.4014">Response status code - 503</text><polygon fill="#181818" points="85.5,638.6094,75.5,642.6094,85.5,646.6094,81.5,642.6094" style="stroke:#181818;stroke-width:1.0;"/><line style="stroke:#181818;stroke-width:1.0;stroke-dasharray:2.0,2.0;" x1="79.5" x2="338.5" y1="642.6094" y2="642.6094"/><text fill="#000000" font-family="sans-serif" font-size="13" font-weight="bold" lengthAdjust="spacing" textLength="14" x="91.5" y="637.7529">12</text><text fill="#000000" font-family="sans-serif" font-size="13" lengthAdjust="spacing" textLength="128" x="109.5" y="637.7529">display error message</text><!--SRC=[bLDTImCn47pFhrZwtbhyU2cbeFY1O57K-m7Rt5P3q-J8RWf5_EzkxXIlrOA-7PkPkPdP1BF4aDSBIePNBZIOS0qDsXM-q9DiFK4YAyQ84_s-SonmxRnGeXhU7ebZJfRutHYq4XCCAgOq06IeO3gzlBg5CfZDZ0gBiwx1831uY4dGpsETFRNWnuUvmcrSDp5Ga7tyXVgvNowTfHxdydoVKpou3Gf1PKm5mrdHdG2Syuf18lZYVdd8VSTKHk5EXyEEt75V2RBcA29CNWjfHvtKpg-UsbFUE_w76cpGP-8TqTlGP3aw32tjALWBcS3DrRDkx3FOqTjeDEgdKuX1By3PwZ6tp6AkfMeVMYKJiA1a1XjhWY4SZyUcaFevQiUDn-slPROr6_8g5EAt5y0DEeyBJxy9AR8liLPpUW4DXTfqKZbyUbvctze1tRcJmjITngn0-4kQq_5f9rYZu09RvMzdVv8u6v-OcdOwBJwX-f6AKj8tyHN6z5dbdXLMRrIP3m00]--></g></svg>