<?xml version="1.0" encoding="us-ascii" standalone="no"?><svg xmlns="http://www.w3.org/2000/svg" xmlns:xlink="http://www.w3.org/1999/xlink" contentStyleType="text/css" height="1727px" preserveAspectRatio="none" style="width:445px;height:1727px;background:#FFFFFF;" version="1.1" viewBox="0 0 445 1727" width="445px" zoomAndPan="magnify"><defs/><g><text fill="#000000" font-family="sans-serif" font-size="14" font-weight="bold" lengthAdjust="spacing" textLength="127" x="152.2783" y="24.5332">Use Case Diagram</text><!--entity adm--><g id="elem_adm"><ellipse cx="53" cy="1197.6094" fill="#F1F1F1" rx="8" ry="8" style="stroke:#181818;stroke-width:0.5;"/><path d="M53,1205.6094 L53,1232.6094 M40,1213.6094 L66,1213.6094 M53,1232.6094 L40,1247.6094 M53,1232.6094 L66,1247.6094 " fill="none" style="stroke:#181818;stroke-width:0.5;"/><text fill="#000000" font-family="sans-serif" font-size="14" lengthAdjust="spacing" textLength="83" x="11.5" y="1263.6426">Administrator</text></g><g id="elem_Register backoffice users"><ellipse cx="300.113" cy="778.932" fill="#F1F1F1" rx="99.613" ry="22.3226" style="stroke:#181818;stroke-width:0.5;"/><text fill="#000000" font-family="sans-serif" font-size="14" lengthAdjust="spacing" textLength="160" x="220.113" y="782.6605">Register backoffice users</text></g><g id="elem_Register patients"><ellipse cx="300.1203" cy="854.9334" fill="#F1F1F1" rx="77.1203" ry="17.8241" style="stroke:#181818;stroke-width:0.5;"/><text fill="#000000" font-family="sans-serif" font-size="14" lengthAdjust="spacing" textLength="107" x="244.2783" y="859.295">Register patients</text></g><g id="elem_Edit a patients profile"><ellipse cx="299.8193" cy="928.0732" fill="#F1F1F1" rx="87.8193" ry="19.9639" style="stroke:#181818;stroke-width:0.5;"/><text fill="#000000" font-family="sans-serif" font-size="14" lengthAdjust="spacing" textLength="133" x="233.3193" y="931.8017">Edit a patients profile</text></g><g id="elem_Delete patients profile"><ellipse cx="299.9659" cy="1004.0025" fill="#F1F1F1" rx="89.9659" ry="20.3932" style="stroke:#181818;stroke-width:0.5;"/><text fill="#000000" font-family="sans-serif" font-size="14" lengthAdjust="spacing" textLength="138" x="230.9659" y="1007.7311">Delete patients profile</text></g><g id="elem_List/Search patients profiles"><ellipse cx="299.8456" cy="1083.2785" fill="#F1F1F1" rx="106.3456" ry="23.6691" style="stroke:#181818;stroke-width:0.5;"/><text fill="#000000" font-family="sans-serif" font-size="14" lengthAdjust="spacing" textLength="175" x="212.3456" y="1087.007">List/Search patients profiles</text></g><g id="elem_Register staff"><ellipse cx="299.7688" cy="1158.2631" fill="#F1F1F1" rx="68.7688" ry="16.1538" style="stroke:#181818;stroke-width:0.5;"/><text fill="#000000" font-family="sans-serif" font-size="14" lengthAdjust="spacing" textLength="84" x="254.7688" y="1162.7797">Register staff</text></g><g id="elem_Edit a staff's profile"><ellipse cx="299.8351" cy="1227.9764" fill="#F1F1F1" rx="82.3351" ry="18.867" style="stroke:#181818;stroke-width:0.5;"/><text fill="#000000" font-family="sans-serif" font-size="14" lengthAdjust="spacing" textLength="120" x="239.8351" y="1231.7049">Edit a staff's profile</text></g><g id="elem_Deactivate a staff's profile"><ellipse cx="299.9506" cy="1305.1995" fill="#F1F1F1" rx="100.9506" ry="22.5901" style="stroke:#181818;stroke-width:0.5;"/><text fill="#000000" font-family="sans-serif" font-size="14" lengthAdjust="spacing" textLength="163" x="218.4506" y="1308.928">Deactivate a staff's profile</text></g><g id="elem_List/Search staff profiles"><ellipse cx="300.0702" cy="1384.2234" fill="#F1F1F1" rx="96.0702" ry="21.614" style="stroke:#181818;stroke-width:0.5;"/><text fill="#000000" font-family="sans-serif" font-size="14" lengthAdjust="spacing" textLength="152" x="224.0702" y="1387.9519">List/Search staff profiles</text></g><g id="elem_Add new operation types"><ellipse cx="299.837" cy="1463.0768" fill="#F1F1F1" rx="97.837" ry="21.9674" style="stroke:#181818;stroke-width:0.5;"/><text fill="#000000" font-family="sans-serif" font-size="14" lengthAdjust="spacing" textLength="156" x="221.837" y="1466.8053">Add new operation types</text></g><g id="elem_Edit operation types"><ellipse cx="299.8478" cy="1539.9789" fill="#F1F1F1" rx="84.8478" ry="19.3696" style="stroke:#181818;stroke-width:0.5;"/><text fill="#000000" font-family="sans-serif" font-size="14" lengthAdjust="spacing" textLength="126" x="236.8478" y="1543.7075">Edit operation types</text></g><g id="elem_Remove operation types"><ellipse cx="299.9525" cy="1616.8999" fill="#F1F1F1" rx="96.9525" ry="21.7905" style="stroke:#181818;stroke-width:0.5;"/><text fill="#000000" font-family="sans-serif" font-size="14" lengthAdjust="spacing" textLength="154" x="222.9525" y="1620.6284">Remove operation types</text></g><g id="elem_List/Search operation types"><ellipse cx="299.9418" cy="1698.0977" fill="#F1F1F1" rx="105.4418" ry="23.4884" style="stroke:#181818;stroke-width:0.5;"/><text fill="#000000" font-family="sans-serif" font-size="14" lengthAdjust="spacing" textLength="173" x="213.4418" y="1701.8262">List/Search operation types</text></g><!--entity dc--><g id="elem_dc"><ellipse cx="53" cy="534.6094" fill="#F1F1F1" rx="8" ry="8" style="stroke:#181818;stroke-width:0.5;"/><path d="M53,542.6094 L53,569.6094 M40,550.6094 L66,550.6094 M53,569.6094 L40,584.6094 M53,569.6094 L66,584.6094 " fill="none" style="stroke:#181818;stroke-width:0.5;"/><text fill="#000000" font-family="sans-serif" font-size="14" lengthAdjust="spacing" textLength="42" x="32" y="600.6426">Doctor</text></g><g id="elem_Request an operation"><ellipse cx="300.035" cy="442.9164" fill="#F1F1F1" rx="89.535" ry="20.307" style="stroke:#181818;stroke-width:0.5;"/><text fill="#000000" font-family="sans-serif" font-size="14" lengthAdjust="spacing" textLength="137" x="231.535" y="446.6449">Request an operation</text></g><g id="elem_Update an operation request"><ellipse cx="300.0675" cy="523.3229" fill="#F1F1F1" rx="109.0675" ry="24.2135" style="stroke:#181818;stroke-width:0.5;"/><text fill="#000000" font-family="sans-serif" font-size="14" lengthAdjust="spacing" textLength="181" x="209.5675" y="527.0514">Update an operation request</text></g><g id="elem_Remove an operation request"><ellipse cx="299.7614" cy="606.9617" fill="#F1F1F1" rx="112.2614" ry="24.8523" style="stroke:#181818;stroke-width:0.5;"/><text fill="#000000" font-family="sans-serif" font-size="14" lengthAdjust="spacing" textLength="188" x="205.7614" y="610.6902">Remove an operation request</text></g><g id="elem_List/Search all operation requests"><ellipse cx="299.8414" cy="694.1777" fill="#F1F1F1" rx="123.3414" ry="27.0683" style="stroke:#181818;stroke-width:0.5;"/><text fill="#000000" font-family="sans-serif" font-size="14" lengthAdjust="spacing" textLength="212" x="193.8414" y="697.9062">List/Search all operation requests</text></g><!--entity pt--><g id="elem_pt"><ellipse cx="53" cy="166.6094" fill="#F1F1F1" rx="8" ry="8" style="stroke:#181818;stroke-width:0.5;"/><path d="M53,174.6094 L53,201.6094 M40,182.6094 L66,182.6094 M53,201.6094 L40,216.6094 M53,201.6094 L66,216.6094 " fill="none" style="stroke:#181818;stroke-width:0.5;"/><text fill="#000000" font-family="sans-serif" font-size="14" lengthAdjust="spacing" textLength="44" x="31" y="232.6426">Patient</text></g><g id="elem_Register into the healthcare application"><ellipse cx="299.7783" cy="74.965" fill="#F1F1F1" rx="139.7783" ry="30.3557" style="stroke:#181818;stroke-width:0.5;"/><text fill="#000000" font-family="sans-serif" font-size="14" lengthAdjust="spacing" textLength="247" x="176.2783" y="78.6936">Register into the healthcare application</text></g><g id="elem_Update their profile"><ellipse cx="299.8351" cy="159.9764" fill="#F1F1F1" rx="82.3351" ry="18.867" style="stroke:#181818;stroke-width:0.5;"/><text fill="#000000" font-family="sans-serif" font-size="14" lengthAdjust="spacing" textLength="120" x="239.8351" y="163.7049">Update their profile</text></g><g id="elem_Delete their profile"><ellipse cx="300.1887" cy="233.1471" fill="#F1F1F1" rx="80.6887" ry="18.5377" style="stroke:#181818;stroke-width:0.5;"/><text fill="#000000" font-family="sans-serif" font-size="14" lengthAdjust="spacing" textLength="116" x="241.5015" y="237.0754">Delete their profile</text></g><g id="elem_Log in"><ellipse cx="300.0624" cy="302.0611" fill="#F1F1F1" rx="39.0624" ry="15.4517" style="stroke:#181818;stroke-width:0.5;"/><text fill="#000000" font-family="sans-serif" font-size="14" lengthAdjust="spacing" textLength="39" x="280.5624" y="305.7896">Log in</text></g><!--entity bu--><g id="elem_bu"><ellipse cx="53" cy="327.6094" fill="#F1F1F1" rx="8" ry="8" style="stroke:#181818;stroke-width:0.5;"/><path d="M53,335.6094 L53,362.6094 M40,343.6094 L66,343.6094 M53,362.6094 L40,377.6094 M53,362.6094 L66,377.6094 " fill="none" style="stroke:#181818;stroke-width:0.5;"/><text fill="#000000" font-family="sans-serif" font-size="14" lengthAdjust="spacing" textLength="94" x="6" y="393.6426">BackofficeUser</text></g><g id="elem_Reset password"><ellipse cx="299.8525" cy="369.9799" fill="#F1F1F1" rx="74.8525" ry="17.3705" style="stroke:#181818;stroke-width:0.5;"/><text fill="#000000" font-family="sans-serif" font-size="14" lengthAdjust="spacing" textLength="101" x="246.3525" y="374.4965">Reset password</text></g><!--link adm to Register backoffice users--><g id="link_adm_Register backoffice users"><path d="M59.2,1189.0794 C72.14,1097.6494 108.47,873.3494 160,820.1094 C174.09,805.5594 187.3382,797.9053 206.7282,791.7853 " fill="none" id="adm-to-Register backoffice users" style="stroke:#181818;stroke-width:1.0;"/><polygon fill="#181818" points="212.45,789.9794,202.6634,788.8738,207.6819,791.4843,205.0713,796.5028,212.45,789.9794" style="stroke:#181818;stroke-width:1.0;"/></g><!--link adm to Register patients--><g id="link_adm_Register patients"><path d="M54.63,1189.0194 C57.96,1118.8994 75.29,971.5794 160,891.1094 C177.71,874.2794 196.3601,866.3122 219.8801,861.3322 " fill="none" id="adm-to-Register patients" style="stroke:#181818;stroke-width:1.0;"/><polygon fill="#181818" points="225.75,860.0894,216.1166,858.0404,220.8584,861.1251,217.7738,865.8669,225.75,860.0894" style="stroke:#181818;stroke-width:1.0;"/></g><!--link adm to Edit a patients profile--><g id="link_adm_Edit a patients profile"><path d="M58.87,1189.0194 C68.12,1131.6494 93.62,1025.1094 160,966.1094 C176.64,951.3194 192.7031,943.7293 214.1631,938.1493 " fill="none" id="adm-to-Edit a patients profile" style="stroke:#181818;stroke-width:1.0;"/><polygon fill="#181818" points="219.97,936.6394,210.253,935.033,215.1309,937.8976,212.2662,942.7755,219.97,936.6394" style="stroke:#181818;stroke-width:1.0;"/></g><!--link adm to Delete patients profile--><g id="link_adm_Delete patients profile"><path d="M66.15,1188.9494 C81.34,1146.5094 111.4,1079.8194 160,1042.1094 C177.59,1028.4594 193.9456,1021.2289 215.3756,1015.6189 " fill="none" id="adm-to-Delete patients profile" style="stroke:#181818;stroke-width:1.0;"/><polygon fill="#181818" points="221.18,1014.0994,211.4604,1012.509,216.343,1015.3656,213.4864,1020.2482,221.18,1014.0994" style="stroke:#181818;stroke-width:1.0;"/></g><!--link adm to List/Search patients profiles--><g id="link_adm_List/Search patients profiles"><path d="M86,1188.8594 C105.41,1167.3294 131.81,1141.7094 160,1125.1094 C179.01,1113.9194 195.5094,1107.1814 216.5694,1100.9114 " fill="none" id="adm-to-List/Search patients profiles" style="stroke:#181818;stroke-width:1.0;"/><polygon fill="#181818" points="222.32,1099.1994,212.5528,1097.9338,217.5279,1100.6261,214.8355,1105.6012,222.32,1099.1994" style="stroke:#181818;stroke-width:1.0;"/></g><!--link adm to Register staff--><g id="link_adm_Register staff"><path d="M94.51,1213.4194 C114.15,1206.5394 138.17,1198.4694 160,1192.1094 C189.46,1183.5194 216.9958,1176.668 243.6658,1170.468 " fill="none" id="adm-to-Register staff" style="stroke:#181818;stroke-width:1.0;"/><polygon fill="#181818" points="249.51,1169.1094,239.838,1167.2512,244.6399,1170.2415,241.6495,1175.0434,249.51,1169.1094" style="stroke:#181818;stroke-width:1.0;"/></g><!--link adm to Edit a staff's profile--><g id="link_adm_Edit a staff's profile"><path d="M94.73,1228.1094 C128.07,1228.1094 170.27,1228.1094 211.48,1228.1094 " fill="none" id="adm-to-Edit a staff's profile" style="stroke:#181818;stroke-width:1.0;"/><polygon fill="#181818" points="217.48,1228.1094,208.48,1224.1094,212.48,1228.1094,208.48,1232.1094,217.48,1228.1094" style="stroke:#181818;stroke-width:1.0;"/></g><!--link adm to Deactivate a staff's profile--><g id="link_adm_Deactivate a staff's profile"><path d="M94.59,1242.8694 C114.26,1249.8694 138.27,1258.1994 160,1265.1094 C184.65,1272.9494 206.188,1279.321 230.038,1286.091 " fill="none" id="adm-to-Deactivate a staff's profile" style="stroke:#181818;stroke-width:1.0;"/><polygon fill="#181818" points="235.81,1287.7294,228.2443,1281.4238,231,1286.364,226.0598,1289.1197,235.81,1287.7294" style="stroke:#181818;stroke-width:1.0;"/></g><!--link adm to List/Search staff profiles--><g id="link_adm_List/Search staff profiles"><path d="M80.51,1267.3594 C99.75,1292.9994 127.95,1325.2794 160,1345.1094 C179.08,1356.9094 196.0091,1363.6591 217.5091,1369.4891 " fill="none" id="adm-to-List/Search staff profiles" style="stroke:#181818;stroke-width:1.0;"/><polygon fill="#181818" points="223.3,1371.0594,215.6605,1364.8434,218.4743,1369.7508,213.5668,1372.5646,223.3,1371.0594" style="stroke:#181818;stroke-width:1.0;"/></g><!--link adm to Add new operation types--><g id="link_adm_Add new operation types"><path d="M65.2,1267.4194 C79.83,1311.6894 109.67,1382.6994 160,1423.1094 C176.45,1436.3194 191.3111,1443.4754 211.5911,1449.4054 " fill="none" id="adm-to-Add new operation types" style="stroke:#181818;stroke-width:1.0;"/><polygon fill="#181818" points="217.35,1451.0894,209.8343,1444.7243,212.551,1449.6861,207.5891,1452.4027,217.35,1451.0894" style="stroke:#181818;stroke-width:1.0;"/></g><!--link adm to Edit operation types--><g id="link_adm_Edit operation types"><path d="M57.94,1267.1794 C66.09,1326.9094 90.32,1440.5594 160,1503.1094 C176.91,1518.2894 193.5329,1525.9192 215.4529,1531.2992 " fill="none" id="adm-to-Edit operation types" style="stroke:#181818;stroke-width:1.0;"/><polygon fill="#181818" points="221.28,1532.7294,213.4929,1526.6994,216.4241,1531.5376,211.586,1534.4688,221.28,1532.7294" style="stroke:#181818;stroke-width:1.0;"/></g><!--link adm to Remove operation types--><g id="link_adm_Remove operation types"><path d="M54.35,1267.1994 C57.16,1338.9294 73.63,1491.9894 160,1577.1094 C174.67,1591.5594 188.4554,1599.1276 208.2254,1605.0876 " fill="none" id="adm-to-Remove operation types" style="stroke:#181818;stroke-width:1.0;"/><polygon fill="#181818" points="213.97,1606.8194,206.5076,1600.3919,209.1828,1605.3762,204.1985,1608.0514,213.97,1606.8194" style="stroke:#181818;stroke-width:1.0;"/></g><!--link adm to List/Search operation types--><g id="link_adm_List/Search operation types"><path d="M58.69,1267.3694 C70.8,1362.2994 105.98,1600.6294 160,1657.1094 C173.13,1670.8394 184.9183,1678.101 203.0383,1684.251 " fill="none" id="adm-to-List/Search operation types" style="stroke:#181818;stroke-width:1.0;"/><polygon fill="#181818" points="208.72,1686.1794,201.4831,1679.499,203.9853,1684.5724,198.9119,1687.0746,208.72,1686.1794" style="stroke:#181818;stroke-width:1.0;"/></g><!--link dc to Request an operation--><g id="link_dc_Request an operation"><path d="M74.23,545.2694 C94.4,526.4994 127.06,498.7994 160,482.1094 C182.25,470.8394 202.3915,463.943 225.8015,457.883 " fill="none" id="dc-to-Request an operation" style="stroke:#181818;stroke-width:1.0;"/><polygon fill="#181818" points="231.61,456.3794,221.8948,454.7624,226.7696,457.6324,223.8996,462.5072,231.61,456.3794" style="stroke:#181818;stroke-width:1.0;"/></g><!--link dc to Update an operation request--><g id="link_dc_Update an operation request"><path d="M74.05,561.6694 C104.33,556.4794 157.6162,547.3428 207.6862,538.7628 " fill="none" id="dc-to-Update an operation request" style="stroke:#181818;stroke-width:1.0;"/><polygon fill="#181818" points="213.6,537.7494,204.0537,535.3269,208.6718,538.5939,205.4049,543.212,213.6,537.7494" style="stroke:#181818;stroke-width:1.0;"/></g><!--link dc to Remove an operation request--><g id="link_dc_Remove an operation request"><path d="M74.05,568.5494 C103.71,573.6294 155.1762,582.4562 204.5562,590.9162 " fill="none" id="dc-to-Remove an operation request" style="stroke:#181818;stroke-width:1.0;"/><polygon fill="#181818" points="210.47,591.9294,202.2747,586.467,205.5418,591.0851,200.9238,594.3522,210.47,591.9294" style="stroke:#181818;stroke-width:1.0;"/></g><!--link dc to List/Search all operation requests--><g id="link_dc_List/Search all operation requests"><path d="M74.26,585.2094 C94.46,604.2694 127.14,632.5294 160,650.1094 C177.86,659.6594 192.4242,665.6835 211.8542,672.0035 " fill="none" id="dc-to-List/Search all operation requests" style="stroke:#181818;stroke-width:1.0;"/><polygon fill="#181818" points="217.56,673.8594,210.2386,667.2717,212.8052,672.3128,207.7641,674.8793,217.56,673.8594" style="stroke:#181818;stroke-width:1.0;"/></g><!--link pt to Register into the healthcare application--><g id="link_pt_Register into the healthcare application"><path d="M75.21,179.6394 C95.85,163.3094 128.6,139.0994 160,123.1094 C177.52,114.1894 191.417,108.3001 210.197,101.6201 " fill="none" id="pt-to-Register into the healthcare application" style="stroke:#181818;stroke-width:1.0;"/><polygon fill="#181818" points="215.85,99.6094,206.0299,98.8568,211.1391,101.285,208.711,106.3942,215.85,99.6094" style="stroke:#181818;stroke-width:1.0;"/></g><!--link pt to Update their profile--><g id="link_pt_Update their profile"><path d="M75.31,193.8894 C109.54,188.7194 172.2872,179.2449 224.5572,171.3549 " fill="none" id="pt-to-Update their profile" style="stroke:#181818;stroke-width:1.0;"/><polygon fill="#181818" points="230.49,170.4594,220.9938,167.8475,225.546,171.2057,222.1878,175.7579,230.49,170.4594" style="stroke:#181818;stroke-width:1.0;"/></g><!--link pt to Delete their profile--><g id="link_pt_Delete their profile"><path d="M75.31,200.2394 C109.83,205.3094 173.4538,214.6564 225.8838,222.3664 " fill="none" id="pt-to-Delete their profile" style="stroke:#181818;stroke-width:1.0;"/><polygon fill="#181818" points="231.82,223.2394,223.4977,217.9725,226.8732,222.5119,222.3338,225.8874,231.82,223.2394" style="stroke:#181818;stroke-width:1.0;"/></g><!--link pt to Log in--><g id="link_pt_Log in"><path d="M75.35,215.0794 C95.83,231.4394 128.24,255.1194 160,269.1094 C193.25,283.7594 228.0503,291.471 256.7903,296.221 " fill="none" id="pt-to-Log in" style="stroke:#181818;stroke-width:1.0;"/><polygon fill="#181818" points="262.71,297.1994,254.4827,291.7853,257.7769,296.3841,253.1782,299.6783,262.71,297.1994" style="stroke:#181818;stroke-width:1.0;"/></g><!--link bu to Log in--><g id="link_bu_Log in"><path d="M100.08,347.5794 C148.32,336.5494 217.0309,320.8467 259.8509,311.0567 " fill="none" id="bu-to-Log in" style="stroke:#181818;stroke-width:1.0;"/><polygon fill="#181818" points="265.7,309.7194,256.0349,307.8259,260.8258,310.8338,257.8179,315.6247,265.7,309.7194" style="stroke:#181818;stroke-width:1.0;"/></g><!--link bu to Reset password--><g id="link_bu_Reset password"><path d="M100.08,360.3694 C135.57,362.1094 179.3072,364.246 220.1672,366.246 " fill="none" id="bu-to-Reset password" style="stroke:#181818;stroke-width:1.0;"/><polygon fill="#181818" points="226.16,366.5394,217.3663,362.1042,221.166,366.2949,216.9752,370.0946,226.16,366.5394" style="stroke:#181818;stroke-width:1.0;"/></g><!--SRC=[VPF1JiCm38RlUGhVO8U9Dq0QZ1i7DBG7y1AtjSYQaBYRU7kyhkqAxNg9bFw_dK-_NM7n1FjCy8fwR1dBX4TZF1K24Y1nMGauJcI5GssCGIiXmSOTkUOi2Iytp81Eg_I0zVeP7dTKgaW93cY_Gb6m9MWofRoQyKGKfbh6sfjZ0HmKY2aKx6das98deIN7ktP_-YHCjfhOPZcoO55C8ThF3_CC6WQVK3cMR6EGrZL7iN4EQZf3YAIPQjGWFv4ccToNTtGC9remZ34chcwiss2xUJfhZBDzw- -6icPHtmfNWxgFharW94AwLgn6BLgwPTEO4BsVMc-W7zU1NaYZ61FbtoovrkMLYg0Yz59PJFfuZ9vjHzzNTFHgvNIRNQzsMtP7VG-bFZGmlGoxhlzJ6-AXCURG_3Ntznrb4btCdCyXEMto2m00]--></g></svg>