<?xml version="1.0" encoding="us-ascii" standalone="no"?><svg xmlns="http://www.w3.org/2000/svg" xmlns:xlink="http://www.w3.org/1999/xlink" contentStyleType="text/css" height="504px" preserveAspectRatio="none" style="width:517px;height:504px;background:#FFFFFF;" version="1.1" viewBox="0 0 517 504" width="517px" zoomAndPan="magnify"><defs/><g><text fill="#000000" font-family="sans-serif" font-size="14" font-weight="bold" lengthAdjust="spacing" textLength="109" x="205.25" y="29.5332">Edit {Resource}</text><rect fill="#FFFFFF" height="246.1328" style="stroke:#181818;stroke-width:1.0;" width="10" x="54.5" y="148.8281"/><rect fill="#FFFFFF" height="208.7813" style="stroke:#181818;stroke-width:1.0;" width="10" x="442.5" y="171.1797"/><rect fill="none" height="141.0781" style="stroke:#000000;stroke-width:1.5;" width="500.5" x="10" y="246.8828"/><line style="stroke:#181818;stroke-width:0.5;stroke-dasharray:5.0,5.0;" x1="59" x2="59" y1="138.8281" y2="404.9609"/><line style="stroke:#181818;stroke-width:0.5;stroke-dasharray:5.0,5.0;" x1="447.5" x2="447.5" y1="138.8281" y2="404.9609"/><text fill="#000000" font-family="sans-serif" font-size="14" font-style="italic" lengthAdjust="spacing" textLength="73" x="20" y="118.1426">&#171;DEI User&#187;</text><text fill="#000000" font-family="sans-serif" font-size="14" lengthAdjust="spacing" textLength="29" x="42" y="135.752">User</text><ellipse cx="59.5" cy="52.1094" fill="#E2E2F0" rx="8" ry="8" style="stroke:#181818;stroke-width:0.5;"/><path d="M59.5,60.1094 L59.5,87.1094 M46.5,68.1094 L72.5,68.1094 M59.5,87.1094 L46.5,102.1094 M59.5,87.1094 L72.5,102.1094 " fill="none" style="stroke:#181818;stroke-width:0.5;"/><text fill="#000000" font-family="sans-serif" font-size="14" font-style="italic" lengthAdjust="spacing" textLength="73" x="20" y="418.4941">&#171;DEI User&#187;</text><text fill="#000000" font-family="sans-serif" font-size="14" lengthAdjust="spacing" textLength="29" x="42" y="436.1035">User</text><ellipse cx="59.5" cy="447.6797" fill="#E2E2F0" rx="8" ry="8" style="stroke:#181818;stroke-width:0.5;"/><path d="M59.5,455.6797 L59.5,482.6797 M46.5,463.6797 L72.5,463.6797 M59.5,482.6797 L46.5,497.6797 M59.5,482.6797 L72.5,497.6797 " fill="none" style="stroke:#181818;stroke-width:0.5;"/><rect fill="#E2E2F0" height="49.2188" rx="2.5" ry="2.5" style="stroke:#181818;stroke-width:0.5;" width="106" x="394.5" y="88.6094"/><text fill="#000000" font-family="sans-serif" font-size="14" font-style="italic" lengthAdjust="spacing" textLength="92" x="401.5" y="110.1426">&#171;system (C4)&#187;</text><text fill="#000000" font-family="sans-serif" font-size="14" lengthAdjust="spacing" textLength="50" x="422.5" y="127.752">Hospital</text><rect fill="#E2E2F0" height="49.2188" rx="2.5" ry="2.5" style="stroke:#181818;stroke-width:0.5;" width="106" x="394.5" y="403.9609"/><text fill="#000000" font-family="sans-serif" font-size="14" font-style="italic" lengthAdjust="spacing" textLength="92" x="401.5" y="425.4941">&#171;system (C4)&#187;</text><text fill="#000000" font-family="sans-serif" font-size="14" lengthAdjust="spacing" textLength="50" x="422.5" y="443.1035">Hospital</text><rect fill="#FFFFFF" height="246.1328" style="stroke:#181818;stroke-width:1.0;" width="10" x="54.5" y="148.8281"/><rect fill="#FFFFFF" height="208.7813" style="stroke:#181818;stroke-width:1.0;" width="10" x="442.5" y="171.1797"/><polygon fill="#181818" points="430.5,167.1797,440.5,171.1797,430.5,175.1797,434.5,171.1797" style="stroke:#181818;stroke-width:1.0;"/><line style="stroke:#181818;stroke-width:1.0;" x1="64.5" x2="436.5" y1="171.1797" y2="171.1797"/><text fill="#000000" font-family="sans-serif" font-size="13" font-weight="bold" lengthAdjust="spacing" textLength="7" x="71.5" y="166.3232">1</text><text fill="#000000" font-family="sans-serif" font-size="13" lengthAdjust="spacing" textLength="130" x="82.5" y="166.3232">Ask to edit {Resource}</text><polygon fill="#181818" points="75.5,197.5313,65.5,201.5313,75.5,205.5313,71.5,201.5313" style="stroke:#181818;stroke-width:1.0;"/><line style="stroke:#181818;stroke-width:1.0;stroke-dasharray:2.0,2.0;" x1="69.5" x2="441.5" y1="201.5313" y2="201.5313"/><text fill="#000000" font-family="sans-serif" font-size="13" font-weight="bold" lengthAdjust="spacing" textLength="7" x="81.5" y="196.6748">2</text><text fill="#000000" font-family="sans-serif" font-size="13" lengthAdjust="spacing" textLength="176" x="92.5" y="196.6748">displays {Resource} Edit Form</text><polygon fill="#181818" points="430.5,227.8828,440.5,231.8828,430.5,235.8828,434.5,231.8828" style="stroke:#181818;stroke-width:1.0;"/><line style="stroke:#181818;stroke-width:1.0;" x1="64.5" x2="436.5" y1="231.8828" y2="231.8828"/><text fill="#000000" font-family="sans-serif" font-size="13" font-weight="bold" lengthAdjust="spacing" textLength="7" x="71.5" y="227.0264">3</text><text fill="#000000" font-family="sans-serif" font-size="13" lengthAdjust="spacing" textLength="227" x="82.5" y="227.0264">Fills and submits {Resource} Edit Form</text><path d="M10,246.8828 L71,246.8828 L71,255.2344 L61,265.2344 L10,265.2344 L10,246.8828 " fill="#EEEEEE" style="stroke:#000000;stroke-width:1.5;"/><rect fill="none" height="141.0781" style="stroke:#000000;stroke-width:1.5;" width="500.5" x="10" y="246.8828"/><text fill="#000000" font-family="sans-serif" font-size="13" font-weight="bold" lengthAdjust="spacing" textLength="16" x="25" y="261.3779">alt</text><polygon fill="#181818" points="75.5,283.5859,65.5,287.5859,75.5,291.5859,71.5,287.5859" style="stroke:#181818;stroke-width:1.0;"/><line style="stroke:#181818;stroke-width:1.0;stroke-dasharray:2.0,2.0;" x1="69.5" x2="441.5" y1="287.5859" y2="287.5859"/><text fill="#000000" font-family="sans-serif" font-size="13" font-weight="bold" lengthAdjust="spacing" textLength="7" x="81.5" y="282.7295">4</text><text fill="#000000" font-family="sans-serif" font-size="13" lengthAdjust="spacing" textLength="343" x="92.5" y="282.7295">displays success message and updates the {Resource} list</text><line style="stroke:#000000;stroke-width:1.0;stroke-dasharray:2.0,2.0;" x1="10" x2="510.5" y1="296.5859" y2="296.5859"/><text fill="#000000" font-family="sans-serif" font-size="11" font-weight="bold" lengthAdjust="spacing" textLength="159" x="15" y="308.0049">[required fields are missing]</text><polygon fill="#181818" points="75.5,329.7734,65.5,333.7734,75.5,337.7734,71.5,333.7734" style="stroke:#181818;stroke-width:1.0;"/><line style="stroke:#181818;stroke-width:1.0;stroke-dasharray:2.0,2.0;" x1="69.5" x2="441.5" y1="333.7734" y2="333.7734"/><text fill="#000000" font-family="sans-serif" font-size="13" font-weight="bold" lengthAdjust="spacing" textLength="7" x="81.5" y="328.917">5</text><text fill="#000000" font-family="sans-serif" font-size="13" lengthAdjust="spacing" textLength="153" x="92.5" y="328.917">displays warning message</text><line style="stroke:#000000;stroke-width:1.0;stroke-dasharray:2.0,2.0;" x1="10" x2="510.5" y1="342.7734" y2="342.7734"/><text fill="#000000" font-family="sans-serif" font-size="11" font-weight="bold" lengthAdjust="spacing" textLength="121" x="15" y="354.1924">[invalid data provided]</text><polygon fill="#181818" points="75.5,375.9609,65.5,379.9609,75.5,383.9609,71.5,379.9609" style="stroke:#181818;stroke-width:1.0;"/><line style="stroke:#181818;stroke-width:1.0;stroke-dasharray:2.0,2.0;" x1="69.5" x2="446.5" y1="379.9609" y2="379.9609"/><text fill="#000000" font-family="sans-serif" font-size="13" font-weight="bold" lengthAdjust="spacing" textLength="7" x="81.5" y="375.1045">6</text><text fill="#000000" font-family="sans-serif" font-size="13" lengthAdjust="spacing" textLength="135" x="92.5" y="375.1045">displays error message</text><!--SRC=[TP7FIWCn48VlUOgX9ptqvadAWcZBUbNs0QR9M8Vcdvb9PH7VtMohii9w2M7opVSR9bWrnHhsL8mSEMOi622ZFUA1ddNq18Mi6gEixRvrhF3nH99giVHf35fD1LQ3K5a12WomsJni7s4gT9rfEcNB6QF2ga-IMT6VmRw1CefIWAlxc-l6JYu-eH8CnWomxg2_1RYJ8sW2MWY-mFq4RzRhYNOisUCeC_8oyYwLC9Fks7i1Z0waxWFhVmteTSakrLeIWT2EjgQpg6RNfX7GLvhBF4jJa9TfZs-L2pbuOVAknHU2m28S3qiXxrXYU_e9-PPmFA5d1oqC8PTqOaTkgPrAQH_ps-nelZ2AxazfC5y0]--></g></svg>