<?xml version="1.0" encoding="us-ascii" standalone="no"?><svg xmlns="http://www.w3.org/2000/svg" xmlns:xlink="http://www.w3.org/1999/xlink" contentStyleType="text/css" height="736px" preserveAspectRatio="none" style="width:637px;height:736px;background:#FFFFFF;" version="1.1" viewBox="0 0 637 736" width="637px" zoomAndPan="magnify"><defs/><g><text fill="#000000" font-family="sans-serif" font-size="14" font-weight="bold" lengthAdjust="spacing" textLength="109" x="265.25" y="29.5332">Edit {Resource}</text><rect fill="#FFFFFF" height="477.75" style="stroke:#181818;stroke-width:1.0;" width="10" x="54.5" y="148.8281"/><rect fill="#FFFFFF" height="440.3984" style="stroke:#181818;stroke-width:1.0;" width="10" x="326.5" y="171.1797"/><rect fill="#FFFFFF" height="311.9922" style="stroke:#181818;stroke-width:1.0;" width="10" x="541.5" y="262.2344"/><rect fill="none" height="342.3438" style="stroke:#000000;stroke-width:1.5;" width="620.5" x="10" y="277.2344"/><rect fill="none" height="203.1016" style="stroke:#000000;stroke-width:1.5;" width="349" x="271.5" y="379.125"/><line style="stroke:#181818;stroke-width:0.5;stroke-dasharray:5.0,5.0;" x1="59" x2="59" y1="138.8281" y2="636.5781"/><line style="stroke:#181818;stroke-width:0.5;stroke-dasharray:5.0,5.0;" x1="331.5" x2="331.5" y1="138.8281" y2="636.5781"/><line style="stroke:#181818;stroke-width:0.5;stroke-dasharray:5.0,5.0;" x1="546.5" x2="546.5" y1="138.8281" y2="636.5781"/><text fill="#000000" font-family="sans-serif" font-size="14" font-style="italic" lengthAdjust="spacing" textLength="73" x="20" y="118.1426">&#171;DEI User&#187;</text><text fill="#000000" font-family="sans-serif" font-size="14" lengthAdjust="spacing" textLength="29" x="42" y="135.752">User</text><ellipse cx="59.5" cy="52.1094" fill="#E2E2F0" rx="8" ry="8" style="stroke:#181818;stroke-width:0.5;"/><path d="M59.5,60.1094 L59.5,87.1094 M46.5,68.1094 L72.5,68.1094 M59.5,87.1094 L46.5,102.1094 M59.5,87.1094 L72.5,102.1094 " fill="none" style="stroke:#181818;stroke-width:0.5;"/><text fill="#000000" font-family="sans-serif" font-size="14" font-style="italic" lengthAdjust="spacing" textLength="73" x="20" y="650.1113">&#171;DEI User&#187;</text><text fill="#000000" font-family="sans-serif" font-size="14" lengthAdjust="spacing" textLength="29" x="42" y="667.7207">User</text><ellipse cx="59.5" cy="679.2969" fill="#E2E2F0" rx="8" ry="8" style="stroke:#181818;stroke-width:0.5;"/><path d="M59.5,687.2969 L59.5,714.2969 M46.5,695.2969 L72.5,695.2969 M59.5,714.2969 L46.5,729.2969 M59.5,714.2969 L72.5,729.2969 " fill="none" style="stroke:#181818;stroke-width:0.5;"/><rect fill="#E2E2F0" height="49.2188" rx="2.5" ry="2.5" style="stroke:#181818;stroke-width:0.5;" width="100" x="281.5" y="88.6094"/><text fill="#000000" font-family="sans-serif" font-size="14" font-style="italic" lengthAdjust="spacing" textLength="86" x="288.5" y="110.1426">&#171;component&#187;</text><text fill="#000000" font-family="sans-serif" font-size="14" lengthAdjust="spacing" textLength="83" x="290" y="127.752">PortalModule</text><rect fill="#E2E2F0" height="49.2188" rx="2.5" ry="2.5" style="stroke:#181818;stroke-width:0.5;" width="100" x="281.5" y="635.5781"/><text fill="#000000" font-family="sans-serif" font-size="14" font-style="italic" lengthAdjust="spacing" textLength="86" x="288.5" y="657.1113">&#171;component&#187;</text><text fill="#000000" font-family="sans-serif" font-size="14" lengthAdjust="spacing" textLength="83" x="290" y="674.7207">PortalModule</text><rect fill="#E2E2F0" height="49.2188" rx="2.5" ry="2.5" style="stroke:#181818;stroke-width:0.5;" width="128" x="482.5" y="88.6094"/><text fill="#000000" font-family="sans-serif" font-size="14" font-style="italic" lengthAdjust="spacing" textLength="86" x="503.5" y="110.1426">&#171;component&#187;</text><text fill="#000000" font-family="sans-serif" font-size="14" lengthAdjust="spacing" textLength="114" x="489.5" y="127.752">BackOfficeModule</text><rect fill="#E2E2F0" height="49.2188" rx="2.5" ry="2.5" style="stroke:#181818;stroke-width:0.5;" width="128" x="482.5" y="635.5781"/><text fill="#000000" font-family="sans-serif" font-size="14" font-style="italic" lengthAdjust="spacing" textLength="86" x="503.5" y="657.1113">&#171;component&#187;</text><text fill="#000000" font-family="sans-serif" font-size="14" lengthAdjust="spacing" textLength="114" x="489.5" y="674.7207">BackOfficeModule</text><rect fill="#FFFFFF" height="477.75" style="stroke:#181818;stroke-width:1.0;" width="10" x="54.5" y="148.8281"/><rect fill="#FFFFFF" height="440.3984" style="stroke:#181818;stroke-width:1.0;" width="10" x="326.5" y="171.1797"/><rect fill="#FFFFFF" height="311.9922" style="stroke:#181818;stroke-width:1.0;" width="10" x="541.5" y="262.2344"/><polygon fill="#181818" points="314.5,167.1797,324.5,171.1797,314.5,175.1797,318.5,171.1797" style="stroke:#181818;stroke-width:1.0;"/><line style="stroke:#181818;stroke-width:1.0;" x1="64.5" x2="320.5" y1="171.1797" y2="171.1797"/><text fill="#000000" font-family="sans-serif" font-size="13" font-weight="bold" lengthAdjust="spacing" textLength="7" x="71.5" y="166.3232">1</text><text fill="#000000" font-family="sans-serif" font-size="13" lengthAdjust="spacing" textLength="130" x="82.5" y="166.3232">Ask to edit {Resource}</text><polygon fill="#181818" points="75.5,197.5313,65.5,201.5313,75.5,205.5313,71.5,201.5313" style="stroke:#181818;stroke-width:1.0;"/><line style="stroke:#181818;stroke-width:1.0;stroke-dasharray:2.0,2.0;" x1="69.5" x2="325.5" y1="201.5313" y2="201.5313"/><text fill="#000000" font-family="sans-serif" font-size="13" font-weight="bold" lengthAdjust="spacing" textLength="7" x="81.5" y="196.6748">2</text><text fill="#000000" font-family="sans-serif" font-size="13" lengthAdjust="spacing" textLength="176" x="92.5" y="196.6748">displays {Resource} Edit Form</text><polygon fill="#181818" points="314.5,227.8828,324.5,231.8828,314.5,235.8828,318.5,231.8828" style="stroke:#181818;stroke-width:1.0;"/><line style="stroke:#181818;stroke-width:1.0;" x1="64.5" x2="320.5" y1="231.8828" y2="231.8828"/><text fill="#000000" font-family="sans-serif" font-size="13" font-weight="bold" lengthAdjust="spacing" textLength="7" x="71.5" y="227.0264">3</text><text fill="#000000" font-family="sans-serif" font-size="13" lengthAdjust="spacing" textLength="227" x="82.5" y="227.0264">Fills and submits {Resource} Edit Form</text><polygon fill="#181818" points="529.5,258.2344,539.5,262.2344,529.5,266.2344,533.5,262.2344" style="stroke:#181818;stroke-width:1.0;"/><line style="stroke:#181818;stroke-width:1.0;" x1="336.5" x2="535.5" y1="262.2344" y2="262.2344"/><text fill="#000000" font-family="sans-serif" font-size="13" font-weight="bold" lengthAdjust="spacing" textLength="7" x="343.5" y="257.3779">4</text><text fill="#000000" font-family="sans-serif" font-size="13" lengthAdjust="spacing" textLength="158" x="354.5" y="257.3779">PUT resources/{resourceId}</text><path d="M10,277.2344 L71,277.2344 L71,285.5859 L61,295.5859 L10,295.5859 L10,277.2344 " fill="#EEEEEE" style="stroke:#000000;stroke-width:1.5;"/><rect fill="none" height="342.3438" style="stroke:#000000;stroke-width:1.5;" width="620.5" x="10" y="277.2344"/><text fill="#000000" font-family="sans-serif" font-size="13" font-weight="bold" lengthAdjust="spacing" textLength="16" x="25" y="291.7295">alt</text><text fill="#000000" font-family="sans-serif" font-size="11" font-weight="bold" lengthAdjust="spacing" textLength="55" x="86" y="290.6533">[success]</text><polygon fill="#181818" points="347.5,313.9375,337.5,317.9375,347.5,321.9375,343.5,317.9375" style="stroke:#181818;stroke-width:1.0;"/><line style="stroke:#181818;stroke-width:1.0;stroke-dasharray:2.0,2.0;" x1="341.5" x2="540.5" y1="317.9375" y2="317.9375"/><text fill="#000000" font-family="sans-serif" font-size="13" font-weight="bold" lengthAdjust="spacing" textLength="7" x="353.5" y="313.0811">5</text><text fill="#000000" font-family="sans-serif" font-size="13" lengthAdjust="spacing" textLength="163" x="364.5" y="313.0811">Response status code - 200</text><polygon fill="#181818" points="75.5,344.2891,65.5,348.2891,75.5,352.2891,71.5,348.2891" style="stroke:#181818;stroke-width:1.0;"/><line style="stroke:#181818;stroke-width:1.0;stroke-dasharray:2.0,2.0;" x1="69.5" x2="325.5" y1="348.2891" y2="348.2891"/><text fill="#000000" font-family="sans-serif" font-size="13" font-weight="bold" lengthAdjust="spacing" textLength="7" x="81.5" y="343.4326">6</text><text fill="#000000" font-family="sans-serif" font-size="13" lengthAdjust="spacing" textLength="158" x="92.5" y="343.4326">displays success message</text><line style="stroke:#000000;stroke-width:1.0;stroke-dasharray:2.0,2.0;" x1="10" x2="630.5" y1="357.2891" y2="357.2891"/><text fill="#000000" font-family="sans-serif" font-size="11" font-weight="bold" lengthAdjust="spacing" textLength="83" x="15" y="368.708">[unsuccessful]</text><path d="M271.5,379.125 L332.5,379.125 L332.5,387.4766 L322.5,397.4766 L271.5,397.4766 L271.5,379.125 " fill="#EEEEEE" style="stroke:#000000;stroke-width:1.5;"/><rect fill="none" height="203.1016" style="stroke:#000000;stroke-width:1.5;" width="349" x="271.5" y="379.125"/><text fill="#000000" font-family="sans-serif" font-size="13" font-weight="bold" lengthAdjust="spacing" textLength="16" x="286.5" y="393.6201">alt</text><line style="stroke:#000000;stroke-width:1.0;stroke-dasharray:2.0,2.0;" x1="271.5" x2="620.5" y1="398.4766" y2="398.4766"/><text fill="#000000" font-family="sans-serif" font-size="11" font-weight="bold" lengthAdjust="spacing" textLength="69" x="276.5" y="409.8955">[invalid data]</text><polygon fill="#181818" points="347.5,431.6641,337.5,435.6641,347.5,439.6641,343.5,435.6641" style="stroke:#181818;stroke-width:1.0;"/><line style="stroke:#181818;stroke-width:1.0;stroke-dasharray:2.0,2.0;" x1="341.5" x2="540.5" y1="435.6641" y2="435.6641"/><text fill="#000000" font-family="sans-serif" font-size="13" font-weight="bold" lengthAdjust="spacing" textLength="7" x="353.5" y="430.8076">7</text><text fill="#000000" font-family="sans-serif" font-size="13" lengthAdjust="spacing" textLength="163" x="364.5" y="430.8076">Response status code - 400</text><line style="stroke:#000000;stroke-width:1.0;stroke-dasharray:2.0,2.0;" x1="271.5" x2="620.5" y1="444.6641" y2="444.6641"/><text fill="#000000" font-family="sans-serif" font-size="11" font-weight="bold" lengthAdjust="spacing" textLength="115" x="276.5" y="456.083">[resource not found]</text><polygon fill="#181818" points="347.5,477.8516,337.5,481.8516,347.5,485.8516,343.5,481.8516" style="stroke:#181818;stroke-width:1.0;"/><line style="stroke:#181818;stroke-width:1.0;stroke-dasharray:2.0,2.0;" x1="341.5" x2="540.5" y1="481.8516" y2="481.8516"/><text fill="#000000" font-family="sans-serif" font-size="13" font-weight="bold" lengthAdjust="spacing" textLength="7" x="353.5" y="476.9951">8</text><text fill="#000000" font-family="sans-serif" font-size="13" lengthAdjust="spacing" textLength="163" x="364.5" y="476.9951">Response status code - 404</text><line style="stroke:#000000;stroke-width:1.0;stroke-dasharray:2.0,2.0;" x1="271.5" x2="620.5" y1="490.8516" y2="490.8516"/><text fill="#000000" font-family="sans-serif" font-size="11" font-weight="bold" lengthAdjust="spacing" textLength="119" x="276.5" y="502.2705">[entity already exists]</text><polygon fill="#181818" points="347.5,524.0391,337.5,528.0391,347.5,532.0391,343.5,528.0391" style="stroke:#181818;stroke-width:1.0;"/><line style="stroke:#181818;stroke-width:1.0;stroke-dasharray:2.0,2.0;" x1="341.5" x2="540.5" y1="528.0391" y2="528.0391"/><text fill="#000000" font-family="sans-serif" font-size="13" font-weight="bold" lengthAdjust="spacing" textLength="7" x="353.5" y="523.1826">9</text><text fill="#000000" font-family="sans-serif" font-size="13" lengthAdjust="spacing" textLength="163" x="364.5" y="523.1826">Response status code - 409</text><line style="stroke:#000000;stroke-width:1.0;stroke-dasharray:2.0,2.0;" x1="271.5" x2="620.5" y1="537.0391" y2="537.0391"/><text fill="#000000" font-family="sans-serif" font-size="11" font-weight="bold" lengthAdjust="spacing" textLength="122" x="276.5" y="548.458">[database unavailable]</text><polygon fill="#181818" points="347.5,570.2266,337.5,574.2266,347.5,578.2266,343.5,574.2266" style="stroke:#181818;stroke-width:1.0;"/><line style="stroke:#181818;stroke-width:1.0;stroke-dasharray:2.0,2.0;" x1="341.5" x2="545.5" y1="574.2266" y2="574.2266"/><text fill="#000000" font-family="sans-serif" font-size="13" font-weight="bold" lengthAdjust="spacing" textLength="14" x="353.5" y="569.3701">10</text><text fill="#000000" font-family="sans-serif" font-size="13" lengthAdjust="spacing" textLength="163" x="371.5" y="569.3701">Response status code - 503</text><polygon fill="#181818" points="75.5,607.5781,65.5,611.5781,75.5,615.5781,71.5,611.5781" style="stroke:#181818;stroke-width:1.0;"/><line style="stroke:#181818;stroke-width:1.0;stroke-dasharray:2.0,2.0;" x1="69.5" x2="330.5" y1="611.5781" y2="611.5781"/><text fill="#000000" font-family="sans-serif" font-size="13" font-weight="bold" lengthAdjust="spacing" textLength="14" x="81.5" y="606.7217">11</text><text fill="#000000" font-family="sans-serif" font-size="13" lengthAdjust="spacing" textLength="128" x="99.5" y="606.7217">display error message</text><!--SRC=[ZPB1IWCn48RlUOgXzsBHUh2KGgKAFOX5tGUO9bC9pIPBCYaMyTsTxBQohGgzX33y_pVpJuAPWy_rcg9AM-iRZ5X3WtgBx_JAUqSGIRDIR5dk3yOoVBvG2Zbg-b8ADOS8WofH700cg60wNJmieHHcCoKujjesw1a6gn0PtLCmsL4hVbazYLo7kWcUF9_hxsMAvyt6Qkfv5lDpJvd1xf09AgKg6CuATm8mJrlW07GsyezQL4K_7GuxWx6fSRXFFN6Nzp74-eJyQ9rBWDv0oklQyd-MaazCCl84LjMRRB8JfQlFutLflde1HAdGiM2rg58BAFEr16aXcHD1OkISG0T3C8JhqUZl60S8r7B8Oof5JipP7-gRx4glhchz3fqrO91HmILjnzAsjHwJW0yCcv2zkHGmxW3oYfRtW2uIcZtGXqsSBcNSTOmoznhRUBX3wt3jw3B4xUX6WQ6J9w2IuVTAWMAKptxSPyzKlb8nzMkL-WO0]--></g></svg>