<?xml version="1.0" encoding="us-ascii" standalone="no"?><svg xmlns="http://www.w3.org/2000/svg" xmlns:xlink="http://www.w3.org/1999/xlink" contentStyleType="text/css" height="443px" preserveAspectRatio="none" style="width:517px;height:443px;background:#FFFFFF;" version="1.1" viewBox="0 0 517 443" width="517px" zoomAndPan="magnify"><defs/><g><text fill="#000000" font-family="sans-serif" font-size="14" font-weight="bold" lengthAdjust="spacing" textLength="129" x="195.25" y="29.5332">Create {Resource}</text><rect fill="#FFFFFF" height="185.4297" style="stroke:#181818;stroke-width:1.0;" width="10" x="54.5" y="148.8281"/><rect fill="#FFFFFF" height="148.0781" style="stroke:#181818;stroke-width:1.0;" width="10" x="442.5" y="171.1797"/><rect fill="none" height="141.0781" style="stroke:#000000;stroke-width:1.5;" width="500.5" x="10" y="186.1797"/><line style="stroke:#181818;stroke-width:0.5;stroke-dasharray:5.0,5.0;" x1="59" x2="59" y1="138.8281" y2="344.2578"/><line style="stroke:#181818;stroke-width:0.5;stroke-dasharray:5.0,5.0;" x1="447.5" x2="447.5" y1="138.8281" y2="344.2578"/><text fill="#000000" font-family="sans-serif" font-size="14" font-style="italic" lengthAdjust="spacing" textLength="73" x="20" y="118.1426">&#171;DEI User&#187;</text><text fill="#000000" font-family="sans-serif" font-size="14" lengthAdjust="spacing" textLength="29" x="42" y="135.752">User</text><ellipse cx="59.5" cy="52.1094" fill="#E2E2F0" rx="8" ry="8" style="stroke:#181818;stroke-width:0.5;"/><path d="M59.5,60.1094 L59.5,87.1094 M46.5,68.1094 L72.5,68.1094 M59.5,87.1094 L46.5,102.1094 M59.5,87.1094 L72.5,102.1094 " fill="none" style="stroke:#181818;stroke-width:0.5;"/><text fill="#000000" font-family="sans-serif" font-size="14" font-style="italic" lengthAdjust="spacing" textLength="73" x="20" y="357.791">&#171;DEI User&#187;</text><text fill="#000000" font-family="sans-serif" font-size="14" lengthAdjust="spacing" textLength="29" x="42" y="375.4004">User</text><ellipse cx="59.5" cy="386.9766" fill="#E2E2F0" rx="8" ry="8" style="stroke:#181818;stroke-width:0.5;"/><path d="M59.5,394.9766 L59.5,421.9766 M46.5,402.9766 L72.5,402.9766 M59.5,421.9766 L46.5,436.9766 M59.5,421.9766 L72.5,436.9766 " fill="none" style="stroke:#181818;stroke-width:0.5;"/><rect fill="#E2E2F0" height="49.2188" rx="2.5" ry="2.5" style="stroke:#181818;stroke-width:0.5;" width="106" x="394.5" y="88.6094"/><text fill="#000000" font-family="sans-serif" font-size="14" font-style="italic" lengthAdjust="spacing" textLength="92" x="401.5" y="110.1426">&#171;system (C4)&#187;</text><text fill="#000000" font-family="sans-serif" font-size="14" lengthAdjust="spacing" textLength="50" x="422.5" y="127.752">Hospital</text><rect fill="#E2E2F0" height="49.2188" rx="2.5" ry="2.5" style="stroke:#181818;stroke-width:0.5;" width="106" x="394.5" y="343.2578"/><text fill="#000000" font-family="sans-serif" font-size="14" font-style="italic" lengthAdjust="spacing" textLength="92" x="401.5" y="364.791">&#171;system (C4)&#187;</text><text fill="#000000" font-family="sans-serif" font-size="14" lengthAdjust="spacing" textLength="50" x="422.5" y="382.4004">Hospital</text><rect fill="#FFFFFF" height="185.4297" style="stroke:#181818;stroke-width:1.0;" width="10" x="54.5" y="148.8281"/><rect fill="#FFFFFF" height="148.0781" style="stroke:#181818;stroke-width:1.0;" width="10" x="442.5" y="171.1797"/><polygon fill="#181818" points="430.5,167.1797,440.5,171.1797,430.5,175.1797,434.5,171.1797" style="stroke:#181818;stroke-width:1.0;"/><line style="stroke:#181818;stroke-width:1.0;" x1="64.5" x2="436.5" y1="171.1797" y2="171.1797"/><text fill="#000000" font-family="sans-serif" font-size="13" font-weight="bold" lengthAdjust="spacing" textLength="7" x="71.5" y="166.3232">1</text><text fill="#000000" font-family="sans-serif" font-size="13" lengthAdjust="spacing" textLength="264" x="82.5" y="166.3232">Fills and submits the {Resource} Create Form</text><path d="M10,186.1797 L71,186.1797 L71,194.5313 L61,204.5313 L10,204.5313 L10,186.1797 " fill="#EEEEEE" style="stroke:#000000;stroke-width:1.5;"/><rect fill="none" height="141.0781" style="stroke:#000000;stroke-width:1.5;" width="500.5" x="10" y="186.1797"/><text fill="#000000" font-family="sans-serif" font-size="13" font-weight="bold" lengthAdjust="spacing" textLength="16" x="25" y="200.6748">alt</text><polygon fill="#181818" points="75.5,222.8828,65.5,226.8828,75.5,230.8828,71.5,226.8828" style="stroke:#181818;stroke-width:1.0;"/><line style="stroke:#181818;stroke-width:1.0;stroke-dasharray:2.0,2.0;" x1="69.5" x2="441.5" y1="226.8828" y2="226.8828"/><text fill="#000000" font-family="sans-serif" font-size="13" font-weight="bold" lengthAdjust="spacing" textLength="7" x="81.5" y="222.0264">2</text><text fill="#000000" font-family="sans-serif" font-size="13" lengthAdjust="spacing" textLength="343" x="92.5" y="222.0264">displays success message and updates the {Resource} list</text><line style="stroke:#000000;stroke-width:1.0;stroke-dasharray:2.0,2.0;" x1="10" x2="510.5" y1="235.8828" y2="235.8828"/><text fill="#000000" font-family="sans-serif" font-size="11" font-weight="bold" lengthAdjust="spacing" textLength="159" x="15" y="247.3018">[required fields are missing]</text><polygon fill="#181818" points="75.5,269.0703,65.5,273.0703,75.5,277.0703,71.5,273.0703" style="stroke:#181818;stroke-width:1.0;"/><line style="stroke:#181818;stroke-width:1.0;stroke-dasharray:2.0,2.0;" x1="69.5" x2="441.5" y1="273.0703" y2="273.0703"/><text fill="#000000" font-family="sans-serif" font-size="13" font-weight="bold" lengthAdjust="spacing" textLength="7" x="81.5" y="268.2139">3</text><text fill="#000000" font-family="sans-serif" font-size="13" lengthAdjust="spacing" textLength="153" x="92.5" y="268.2139">displays warning message</text><line style="stroke:#000000;stroke-width:1.0;stroke-dasharray:2.0,2.0;" x1="10" x2="510.5" y1="282.0703" y2="282.0703"/><text fill="#000000" font-family="sans-serif" font-size="11" font-weight="bold" lengthAdjust="spacing" textLength="121" x="15" y="293.4893">[invalid data provided]</text><polygon fill="#181818" points="75.5,315.2578,65.5,319.2578,75.5,323.2578,71.5,319.2578" style="stroke:#181818;stroke-width:1.0;"/><line style="stroke:#181818;stroke-width:1.0;stroke-dasharray:2.0,2.0;" x1="69.5" x2="446.5" y1="319.2578" y2="319.2578"/><text fill="#000000" font-family="sans-serif" font-size="13" font-weight="bold" lengthAdjust="spacing" textLength="7" x="81.5" y="314.4014">4</text><text fill="#000000" font-family="sans-serif" font-size="13" lengthAdjust="spacing" textLength="135" x="92.5" y="314.4014">displays error message</text><!--SRC=[RP2nJWCn38RtF8NL2OPkJEZKfL0TA-WUm4rCiPhaWkqhgX3lZg-YqabqYIpd_x_VDausrgdiIO8UkJOKBD0m7l50RtRE14BHGZ0shxT2Q0JVhwJZ995-Gi1eey1gK98LeC80NVVq_09pOxC93ZIEtB0QhFfH6nlcYx1tePxLgC3Tzk7UjJEBJtF04C80wmtqZm0xpba1QmATzeLDmJwM8ro7serI5eZUwsmpfrklPr1YRHdFwfWOIHMAFxxb1JsrvAP_wCpg2Cewd-5pOg44xqmv-K12K5YLw-5Mo1TAzQzho1-4wmap9_0mX2RZYHEbMtOIyQjUpOcMQr5rowBbnmg_]--></g></svg>