<?xml version="1.0" encoding="us-ascii" standalone="no"?><svg xmlns="http://www.w3.org/2000/svg" xmlns:xlink="http://www.w3.org/1999/xlink" contentStyleType="text/css" height="474px" preserveAspectRatio="none" style="width:360px;height:474px;background:#FFFFFF;" version="1.1" viewBox="0 0 360 474" width="360px" zoomAndPan="magnify"><defs/><g><text fill="#000000" font-family="sans-serif" font-size="14" font-weight="bold" lengthAdjust="spacing" textLength="128" x="117.25" y="29.5332">Delete {Resource}</text><rect fill="#FFFFFF" height="216.2969" style="stroke:#181818;stroke-width:1.0;" width="10" x="54.5" y="148.8281"/><rect fill="#FFFFFF" height="178.9453" style="stroke:#181818;stroke-width:1.0;" width="10" x="285.5" y="171.1797"/><rect fill="none" height="94.8906" style="stroke:#000000;stroke-width:1.5;" width="343.5" x="10" y="263.2344"/><line style="stroke:#181818;stroke-width:0.5;stroke-dasharray:5.0,5.0;" x1="59" x2="59" y1="138.8281" y2="375.125"/><line style="stroke:#181818;stroke-width:0.5;stroke-dasharray:5.0,5.0;" x1="290.5" x2="290.5" y1="138.8281" y2="375.125"/><text fill="#000000" font-family="sans-serif" font-size="14" font-style="italic" lengthAdjust="spacing" textLength="73" x="20" y="118.1426">&#171;DEI User&#187;</text><text fill="#000000" font-family="sans-serif" font-size="14" lengthAdjust="spacing" textLength="29" x="42" y="135.752">User</text><ellipse cx="59.5" cy="52.1094" fill="#E2E2F0" rx="8" ry="8" style="stroke:#181818;stroke-width:0.5;"/><path d="M59.5,60.1094 L59.5,87.1094 M46.5,68.1094 L72.5,68.1094 M59.5,87.1094 L46.5,102.1094 M59.5,87.1094 L72.5,102.1094 " fill="none" style="stroke:#181818;stroke-width:0.5;"/><text fill="#000000" font-family="sans-serif" font-size="14" font-style="italic" lengthAdjust="spacing" textLength="73" x="20" y="388.6582">&#171;DEI User&#187;</text><text fill="#000000" font-family="sans-serif" font-size="14" lengthAdjust="spacing" textLength="29" x="42" y="406.2676">User</text><ellipse cx="59.5" cy="417.8438" fill="#E2E2F0" rx="8" ry="8" style="stroke:#181818;stroke-width:0.5;"/><path d="M59.5,425.8438 L59.5,452.8438 M46.5,433.8438 L72.5,433.8438 M59.5,452.8438 L46.5,467.8438 M59.5,452.8438 L72.5,467.8438 " fill="none" style="stroke:#181818;stroke-width:0.5;"/><rect fill="#E2E2F0" height="49.2188" rx="2.5" ry="2.5" style="stroke:#181818;stroke-width:0.5;" width="106" x="237.5" y="88.6094"/><text fill="#000000" font-family="sans-serif" font-size="14" font-style="italic" lengthAdjust="spacing" textLength="92" x="244.5" y="110.1426">&#171;system (C4)&#187;</text><text fill="#000000" font-family="sans-serif" font-size="14" lengthAdjust="spacing" textLength="50" x="265.5" y="127.752">Hospital</text><rect fill="#E2E2F0" height="49.2188" rx="2.5" ry="2.5" style="stroke:#181818;stroke-width:0.5;" width="106" x="237.5" y="374.125"/><text fill="#000000" font-family="sans-serif" font-size="14" font-style="italic" lengthAdjust="spacing" textLength="92" x="244.5" y="395.6582">&#171;system (C4)&#187;</text><text fill="#000000" font-family="sans-serif" font-size="14" lengthAdjust="spacing" textLength="50" x="265.5" y="413.2676">Hospital</text><rect fill="#FFFFFF" height="216.2969" style="stroke:#181818;stroke-width:1.0;" width="10" x="54.5" y="148.8281"/><rect fill="#FFFFFF" height="178.9453" style="stroke:#181818;stroke-width:1.0;" width="10" x="285.5" y="171.1797"/><polygon fill="#181818" points="273.5,167.1797,283.5,171.1797,273.5,175.1797,277.5,171.1797" style="stroke:#181818;stroke-width:1.0;"/><line style="stroke:#181818;stroke-width:1.0;" x1="64.5" x2="279.5" y1="171.1797" y2="171.1797"/><text fill="#000000" font-family="sans-serif" font-size="13" font-weight="bold" lengthAdjust="spacing" textLength="7" x="71.5" y="166.3232">1</text><text fill="#000000" font-family="sans-serif" font-size="13" lengthAdjust="spacing" textLength="144" x="82.5" y="166.3232">Ask to delete {Resource}</text><polygon fill="#181818" points="75.5,213.8828,65.5,217.8828,75.5,221.8828,71.5,217.8828" style="stroke:#181818;stroke-width:1.0;"/><line style="stroke:#181818;stroke-width:1.0;stroke-dasharray:2.0,2.0;" x1="69.5" x2="284.5" y1="217.8828" y2="217.8828"/><text fill="#000000" font-family="sans-serif" font-size="13" font-weight="bold" lengthAdjust="spacing" textLength="7" x="81.5" y="204.8506">2</text><text fill="#000000" font-family="sans-serif" font-size="13" lengthAdjust="spacing" textLength="179" x="92.5" y="196.6748">displays confirmation message</text><text fill="#000000" font-family="sans-serif" font-size="13" lengthAdjust="spacing" textLength="113" x="96.5" y="213.0264">o delete {Resource}</text><polygon fill="#181818" points="273.5,244.2344,283.5,248.2344,273.5,252.2344,277.5,248.2344" style="stroke:#181818;stroke-width:1.0;"/><line style="stroke:#181818;stroke-width:1.0;" x1="64.5" x2="279.5" y1="248.2344" y2="248.2344"/><text fill="#000000" font-family="sans-serif" font-size="13" font-weight="bold" lengthAdjust="spacing" textLength="7" x="71.5" y="243.3779">3</text><text fill="#000000" font-family="sans-serif" font-size="13" lengthAdjust="spacing" textLength="186" x="82.5" y="243.3779">Selects and submits {Resource}</text><path d="M10,263.2344 L71,263.2344 L71,271.5859 L61,281.5859 L10,281.5859 L10,263.2344 " fill="#EEEEEE" style="stroke:#000000;stroke-width:1.5;"/><rect fill="none" height="94.8906" style="stroke:#000000;stroke-width:1.5;" width="343.5" x="10" y="263.2344"/><text fill="#000000" font-family="sans-serif" font-size="13" font-weight="bold" lengthAdjust="spacing" textLength="16" x="25" y="277.7295">alt</text><polygon fill="#181818" points="75.5,299.9375,65.5,303.9375,75.5,307.9375,71.5,303.9375" style="stroke:#181818;stroke-width:1.0;"/><line style="stroke:#181818;stroke-width:1.0;stroke-dasharray:2.0,2.0;" x1="69.5" x2="284.5" y1="303.9375" y2="303.9375"/><text fill="#000000" font-family="sans-serif" font-size="13" font-weight="bold" lengthAdjust="spacing" textLength="7" x="81.5" y="299.0811">4</text><text fill="#000000" font-family="sans-serif" font-size="13" lengthAdjust="spacing" textLength="158" x="92.5" y="299.0811">displays success message</text><line style="stroke:#000000;stroke-width:1.0;stroke-dasharray:2.0,2.0;" x1="10" x2="353.5" y1="312.9375" y2="312.9375"/><text fill="#000000" font-family="sans-serif" font-size="11" font-weight="bold" lengthAdjust="spacing" textLength="76" x="15" y="324.3564">[delete failed]</text><polygon fill="#181818" points="75.5,346.125,65.5,350.125,75.5,354.125,71.5,350.125" style="stroke:#181818;stroke-width:1.0;"/><line style="stroke:#181818;stroke-width:1.0;stroke-dasharray:2.0,2.0;" x1="69.5" x2="289.5" y1="350.125" y2="350.125"/><text fill="#000000" font-family="sans-serif" font-size="13" font-weight="bold" lengthAdjust="spacing" textLength="7" x="81.5" y="345.2686">5</text><text fill="#000000" font-family="sans-serif" font-size="13" lengthAdjust="spacing" textLength="135" x="92.5" y="345.2686">displays error message</text><!--SRC=[RP1DIyH038Rl-HMX9ptqvabAGLoXNbrwyvAToKheV9H9AXJnlpjLLdQXjv0yUHyIMYod9PwuW4wIPYeKSIOtqGSVRGsCXPq1c5Yj3npO6B_UMFDI77y3aBDSi1cLIuEaE6BN7LvUSMlqFTH04oSp9SDco3gBKVW5XmhggiOHxvuVxYkxPSadLS48C6BRu_28-AGJMaQ_g_x3XmtlsdRZlUWSQ5LqEPsbH3B92IEhrelU4-uauPNjM8VE52bvrEKKfTOt90NRi-dYN7LSH00Sb2-gCqbWlxV6fTJl_Izvlhw9axzfZV03]--></g></svg>