<?xml version="1.0" encoding="us-ascii" standalone="no"?><svg xmlns="http://www.w3.org/2000/svg" xmlns:xlink="http://www.w3.org/1999/xlink" contentStyleType="text/css" height="1414px" preserveAspectRatio="none" style="width:731px;height:1414px;background:#FFFFFF;" version="1.1" viewBox="0 0 731 1414" width="731px" zoomAndPan="magnify"><defs/><g><text fill="#000000" font-family="sans-serif" font-size="14" font-weight="bold" lengthAdjust="spacing" textLength="187" x="273" y="29.5332">Update Operation Request</text><rect fill="#FFFFFF" height="979.5313" style="stroke:#181818;stroke-width:1.0;" width="10" x="456" y="157.1797"/><rect fill="#FFFFFF" height="30.3516" style="stroke:#181818;stroke-width:1.0;" width="10" x="663" y="212.8828"/><rect fill="#FFFFFF" height="30.3516" style="stroke:#181818;stroke-width:1.0;" width="10" x="663" y="428.6641"/><rect fill="#FFFFFF" height="30.3516" style="stroke:#181818;stroke-width:1.0;" width="10" x="663" y="644.4453"/><rect fill="#FFFFFF" height="30.3516" style="stroke:#181818;stroke-width:1.0;" width="10" x="663" y="860.2266"/><rect fill="#FFFFFF" height="30.3516" style="stroke:#181818;stroke-width:1.0;" width="10" x="663" y="1076.0078"/><rect fill="none" height="1127.6094" style="stroke:#000000;stroke-width:1.5;" width="721" x="3" y="172.1797"/><rect fill="none" height="141.0781" style="stroke:#000000;stroke-width:1.5;" width="518" x="3" y="258.2344"/><rect fill="none" height="141.0781" style="stroke:#000000;stroke-width:1.5;" width="518" x="3" y="474.0156"/><rect fill="none" height="141.0781" style="stroke:#000000;stroke-width:1.5;" width="518" x="3" y="689.7969"/><rect fill="none" height="141.0781" style="stroke:#000000;stroke-width:1.5;" width="518" x="3" y="905.5781"/><rect fill="none" height="94.8906" style="stroke:#000000;stroke-width:1.5;" width="518" x="3" y="1151.7109"/><line style="stroke:#181818;stroke-width:0.5;stroke-dasharray:5.0,5.0;" x1="461" x2="461" y1="124.8281" y2="1316.7891"/><line style="stroke:#181818;stroke-width:0.5;stroke-dasharray:5.0,5.0;" x1="668" x2="668" y1="124.8281" y2="1316.7891"/><rect fill="#E2E2F0" height="49.2188" rx="2.5" ry="2.5" style="stroke:#181818;stroke-width:0.5;" width="100" x="411" y="74.6094"/><text fill="#000000" font-family="sans-serif" font-size="14" font-style="italic" lengthAdjust="spacing" textLength="86" x="418" y="96.1426">&#171;component&#187;</text><text fill="#000000" font-family="sans-serif" font-size="14" lengthAdjust="spacing" textLength="61" x="430.5" y="113.752">Back-End</text><rect fill="#E2E2F0" height="49.2188" rx="2.5" ry="2.5" style="stroke:#181818;stroke-width:0.5;" width="100" x="411" y="1315.7891"/><text fill="#000000" font-family="sans-serif" font-size="14" font-style="italic" lengthAdjust="spacing" textLength="86" x="418" y="1337.3223">&#171;component&#187;</text><text fill="#000000" font-family="sans-serif" font-size="14" lengthAdjust="spacing" textLength="61" x="430.5" y="1354.9316">Back-End</text><text fill="#000000" font-family="sans-serif" font-size="14" font-style="italic" lengthAdjust="spacing" textLength="86" x="622" y="104.1426">&#171;component&#187;</text><text fill="#000000" font-family="sans-serif" font-size="14" lengthAdjust="spacing" textLength="62" x="634" y="121.752">DataBase</text><path d="M650,53.6094 C650,43.6094 668,43.6094 668,43.6094 C668,43.6094 686,43.6094 686,53.6094 L686,79.6094 C686,89.6094 668,89.6094 668,89.6094 C668,89.6094 650,89.6094 650,79.6094 L650,53.6094 " fill="#E2E2F0" style="stroke:#181818;stroke-width:1.5;"/><path d="M650,53.6094 C650,63.6094 668,63.6094 668,63.6094 C668,63.6094 686,63.6094 686,53.6094 " fill="none" style="stroke:#181818;stroke-width:1.5;"/><text fill="#000000" font-family="sans-serif" font-size="14" font-style="italic" lengthAdjust="spacing" textLength="86" x="622" y="1330.3223">&#171;component&#187;</text><text fill="#000000" font-family="sans-serif" font-size="14" lengthAdjust="spacing" textLength="62" x="634" y="1347.9316">DataBase</text><path d="M650,1361.0078 C650,1351.0078 668,1351.0078 668,1351.0078 C668,1351.0078 686,1351.0078 686,1361.0078 L686,1387.0078 C686,1397.0078 668,1397.0078 668,1397.0078 C668,1397.0078 650,1397.0078 650,1387.0078 L650,1361.0078 " fill="#E2E2F0" style="stroke:#181818;stroke-width:1.5;"/><path d="M650,1361.0078 C650,1371.0078 668,1371.0078 668,1371.0078 C668,1371.0078 686,1371.0078 686,1361.0078 " fill="none" style="stroke:#181818;stroke-width:1.5;"/><rect fill="#FFFFFF" height="979.5313" style="stroke:#181818;stroke-width:1.0;" width="10" x="456" y="157.1797"/><rect fill="#FFFFFF" height="30.3516" style="stroke:#181818;stroke-width:1.0;" width="10" x="663" y="212.8828"/><rect fill="#FFFFFF" height="30.3516" style="stroke:#181818;stroke-width:1.0;" width="10" x="663" y="428.6641"/><rect fill="#FFFFFF" height="30.3516" style="stroke:#181818;stroke-width:1.0;" width="10" x="663" y="644.4453"/><rect fill="#FFFFFF" height="30.3516" style="stroke:#181818;stroke-width:1.0;" width="10" x="663" y="860.2266"/><rect fill="#FFFFFF" height="30.3516" style="stroke:#181818;stroke-width:1.0;" width="10" x="663" y="1076.0078"/><polygon fill="#181818" points="444,153.1797,454,157.1797,444,161.1797,448,157.1797" style="stroke:#181818;stroke-width:1.0;"/><line style="stroke:#181818;stroke-width:1.0;" x1="0" x2="450" y1="157.1797" y2="157.1797"/><text fill="#000000" font-family="sans-serif" font-size="13" font-weight="bold" lengthAdjust="spacing" textLength="7" x="7" y="152.3232">1</text><text fill="#000000" font-family="sans-serif" font-size="13" lengthAdjust="spacing" textLength="419" x="18" y="152.3232">GET operationRequest/{fullName}/{priority}/{status}/{operationTypeName}</text><path d="M3,172.1797 L64,172.1797 L64,180.5313 L54,190.5313 L3,190.5313 L3,172.1797 " fill="#EEEEEE" style="stroke:#000000;stroke-width:1.5;"/><rect fill="none" height="1127.6094" style="stroke:#000000;stroke-width:1.5;" width="721" x="3" y="172.1797"/><text fill="#000000" font-family="sans-serif" font-size="13" font-weight="bold" lengthAdjust="spacing" textLength="16" x="18" y="186.6748">alt</text><text fill="#000000" font-family="sans-serif" font-size="11" font-weight="bold" lengthAdjust="spacing" textLength="96" x="79" y="185.5986">[user authorized]</text><polygon fill="#181818" points="651,208.8828,661,212.8828,651,216.8828,655,212.8828" style="stroke:#181818;stroke-width:1.0;"/><line style="stroke:#181818;stroke-width:1.0;" x1="466" x2="657" y1="212.8828" y2="212.8828"/><text fill="#000000" font-family="sans-serif" font-size="13" font-weight="bold" lengthAdjust="spacing" textLength="7" x="473" y="208.0264">2</text><text fill="#000000" font-family="sans-serif" font-size="13" lengthAdjust="spacing" textLength="94" x="484" y="208.0264">find by full name</text><polygon fill="#181818" points="477,239.2344,467,243.2344,477,247.2344,473,243.2344" style="stroke:#181818;stroke-width:1.0;"/><line style="stroke:#181818;stroke-width:1.0;stroke-dasharray:2.0,2.0;" x1="471" x2="667" y1="243.2344" y2="243.2344"/><text fill="#000000" font-family="sans-serif" font-size="13" font-weight="bold" lengthAdjust="spacing" textLength="7" x="483" y="238.3779">3</text><text fill="#000000" font-family="sans-serif" font-size="13" lengthAdjust="spacing" textLength="4" x="494" y="238.3779">&#160;</text><path d="M3,258.2344 L64,258.2344 L64,266.5859 L54,276.5859 L3,276.5859 L3,258.2344 " fill="#EEEEEE" style="stroke:#000000;stroke-width:1.5;"/><rect fill="none" height="141.0781" style="stroke:#000000;stroke-width:1.5;" width="518" x="3" y="258.2344"/><text fill="#000000" font-family="sans-serif" font-size="13" font-weight="bold" lengthAdjust="spacing" textLength="16" x="18" y="272.7295">alt</text><text fill="#000000" font-family="sans-serif" font-size="11" font-weight="bold" lengthAdjust="spacing" textLength="90" x="79" y="271.6533">[user not found]</text><polygon fill="#181818" points="11,294.9375,1,298.9375,11,302.9375,7,298.9375" style="stroke:#181818;stroke-width:1.0;"/><line style="stroke:#181818;stroke-width:1.0;stroke-dasharray:2.0,2.0;" x1="5" x2="455" y1="298.9375" y2="298.9375"/><text fill="#000000" font-family="sans-serif" font-size="13" font-weight="bold" lengthAdjust="spacing" textLength="7" x="17" y="294.0811">4</text><text fill="#000000" font-family="sans-serif" font-size="13" lengthAdjust="spacing" textLength="163" x="28" y="294.0811">Response status code - 404</text><line style="stroke:#000000;stroke-width:1.0;stroke-dasharray:2.0,2.0;" x1="3" x2="521" y1="307.9375" y2="307.9375"/><text fill="#000000" font-family="sans-serif" font-size="11" font-weight="bold" lengthAdjust="spacing" textLength="122" x="8" y="319.3564">[database unavailable]</text><polygon fill="#181818" points="11,341.125,1,345.125,11,349.125,7,345.125" style="stroke:#181818;stroke-width:1.0;"/><line style="stroke:#181818;stroke-width:1.0;stroke-dasharray:2.0,2.0;" x1="5" x2="455" y1="345.125" y2="345.125"/><text fill="#000000" font-family="sans-serif" font-size="13" font-weight="bold" lengthAdjust="spacing" textLength="7" x="17" y="340.2686">5</text><text fill="#000000" font-family="sans-serif" font-size="13" lengthAdjust="spacing" textLength="163" x="28" y="340.2686">Response status code - 503</text><line style="stroke:#000000;stroke-width:1.0;stroke-dasharray:2.0,2.0;" x1="3" x2="521" y1="354.125" y2="354.125"/><text fill="#000000" font-family="sans-serif" font-size="11" font-weight="bold" lengthAdjust="spacing" textLength="69" x="8" y="365.5439">[user found]</text><polygon fill="#181818" points="11,387.3125,1,391.3125,11,395.3125,7,391.3125" style="stroke:#181818;stroke-width:1.0;"/><line style="stroke:#181818;stroke-width:1.0;stroke-dasharray:2.0,2.0;" x1="5" x2="455" y1="391.3125" y2="391.3125"/><text fill="#000000" font-family="sans-serif" font-size="13" font-weight="bold" lengthAdjust="spacing" textLength="7" x="17" y="386.4561">6</text><text fill="#000000" font-family="sans-serif" font-size="13" lengthAdjust="spacing" textLength="163" x="28" y="386.4561">Response status code - 200</text><polygon fill="#181818" points="651,424.6641,661,428.6641,651,432.6641,655,428.6641" style="stroke:#181818;stroke-width:1.0;"/><line style="stroke:#181818;stroke-width:1.0;" x1="466" x2="657" y1="428.6641" y2="428.6641"/><text fill="#000000" font-family="sans-serif" font-size="13" font-weight="bold" lengthAdjust="spacing" textLength="7" x="473" y="423.8076">7</text><text fill="#000000" font-family="sans-serif" font-size="13" lengthAdjust="spacing" textLength="81" x="484" y="423.8076">find by priority</text><polygon fill="#181818" points="477,455.0156,467,459.0156,477,463.0156,473,459.0156" style="stroke:#181818;stroke-width:1.0;"/><line style="stroke:#181818;stroke-width:1.0;stroke-dasharray:2.0,2.0;" x1="471" x2="667" y1="459.0156" y2="459.0156"/><text fill="#000000" font-family="sans-serif" font-size="13" font-weight="bold" lengthAdjust="spacing" textLength="7" x="483" y="454.1592">8</text><text fill="#000000" font-family="sans-serif" font-size="13" lengthAdjust="spacing" textLength="4" x="494" y="454.1592">&#160;</text><path d="M3,474.0156 L64,474.0156 L64,482.3672 L54,492.3672 L3,492.3672 L3,474.0156 " fill="#EEEEEE" style="stroke:#000000;stroke-width:1.5;"/><rect fill="none" height="141.0781" style="stroke:#000000;stroke-width:1.5;" width="518" x="3" y="474.0156"/><text fill="#000000" font-family="sans-serif" font-size="13" font-weight="bold" lengthAdjust="spacing" textLength="16" x="18" y="488.5107">alt</text><text fill="#000000" font-family="sans-serif" font-size="11" font-weight="bold" lengthAdjust="spacing" textLength="90" x="79" y="487.4346">[user not found]</text><polygon fill="#181818" points="11,510.7188,1,514.7188,11,518.7188,7,514.7188" style="stroke:#181818;stroke-width:1.0;"/><line style="stroke:#181818;stroke-width:1.0;stroke-dasharray:2.0,2.0;" x1="5" x2="455" y1="514.7188" y2="514.7188"/><text fill="#000000" font-family="sans-serif" font-size="13" font-weight="bold" lengthAdjust="spacing" textLength="7" x="17" y="509.8623">9</text><text fill="#000000" font-family="sans-serif" font-size="13" lengthAdjust="spacing" textLength="163" x="28" y="509.8623">Response status code - 404</text><line style="stroke:#000000;stroke-width:1.0;stroke-dasharray:2.0,2.0;" x1="3" x2="521" y1="523.7188" y2="523.7188"/><text fill="#000000" font-family="sans-serif" font-size="11" font-weight="bold" lengthAdjust="spacing" textLength="122" x="8" y="535.1377">[database unavailable]</text><polygon fill="#181818" points="11,556.9063,1,560.9063,11,564.9063,7,560.9063" style="stroke:#181818;stroke-width:1.0;"/><line style="stroke:#181818;stroke-width:1.0;stroke-dasharray:2.0,2.0;" x1="5" x2="455" y1="560.9063" y2="560.9063"/><text fill="#000000" font-family="sans-serif" font-size="13" font-weight="bold" lengthAdjust="spacing" textLength="14" x="17" y="556.0498">10</text><text fill="#000000" font-family="sans-serif" font-size="13" lengthAdjust="spacing" textLength="163" x="35" y="556.0498">Response status code - 503</text><line style="stroke:#000000;stroke-width:1.0;stroke-dasharray:2.0,2.0;" x1="3" x2="521" y1="569.9063" y2="569.9063"/><text fill="#000000" font-family="sans-serif" font-size="11" font-weight="bold" lengthAdjust="spacing" textLength="69" x="8" y="581.3252">[user found]</text><polygon fill="#181818" points="11,603.0938,1,607.0938,11,611.0938,7,607.0938" style="stroke:#181818;stroke-width:1.0;"/><line style="stroke:#181818;stroke-width:1.0;stroke-dasharray:2.0,2.0;" x1="5" x2="455" y1="607.0938" y2="607.0938"/><text fill="#000000" font-family="sans-serif" font-size="13" font-weight="bold" lengthAdjust="spacing" textLength="14" x="17" y="602.2373">11</text><text fill="#000000" font-family="sans-serif" font-size="13" lengthAdjust="spacing" textLength="163" x="35" y="602.2373">Response status code - 200</text><polygon fill="#181818" points="651,640.4453,661,644.4453,651,648.4453,655,644.4453" style="stroke:#181818;stroke-width:1.0;"/><line style="stroke:#181818;stroke-width:1.0;" x1="466" x2="657" y1="644.4453" y2="644.4453"/><text fill="#000000" font-family="sans-serif" font-size="13" font-weight="bold" lengthAdjust="spacing" textLength="14" x="473" y="639.5889">12</text><text fill="#000000" font-family="sans-serif" font-size="13" lengthAdjust="spacing" textLength="78" x="491" y="639.5889">find by status</text><polygon fill="#181818" points="477,670.7969,467,674.7969,477,678.7969,473,674.7969" style="stroke:#181818;stroke-width:1.0;"/><line style="stroke:#181818;stroke-width:1.0;stroke-dasharray:2.0,2.0;" x1="471" x2="667" y1="674.7969" y2="674.7969"/><text fill="#000000" font-family="sans-serif" font-size="13" font-weight="bold" lengthAdjust="spacing" textLength="14" x="483" y="669.9404">13</text><text fill="#000000" font-family="sans-serif" font-size="13" lengthAdjust="spacing" textLength="4" x="501" y="669.9404">&#160;</text><path d="M3,689.7969 L64,689.7969 L64,698.1484 L54,708.1484 L3,708.1484 L3,689.7969 " fill="#EEEEEE" style="stroke:#000000;stroke-width:1.5;"/><rect fill="none" height="141.0781" style="stroke:#000000;stroke-width:1.5;" width="518" x="3" y="689.7969"/><text fill="#000000" font-family="sans-serif" font-size="13" font-weight="bold" lengthAdjust="spacing" textLength="16" x="18" y="704.292">alt</text><text fill="#000000" font-family="sans-serif" font-size="11" font-weight="bold" lengthAdjust="spacing" textLength="90" x="79" y="703.2158">[user not found]</text><polygon fill="#181818" points="11,726.5,1,730.5,11,734.5,7,730.5" style="stroke:#181818;stroke-width:1.0;"/><line style="stroke:#181818;stroke-width:1.0;stroke-dasharray:2.0,2.0;" x1="5" x2="455" y1="730.5" y2="730.5"/><text fill="#000000" font-family="sans-serif" font-size="13" font-weight="bold" lengthAdjust="spacing" textLength="14" x="17" y="725.6436">14</text><text fill="#000000" font-family="sans-serif" font-size="13" lengthAdjust="spacing" textLength="163" x="35" y="725.6436">Response status code - 404</text><line style="stroke:#000000;stroke-width:1.0;stroke-dasharray:2.0,2.0;" x1="3" x2="521" y1="739.5" y2="739.5"/><text fill="#000000" font-family="sans-serif" font-size="11" font-weight="bold" lengthAdjust="spacing" textLength="122" x="8" y="750.9189">[database unavailable]</text><polygon fill="#181818" points="11,772.6875,1,776.6875,11,780.6875,7,776.6875" style="stroke:#181818;stroke-width:1.0;"/><line style="stroke:#181818;stroke-width:1.0;stroke-dasharray:2.0,2.0;" x1="5" x2="455" y1="776.6875" y2="776.6875"/><text fill="#000000" font-family="sans-serif" font-size="13" font-weight="bold" lengthAdjust="spacing" textLength="14" x="17" y="771.8311">15</text><text fill="#000000" font-family="sans-serif" font-size="13" lengthAdjust="spacing" textLength="163" x="35" y="771.8311">Response status code - 503</text><line style="stroke:#000000;stroke-width:1.0;stroke-dasharray:2.0,2.0;" x1="3" x2="521" y1="785.6875" y2="785.6875"/><text fill="#000000" font-family="sans-serif" font-size="11" font-weight="bold" lengthAdjust="spacing" textLength="69" x="8" y="797.1064">[user found]</text><polygon fill="#181818" points="11,818.875,1,822.875,11,826.875,7,822.875" style="stroke:#181818;stroke-width:1.0;"/><line style="stroke:#181818;stroke-width:1.0;stroke-dasharray:2.0,2.0;" x1="5" x2="455" y1="822.875" y2="822.875"/><text fill="#000000" font-family="sans-serif" font-size="13" font-weight="bold" lengthAdjust="spacing" textLength="14" x="17" y="818.0186">16</text><text fill="#000000" font-family="sans-serif" font-size="13" lengthAdjust="spacing" textLength="163" x="35" y="818.0186">Response status code - 200</text><polygon fill="#181818" points="651,856.2266,661,860.2266,651,864.2266,655,860.2266" style="stroke:#181818;stroke-width:1.0;"/><line style="stroke:#181818;stroke-width:1.0;" x1="466" x2="657" y1="860.2266" y2="860.2266"/><text fill="#000000" font-family="sans-serif" font-size="13" font-weight="bold" lengthAdjust="spacing" textLength="14" x="473" y="855.3701">17</text><text fill="#000000" font-family="sans-serif" font-size="13" lengthAdjust="spacing" textLength="160" x="491" y="855.3701">find by operation type name</text><polygon fill="#181818" points="477,886.5781,467,890.5781,477,894.5781,473,890.5781" style="stroke:#181818;stroke-width:1.0;"/><line style="stroke:#181818;stroke-width:1.0;stroke-dasharray:2.0,2.0;" x1="471" x2="667" y1="890.5781" y2="890.5781"/><text fill="#000000" font-family="sans-serif" font-size="13" font-weight="bold" lengthAdjust="spacing" textLength="14" x="483" y="885.7217">18</text><text fill="#000000" font-family="sans-serif" font-size="13" lengthAdjust="spacing" textLength="4" x="501" y="885.7217">&#160;</text><path d="M3,905.5781 L64,905.5781 L64,913.9297 L54,923.9297 L3,923.9297 L3,905.5781 " fill="#EEEEEE" style="stroke:#000000;stroke-width:1.5;"/><rect fill="none" height="141.0781" style="stroke:#000000;stroke-width:1.5;" width="518" x="3" y="905.5781"/><text fill="#000000" font-family="sans-serif" font-size="13" font-weight="bold" lengthAdjust="spacing" textLength="16" x="18" y="920.0732">alt</text><text fill="#000000" font-family="sans-serif" font-size="11" font-weight="bold" lengthAdjust="spacing" textLength="90" x="79" y="918.9971">[user not found]</text><polygon fill="#181818" points="11,942.2813,1,946.2813,11,950.2813,7,946.2813" style="stroke:#181818;stroke-width:1.0;"/><line style="stroke:#181818;stroke-width:1.0;stroke-dasharray:2.0,2.0;" x1="5" x2="455" y1="946.2813" y2="946.2813"/><text fill="#000000" font-family="sans-serif" font-size="13" font-weight="bold" lengthAdjust="spacing" textLength="14" x="17" y="941.4248">19</text><text fill="#000000" font-family="sans-serif" font-size="13" lengthAdjust="spacing" textLength="163" x="35" y="941.4248">Response status code - 404</text><line style="stroke:#000000;stroke-width:1.0;stroke-dasharray:2.0,2.0;" x1="3" x2="521" y1="955.2813" y2="955.2813"/><text fill="#000000" font-family="sans-serif" font-size="11" font-weight="bold" lengthAdjust="spacing" textLength="122" x="8" y="966.7002">[database unavailable]</text><polygon fill="#181818" points="11,988.4688,1,992.4688,11,996.4688,7,992.4688" style="stroke:#181818;stroke-width:1.0;"/><line style="stroke:#181818;stroke-width:1.0;stroke-dasharray:2.0,2.0;" x1="5" x2="455" y1="992.4688" y2="992.4688"/><text fill="#000000" font-family="sans-serif" font-size="13" font-weight="bold" lengthAdjust="spacing" textLength="14" x="17" y="987.6123">20</text><text fill="#000000" font-family="sans-serif" font-size="13" lengthAdjust="spacing" textLength="163" x="35" y="987.6123">Response status code - 503</text><line style="stroke:#000000;stroke-width:1.0;stroke-dasharray:2.0,2.0;" x1="3" x2="521" y1="1001.4688" y2="1001.4688"/><text fill="#000000" font-family="sans-serif" font-size="11" font-weight="bold" lengthAdjust="spacing" textLength="69" x="8" y="1012.8877">[user found]</text><polygon fill="#181818" points="11,1034.6563,1,1038.6563,11,1042.6563,7,1038.6563" style="stroke:#181818;stroke-width:1.0;"/><line style="stroke:#181818;stroke-width:1.0;stroke-dasharray:2.0,2.0;" x1="5" x2="455" y1="1038.6563" y2="1038.6563"/><text fill="#000000" font-family="sans-serif" font-size="13" font-weight="bold" lengthAdjust="spacing" textLength="14" x="17" y="1033.7998">21</text><text fill="#000000" font-family="sans-serif" font-size="13" lengthAdjust="spacing" textLength="163" x="35" y="1033.7998">Response status code - 200</text><polygon fill="#181818" points="651,1072.0078,661,1076.0078,651,1080.0078,655,1076.0078" style="stroke:#181818;stroke-width:1.0;"/><line style="stroke:#181818;stroke-width:1.0;" x1="466" x2="657" y1="1076.0078" y2="1076.0078"/><text fill="#000000" font-family="sans-serif" font-size="13" font-weight="bold" lengthAdjust="spacing" textLength="14" x="473" y="1071.1514">22</text><text fill="#000000" font-family="sans-serif" font-size="13" lengthAdjust="spacing" textLength="39" x="491" y="1071.1514">update</text><polygon fill="#181818" points="477,1102.3594,467,1106.3594,477,1110.3594,473,1106.3594" style="stroke:#181818;stroke-width:1.0;"/><line style="stroke:#181818;stroke-width:1.0;stroke-dasharray:2.0,2.0;" x1="471" x2="667" y1="1106.3594" y2="1106.3594"/><text fill="#000000" font-family="sans-serif" font-size="13" font-weight="bold" lengthAdjust="spacing" textLength="14" x="483" y="1101.5029">23</text><text fill="#000000" font-family="sans-serif" font-size="13" lengthAdjust="spacing" textLength="4" x="501" y="1101.5029">&#160;</text><polygon fill="#181818" points="11,1132.7109,1,1136.7109,11,1140.7109,7,1136.7109" style="stroke:#181818;stroke-width:1.0;"/><line style="stroke:#181818;stroke-width:1.0;stroke-dasharray:2.0,2.0;" x1="5" x2="460" y1="1136.7109" y2="1136.7109"/><text fill="#000000" font-family="sans-serif" font-size="13" font-weight="bold" lengthAdjust="spacing" textLength="14" x="17" y="1131.8545">24</text><text fill="#000000" font-family="sans-serif" font-size="13" lengthAdjust="spacing" textLength="163" x="35" y="1131.8545">Response status code - 200</text><path d="M3,1151.7109 L64,1151.7109 L64,1160.0625 L54,1170.0625 L3,1170.0625 L3,1151.7109 " fill="#EEEEEE" style="stroke:#000000;stroke-width:1.5;"/><rect fill="none" height="94.8906" style="stroke:#000000;stroke-width:1.5;" width="518" x="3" y="1151.7109"/><text fill="#000000" font-family="sans-serif" font-size="13" font-weight="bold" lengthAdjust="spacing" textLength="16" x="18" y="1166.2061">alt</text><text fill="#000000" font-family="sans-serif" font-size="11" font-weight="bold" lengthAdjust="spacing" textLength="122" x="79" y="1165.1299">[database unavailable]</text><polygon fill="#181818" points="11,1188.4141,1,1192.4141,11,1196.4141,7,1192.4141" style="stroke:#181818;stroke-width:1.0;"/><line style="stroke:#181818;stroke-width:1.0;stroke-dasharray:2.0,2.0;" x1="5" x2="460" y1="1192.4141" y2="1192.4141"/><text fill="#000000" font-family="sans-serif" font-size="13" font-weight="bold" lengthAdjust="spacing" textLength="14" x="17" y="1187.5576">25</text><text fill="#000000" font-family="sans-serif" font-size="13" lengthAdjust="spacing" textLength="163" x="35" y="1187.5576">Response status code - 503</text><line style="stroke:#000000;stroke-width:1.0;stroke-dasharray:2.0,2.0;" x1="3" x2="521" y1="1201.4141" y2="1201.4141"/><text fill="#000000" font-family="sans-serif" font-size="11" font-weight="bold" lengthAdjust="spacing" textLength="90" x="8" y="1212.833">[database error]</text><polygon fill="#181818" points="11,1234.6016,1,1238.6016,11,1242.6016,7,1238.6016" style="stroke:#181818;stroke-width:1.0;"/><line style="stroke:#181818;stroke-width:1.0;stroke-dasharray:2.0,2.0;" x1="5" x2="460" y1="1238.6016" y2="1238.6016"/><text fill="#000000" font-family="sans-serif" font-size="13" font-weight="bold" lengthAdjust="spacing" textLength="14" x="17" y="1233.7451">26</text><text fill="#000000" font-family="sans-serif" font-size="13" lengthAdjust="spacing" textLength="163" x="35" y="1233.7451">Response status code - 500</text><line style="stroke:#000000;stroke-width:1.0;stroke-dasharray:2.0,2.0;" x1="3" x2="724" y1="1254.6016" y2="1254.6016"/><text fill="#000000" font-family="sans-serif" font-size="11" font-weight="bold" lengthAdjust="spacing" textLength="117" x="8" y="1266.0205">[user not authorized]</text><polygon fill="#181818" points="11,1287.7891,1,1291.7891,11,1295.7891,7,1291.7891" style="stroke:#181818;stroke-width:1.0;"/><line style="stroke:#181818;stroke-width:1.0;stroke-dasharray:2.0,2.0;" x1="5" x2="460" y1="1291.7891" y2="1291.7891"/><text fill="#000000" font-family="sans-serif" font-size="13" font-weight="bold" lengthAdjust="spacing" textLength="14" x="17" y="1286.9326">27</text><text fill="#000000" font-family="sans-serif" font-size="13" lengthAdjust="spacing" textLength="163" x="35" y="1286.9326">Response status code - 401</text><!--SRC=[vPHDJiCm48NtFiMe-wW1ogQgkeWIiGC9oW6coHIi9hQnnvL2nTsPf6qei20Io-v6zlly_CO_6DcQsAp9gx3Lng771XoMMtoX9svh0aybAyMQfNvs5JB1WoEFhAs1HtgB56HUGDQbTcWO9fdmIM6g2M20h835ehIDiuOCBvTAbi0r1e99BbKcLQ_BinywbImxU0vtnGhioVBeEDrlObtVOqCVqxtpsdhDhPI1aMEGOW1MhQDUfnJM336G1upyAiGxLJ9OijvrgR92AV4JrpoRmqQR2jOjT3PWX3zJvfbIijsat-1SgOg-JGqsnZ9iR3JYiaYIJYiD2n9GmXys2gMj21AOfJEbg9RneJlHu0vrZUkQ_iHlqviZtlkEyxnEKu4wuU_KfuvULEY3yg8Y3wy4M9x9vTpps7zauwEEiJX3kg-awyu_GmuuUM_z2F0KzAj5tT6S_tP_di_LOObF]--></g></svg>