<?xml version="1.0" encoding="us-ascii" standalone="no"?><svg xmlns="http://www.w3.org/2000/svg" xmlns:xlink="http://www.w3.org/1999/xlink" contentStyleType="text/css" height="1414px" preserveAspectRatio="none" style="width:570px;height:1414px;background:#FFFFFF;" version="1.1" viewBox="0 0 570 1414" width="570px" zoomAndPan="magnify"><defs/><g><text fill="#000000" font-family="sans-serif" font-size="14" font-weight="bold" lengthAdjust="spacing" textLength="103" x="234.5" y="29.5332">Update Patient</text><rect fill="#FFFFFF" height="979.5313" style="stroke:#181818;stroke-width:1.0;" width="10" x="356" y="157.1797"/><rect fill="#FFFFFF" height="30.3516" style="stroke:#181818;stroke-width:1.0;" width="10" x="502" y="212.8828"/><rect fill="#FFFFFF" height="30.3516" style="stroke:#181818;stroke-width:1.0;" width="10" x="502" y="428.6641"/><rect fill="#FFFFFF" height="30.3516" style="stroke:#181818;stroke-width:1.0;" width="10" x="502" y="644.4453"/><rect fill="#FFFFFF" height="30.3516" style="stroke:#181818;stroke-width:1.0;" width="10" x="502" y="860.2266"/><rect fill="#FFFFFF" height="30.3516" style="stroke:#181818;stroke-width:1.0;" width="10" x="502" y="1076.0078"/><rect fill="none" height="1127.6094" style="stroke:#000000;stroke-width:1.5;" width="560" x="3" y="172.1797"/><rect fill="none" height="141.0781" style="stroke:#000000;stroke-width:1.5;" width="418" x="3" y="258.2344"/><rect fill="none" height="141.0781" style="stroke:#000000;stroke-width:1.5;" width="418" x="3" y="474.0156"/><rect fill="none" height="141.0781" style="stroke:#000000;stroke-width:1.5;" width="418" x="3" y="689.7969"/><rect fill="none" height="141.0781" style="stroke:#000000;stroke-width:1.5;" width="418" x="3" y="905.5781"/><rect fill="none" height="94.8906" style="stroke:#000000;stroke-width:1.5;" width="418" x="3" y="1151.7109"/><line style="stroke:#181818;stroke-width:0.5;stroke-dasharray:5.0,5.0;" x1="361" x2="361" y1="124.8281" y2="1316.7891"/><line style="stroke:#181818;stroke-width:0.5;stroke-dasharray:5.0,5.0;" x1="507" x2="507" y1="124.8281" y2="1316.7891"/><rect fill="#E2E2F0" height="49.2188" rx="2.5" ry="2.5" style="stroke:#181818;stroke-width:0.5;" width="100" x="311" y="74.6094"/><text fill="#000000" font-family="sans-serif" font-size="14" font-style="italic" lengthAdjust="spacing" textLength="86" x="318" y="96.1426">&#171;component&#187;</text><text fill="#000000" font-family="sans-serif" font-size="14" lengthAdjust="spacing" textLength="61" x="330.5" y="113.752">Back-End</text><rect fill="#E2E2F0" height="49.2188" rx="2.5" ry="2.5" style="stroke:#181818;stroke-width:0.5;" width="100" x="311" y="1315.7891"/><text fill="#000000" font-family="sans-serif" font-size="14" font-style="italic" lengthAdjust="spacing" textLength="86" x="318" y="1337.3223">&#171;component&#187;</text><text fill="#000000" font-family="sans-serif" font-size="14" lengthAdjust="spacing" textLength="61" x="330.5" y="1354.9316">Back-End</text><text fill="#000000" font-family="sans-serif" font-size="14" font-style="italic" lengthAdjust="spacing" textLength="86" x="461" y="104.1426">&#171;component&#187;</text><text fill="#000000" font-family="sans-serif" font-size="14" lengthAdjust="spacing" textLength="62" x="473" y="121.752">DataBase</text><path d="M489,53.6094 C489,43.6094 507,43.6094 507,43.6094 C507,43.6094 525,43.6094 525,53.6094 L525,79.6094 C525,89.6094 507,89.6094 507,89.6094 C507,89.6094 489,89.6094 489,79.6094 L489,53.6094 " fill="#E2E2F0" style="stroke:#181818;stroke-width:1.5;"/><path d="M489,53.6094 C489,63.6094 507,63.6094 507,63.6094 C507,63.6094 525,63.6094 525,53.6094 " fill="none" style="stroke:#181818;stroke-width:1.5;"/><text fill="#000000" font-family="sans-serif" font-size="14" font-style="italic" lengthAdjust="spacing" textLength="86" x="461" y="1330.3223">&#171;component&#187;</text><text fill="#000000" font-family="sans-serif" font-size="14" lengthAdjust="spacing" textLength="62" x="473" y="1347.9316">DataBase</text><path d="M489,1361.0078 C489,1351.0078 507,1351.0078 507,1351.0078 C507,1351.0078 525,1351.0078 525,1361.0078 L525,1387.0078 C525,1397.0078 507,1397.0078 507,1397.0078 C507,1397.0078 489,1397.0078 489,1387.0078 L489,1361.0078 " fill="#E2E2F0" style="stroke:#181818;stroke-width:1.5;"/><path d="M489,1361.0078 C489,1371.0078 507,1371.0078 507,1371.0078 C507,1371.0078 525,1371.0078 525,1361.0078 " fill="none" style="stroke:#181818;stroke-width:1.5;"/><rect fill="#FFFFFF" height="979.5313" style="stroke:#181818;stroke-width:1.0;" width="10" x="356" y="157.1797"/><rect fill="#FFFFFF" height="30.3516" style="stroke:#181818;stroke-width:1.0;" width="10" x="502" y="212.8828"/><rect fill="#FFFFFF" height="30.3516" style="stroke:#181818;stroke-width:1.0;" width="10" x="502" y="428.6641"/><rect fill="#FFFFFF" height="30.3516" style="stroke:#181818;stroke-width:1.0;" width="10" x="502" y="644.4453"/><rect fill="#FFFFFF" height="30.3516" style="stroke:#181818;stroke-width:1.0;" width="10" x="502" y="860.2266"/><rect fill="#FFFFFF" height="30.3516" style="stroke:#181818;stroke-width:1.0;" width="10" x="502" y="1076.0078"/><polygon fill="#181818" points="344,153.1797,354,157.1797,344,161.1797,348,157.1797" style="stroke:#181818;stroke-width:1.0;"/><line style="stroke:#181818;stroke-width:1.0;" x1="0" x2="350" y1="157.1797" y2="157.1797"/><text fill="#000000" font-family="sans-serif" font-size="13" font-weight="bold" lengthAdjust="spacing" textLength="7" x="7" y="152.3232">1</text><text fill="#000000" font-family="sans-serif" font-size="13" lengthAdjust="spacing" textLength="319" x="18" y="152.3232">GET patients/{userId}/{firstName}/{lastName}/{fullName}</text><path d="M3,172.1797 L64,172.1797 L64,180.5313 L54,190.5313 L3,190.5313 L3,172.1797 " fill="#EEEEEE" style="stroke:#000000;stroke-width:1.5;"/><rect fill="none" height="1127.6094" style="stroke:#000000;stroke-width:1.5;" width="560" x="3" y="172.1797"/><text fill="#000000" font-family="sans-serif" font-size="13" font-weight="bold" lengthAdjust="spacing" textLength="16" x="18" y="186.6748">alt</text><text fill="#000000" font-family="sans-serif" font-size="11" font-weight="bold" lengthAdjust="spacing" textLength="96" x="79" y="185.5986">[user authorized]</text><polygon fill="#181818" points="490,208.8828,500,212.8828,490,216.8828,494,212.8828" style="stroke:#181818;stroke-width:1.0;"/><line style="stroke:#181818;stroke-width:1.0;" x1="366" x2="496" y1="212.8828" y2="212.8828"/><text fill="#000000" font-family="sans-serif" font-size="13" font-weight="bold" lengthAdjust="spacing" textLength="7" x="373" y="208.0264">2</text><text fill="#000000" font-family="sans-serif" font-size="13" lengthAdjust="spacing" textLength="81" x="384" y="208.0264">find by user id</text><polygon fill="#181818" points="377,239.2344,367,243.2344,377,247.2344,373,243.2344" style="stroke:#181818;stroke-width:1.0;"/><line style="stroke:#181818;stroke-width:1.0;stroke-dasharray:2.0,2.0;" x1="371" x2="506" y1="243.2344" y2="243.2344"/><text fill="#000000" font-family="sans-serif" font-size="13" font-weight="bold" lengthAdjust="spacing" textLength="7" x="383" y="238.3779">3</text><text fill="#000000" font-family="sans-serif" font-size="13" lengthAdjust="spacing" textLength="4" x="394" y="238.3779">&#160;</text><path d="M3,258.2344 L64,258.2344 L64,266.5859 L54,276.5859 L3,276.5859 L3,258.2344 " fill="#EEEEEE" style="stroke:#000000;stroke-width:1.5;"/><rect fill="none" height="141.0781" style="stroke:#000000;stroke-width:1.5;" width="418" x="3" y="258.2344"/><text fill="#000000" font-family="sans-serif" font-size="13" font-weight="bold" lengthAdjust="spacing" textLength="16" x="18" y="272.7295">alt</text><text fill="#000000" font-family="sans-serif" font-size="11" font-weight="bold" lengthAdjust="spacing" textLength="90" x="79" y="271.6533">[user not found]</text><polygon fill="#181818" points="11,294.9375,1,298.9375,11,302.9375,7,298.9375" style="stroke:#181818;stroke-width:1.0;"/><line style="stroke:#181818;stroke-width:1.0;stroke-dasharray:2.0,2.0;" x1="5" x2="355" y1="298.9375" y2="298.9375"/><text fill="#000000" font-family="sans-serif" font-size="13" font-weight="bold" lengthAdjust="spacing" textLength="7" x="17" y="294.0811">4</text><text fill="#000000" font-family="sans-serif" font-size="13" lengthAdjust="spacing" textLength="163" x="28" y="294.0811">Response status code - 404</text><line style="stroke:#000000;stroke-width:1.0;stroke-dasharray:2.0,2.0;" x1="3" x2="421" y1="307.9375" y2="307.9375"/><text fill="#000000" font-family="sans-serif" font-size="11" font-weight="bold" lengthAdjust="spacing" textLength="122" x="8" y="319.3564">[database unavailable]</text><polygon fill="#181818" points="11,341.125,1,345.125,11,349.125,7,345.125" style="stroke:#181818;stroke-width:1.0;"/><line style="stroke:#181818;stroke-width:1.0;stroke-dasharray:2.0,2.0;" x1="5" x2="355" y1="345.125" y2="345.125"/><text fill="#000000" font-family="sans-serif" font-size="13" font-weight="bold" lengthAdjust="spacing" textLength="7" x="17" y="340.2686">5</text><text fill="#000000" font-family="sans-serif" font-size="13" lengthAdjust="spacing" textLength="163" x="28" y="340.2686">Response status code - 503</text><line style="stroke:#000000;stroke-width:1.0;stroke-dasharray:2.0,2.0;" x1="3" x2="421" y1="354.125" y2="354.125"/><text fill="#000000" font-family="sans-serif" font-size="11" font-weight="bold" lengthAdjust="spacing" textLength="69" x="8" y="365.5439">[user found]</text><polygon fill="#181818" points="11,387.3125,1,391.3125,11,395.3125,7,391.3125" style="stroke:#181818;stroke-width:1.0;"/><line style="stroke:#181818;stroke-width:1.0;stroke-dasharray:2.0,2.0;" x1="5" x2="355" y1="391.3125" y2="391.3125"/><text fill="#000000" font-family="sans-serif" font-size="13" font-weight="bold" lengthAdjust="spacing" textLength="7" x="17" y="386.4561">6</text><text fill="#000000" font-family="sans-serif" font-size="13" lengthAdjust="spacing" textLength="163" x="28" y="386.4561">Response status code - 200</text><polygon fill="#181818" points="490,424.6641,500,428.6641,490,432.6641,494,428.6641" style="stroke:#181818;stroke-width:1.0;"/><line style="stroke:#181818;stroke-width:1.0;" x1="366" x2="496" y1="428.6641" y2="428.6641"/><text fill="#000000" font-family="sans-serif" font-size="13" font-weight="bold" lengthAdjust="spacing" textLength="7" x="373" y="423.8076">7</text><text fill="#000000" font-family="sans-serif" font-size="13" lengthAdjust="spacing" textLength="99" x="384" y="423.8076">find by first name</text><polygon fill="#181818" points="377,455.0156,367,459.0156,377,463.0156,373,459.0156" style="stroke:#181818;stroke-width:1.0;"/><line style="stroke:#181818;stroke-width:1.0;stroke-dasharray:2.0,2.0;" x1="371" x2="506" y1="459.0156" y2="459.0156"/><text fill="#000000" font-family="sans-serif" font-size="13" font-weight="bold" lengthAdjust="spacing" textLength="7" x="383" y="454.1592">8</text><text fill="#000000" font-family="sans-serif" font-size="13" lengthAdjust="spacing" textLength="4" x="394" y="454.1592">&#160;</text><path d="M3,474.0156 L64,474.0156 L64,482.3672 L54,492.3672 L3,492.3672 L3,474.0156 " fill="#EEEEEE" style="stroke:#000000;stroke-width:1.5;"/><rect fill="none" height="141.0781" style="stroke:#000000;stroke-width:1.5;" width="418" x="3" y="474.0156"/><text fill="#000000" font-family="sans-serif" font-size="13" font-weight="bold" lengthAdjust="spacing" textLength="16" x="18" y="488.5107">alt</text><text fill="#000000" font-family="sans-serif" font-size="11" font-weight="bold" lengthAdjust="spacing" textLength="90" x="79" y="487.4346">[user not found]</text><polygon fill="#181818" points="11,510.7188,1,514.7188,11,518.7188,7,514.7188" style="stroke:#181818;stroke-width:1.0;"/><line style="stroke:#181818;stroke-width:1.0;stroke-dasharray:2.0,2.0;" x1="5" x2="355" y1="514.7188" y2="514.7188"/><text fill="#000000" font-family="sans-serif" font-size="13" font-weight="bold" lengthAdjust="spacing" textLength="7" x="17" y="509.8623">9</text><text fill="#000000" font-family="sans-serif" font-size="13" lengthAdjust="spacing" textLength="163" x="28" y="509.8623">Response status code - 404</text><line style="stroke:#000000;stroke-width:1.0;stroke-dasharray:2.0,2.0;" x1="3" x2="421" y1="523.7188" y2="523.7188"/><text fill="#000000" font-family="sans-serif" font-size="11" font-weight="bold" lengthAdjust="spacing" textLength="122" x="8" y="535.1377">[database unavailable]</text><polygon fill="#181818" points="11,556.9063,1,560.9063,11,564.9063,7,560.9063" style="stroke:#181818;stroke-width:1.0;"/><line style="stroke:#181818;stroke-width:1.0;stroke-dasharray:2.0,2.0;" x1="5" x2="355" y1="560.9063" y2="560.9063"/><text fill="#000000" font-family="sans-serif" font-size="13" font-weight="bold" lengthAdjust="spacing" textLength="14" x="17" y="556.0498">10</text><text fill="#000000" font-family="sans-serif" font-size="13" lengthAdjust="spacing" textLength="163" x="35" y="556.0498">Response status code - 503</text><line style="stroke:#000000;stroke-width:1.0;stroke-dasharray:2.0,2.0;" x1="3" x2="421" y1="569.9063" y2="569.9063"/><text fill="#000000" font-family="sans-serif" font-size="11" font-weight="bold" lengthAdjust="spacing" textLength="69" x="8" y="581.3252">[user found]</text><polygon fill="#181818" points="11,603.0938,1,607.0938,11,611.0938,7,607.0938" style="stroke:#181818;stroke-width:1.0;"/><line style="stroke:#181818;stroke-width:1.0;stroke-dasharray:2.0,2.0;" x1="5" x2="355" y1="607.0938" y2="607.0938"/><text fill="#000000" font-family="sans-serif" font-size="13" font-weight="bold" lengthAdjust="spacing" textLength="14" x="17" y="602.2373">11</text><text fill="#000000" font-family="sans-serif" font-size="13" lengthAdjust="spacing" textLength="163" x="35" y="602.2373">Response status code - 200</text><polygon fill="#181818" points="490,640.4453,500,644.4453,490,648.4453,494,644.4453" style="stroke:#181818;stroke-width:1.0;"/><line style="stroke:#181818;stroke-width:1.0;" x1="366" x2="496" y1="644.4453" y2="644.4453"/><text fill="#000000" font-family="sans-serif" font-size="13" font-weight="bold" lengthAdjust="spacing" textLength="14" x="373" y="639.5889">12</text><text fill="#000000" font-family="sans-serif" font-size="13" lengthAdjust="spacing" textLength="99" x="391" y="639.5889">find by last name</text><polygon fill="#181818" points="377,670.7969,367,674.7969,377,678.7969,373,674.7969" style="stroke:#181818;stroke-width:1.0;"/><line style="stroke:#181818;stroke-width:1.0;stroke-dasharray:2.0,2.0;" x1="371" x2="506" y1="674.7969" y2="674.7969"/><text fill="#000000" font-family="sans-serif" font-size="13" font-weight="bold" lengthAdjust="spacing" textLength="14" x="383" y="669.9404">13</text><text fill="#000000" font-family="sans-serif" font-size="13" lengthAdjust="spacing" textLength="4" x="401" y="669.9404">&#160;</text><path d="M3,689.7969 L64,689.7969 L64,698.1484 L54,708.1484 L3,708.1484 L3,689.7969 " fill="#EEEEEE" style="stroke:#000000;stroke-width:1.5;"/><rect fill="none" height="141.0781" style="stroke:#000000;stroke-width:1.5;" width="418" x="3" y="689.7969"/><text fill="#000000" font-family="sans-serif" font-size="13" font-weight="bold" lengthAdjust="spacing" textLength="16" x="18" y="704.292">alt</text><text fill="#000000" font-family="sans-serif" font-size="11" font-weight="bold" lengthAdjust="spacing" textLength="90" x="79" y="703.2158">[user not found]</text><polygon fill="#181818" points="11,726.5,1,730.5,11,734.5,7,730.5" style="stroke:#181818;stroke-width:1.0;"/><line style="stroke:#181818;stroke-width:1.0;stroke-dasharray:2.0,2.0;" x1="5" x2="355" y1="730.5" y2="730.5"/><text fill="#000000" font-family="sans-serif" font-size="13" font-weight="bold" lengthAdjust="spacing" textLength="14" x="17" y="725.6436">14</text><text fill="#000000" font-family="sans-serif" font-size="13" lengthAdjust="spacing" textLength="163" x="35" y="725.6436">Response status code - 404</text><line style="stroke:#000000;stroke-width:1.0;stroke-dasharray:2.0,2.0;" x1="3" x2="421" y1="739.5" y2="739.5"/><text fill="#000000" font-family="sans-serif" font-size="11" font-weight="bold" lengthAdjust="spacing" textLength="122" x="8" y="750.9189">[database unavailable]</text><polygon fill="#181818" points="11,772.6875,1,776.6875,11,780.6875,7,776.6875" style="stroke:#181818;stroke-width:1.0;"/><line style="stroke:#181818;stroke-width:1.0;stroke-dasharray:2.0,2.0;" x1="5" x2="355" y1="776.6875" y2="776.6875"/><text fill="#000000" font-family="sans-serif" font-size="13" font-weight="bold" lengthAdjust="spacing" textLength="14" x="17" y="771.8311">15</text><text fill="#000000" font-family="sans-serif" font-size="13" lengthAdjust="spacing" textLength="163" x="35" y="771.8311">Response status code - 503</text><line style="stroke:#000000;stroke-width:1.0;stroke-dasharray:2.0,2.0;" x1="3" x2="421" y1="785.6875" y2="785.6875"/><text fill="#000000" font-family="sans-serif" font-size="11" font-weight="bold" lengthAdjust="spacing" textLength="69" x="8" y="797.1064">[user found]</text><polygon fill="#181818" points="11,818.875,1,822.875,11,826.875,7,822.875" style="stroke:#181818;stroke-width:1.0;"/><line style="stroke:#181818;stroke-width:1.0;stroke-dasharray:2.0,2.0;" x1="5" x2="355" y1="822.875" y2="822.875"/><text fill="#000000" font-family="sans-serif" font-size="13" font-weight="bold" lengthAdjust="spacing" textLength="14" x="17" y="818.0186">16</text><text fill="#000000" font-family="sans-serif" font-size="13" lengthAdjust="spacing" textLength="163" x="35" y="818.0186">Response status code - 200</text><polygon fill="#181818" points="490,856.2266,500,860.2266,490,864.2266,494,860.2266" style="stroke:#181818;stroke-width:1.0;"/><line style="stroke:#181818;stroke-width:1.0;" x1="366" x2="496" y1="860.2266" y2="860.2266"/><text fill="#000000" font-family="sans-serif" font-size="13" font-weight="bold" lengthAdjust="spacing" textLength="14" x="373" y="855.3701">17</text><text fill="#000000" font-family="sans-serif" font-size="13" lengthAdjust="spacing" textLength="94" x="391" y="855.3701">find by full name</text><polygon fill="#181818" points="377,886.5781,367,890.5781,377,894.5781,373,890.5781" style="stroke:#181818;stroke-width:1.0;"/><line style="stroke:#181818;stroke-width:1.0;stroke-dasharray:2.0,2.0;" x1="371" x2="506" y1="890.5781" y2="890.5781"/><text fill="#000000" font-family="sans-serif" font-size="13" font-weight="bold" lengthAdjust="spacing" textLength="14" x="383" y="885.7217">18</text><text fill="#000000" font-family="sans-serif" font-size="13" lengthAdjust="spacing" textLength="4" x="401" y="885.7217">&#160;</text><path d="M3,905.5781 L64,905.5781 L64,913.9297 L54,923.9297 L3,923.9297 L3,905.5781 " fill="#EEEEEE" style="stroke:#000000;stroke-width:1.5;"/><rect fill="none" height="141.0781" style="stroke:#000000;stroke-width:1.5;" width="418" x="3" y="905.5781"/><text fill="#000000" font-family="sans-serif" font-size="13" font-weight="bold" lengthAdjust="spacing" textLength="16" x="18" y="920.0732">alt</text><text fill="#000000" font-family="sans-serif" font-size="11" font-weight="bold" lengthAdjust="spacing" textLength="90" x="79" y="918.9971">[user not found]</text><polygon fill="#181818" points="11,942.2813,1,946.2813,11,950.2813,7,946.2813" style="stroke:#181818;stroke-width:1.0;"/><line style="stroke:#181818;stroke-width:1.0;stroke-dasharray:2.0,2.0;" x1="5" x2="355" y1="946.2813" y2="946.2813"/><text fill="#000000" font-family="sans-serif" font-size="13" font-weight="bold" lengthAdjust="spacing" textLength="14" x="17" y="941.4248">19</text><text fill="#000000" font-family="sans-serif" font-size="13" lengthAdjust="spacing" textLength="163" x="35" y="941.4248">Response status code - 404</text><line style="stroke:#000000;stroke-width:1.0;stroke-dasharray:2.0,2.0;" x1="3" x2="421" y1="955.2813" y2="955.2813"/><text fill="#000000" font-family="sans-serif" font-size="11" font-weight="bold" lengthAdjust="spacing" textLength="122" x="8" y="966.7002">[database unavailable]</text><polygon fill="#181818" points="11,988.4688,1,992.4688,11,996.4688,7,992.4688" style="stroke:#181818;stroke-width:1.0;"/><line style="stroke:#181818;stroke-width:1.0;stroke-dasharray:2.0,2.0;" x1="5" x2="355" y1="992.4688" y2="992.4688"/><text fill="#000000" font-family="sans-serif" font-size="13" font-weight="bold" lengthAdjust="spacing" textLength="14" x="17" y="987.6123">20</text><text fill="#000000" font-family="sans-serif" font-size="13" lengthAdjust="spacing" textLength="163" x="35" y="987.6123">Response status code - 503</text><line style="stroke:#000000;stroke-width:1.0;stroke-dasharray:2.0,2.0;" x1="3" x2="421" y1="1001.4688" y2="1001.4688"/><text fill="#000000" font-family="sans-serif" font-size="11" font-weight="bold" lengthAdjust="spacing" textLength="69" x="8" y="1012.8877">[user found]</text><polygon fill="#181818" points="11,1034.6563,1,1038.6563,11,1042.6563,7,1038.6563" style="stroke:#181818;stroke-width:1.0;"/><line style="stroke:#181818;stroke-width:1.0;stroke-dasharray:2.0,2.0;" x1="5" x2="355" y1="1038.6563" y2="1038.6563"/><text fill="#000000" font-family="sans-serif" font-size="13" font-weight="bold" lengthAdjust="spacing" textLength="14" x="17" y="1033.7998">21</text><text fill="#000000" font-family="sans-serif" font-size="13" lengthAdjust="spacing" textLength="163" x="35" y="1033.7998">Response status code - 200</text><polygon fill="#181818" points="490,1072.0078,500,1076.0078,490,1080.0078,494,1076.0078" style="stroke:#181818;stroke-width:1.0;"/><line style="stroke:#181818;stroke-width:1.0;" x1="366" x2="496" y1="1076.0078" y2="1076.0078"/><text fill="#000000" font-family="sans-serif" font-size="13" font-weight="bold" lengthAdjust="spacing" textLength="14" x="373" y="1071.1514">22</text><text fill="#000000" font-family="sans-serif" font-size="13" lengthAdjust="spacing" textLength="39" x="391" y="1071.1514">update</text><polygon fill="#181818" points="377,1102.3594,367,1106.3594,377,1110.3594,373,1106.3594" style="stroke:#181818;stroke-width:1.0;"/><line style="stroke:#181818;stroke-width:1.0;stroke-dasharray:2.0,2.0;" x1="371" x2="506" y1="1106.3594" y2="1106.3594"/><text fill="#000000" font-family="sans-serif" font-size="13" font-weight="bold" lengthAdjust="spacing" textLength="14" x="383" y="1101.5029">23</text><text fill="#000000" font-family="sans-serif" font-size="13" lengthAdjust="spacing" textLength="4" x="401" y="1101.5029">&#160;</text><polygon fill="#181818" points="11,1132.7109,1,1136.7109,11,1140.7109,7,1136.7109" style="stroke:#181818;stroke-width:1.0;"/><line style="stroke:#181818;stroke-width:1.0;stroke-dasharray:2.0,2.0;" x1="5" x2="360" y1="1136.7109" y2="1136.7109"/><text fill="#000000" font-family="sans-serif" font-size="13" font-weight="bold" lengthAdjust="spacing" textLength="14" x="17" y="1131.8545">24</text><text fill="#000000" font-family="sans-serif" font-size="13" lengthAdjust="spacing" textLength="163" x="35" y="1131.8545">Response status code - 200</text><path d="M3,1151.7109 L64,1151.7109 L64,1160.0625 L54,1170.0625 L3,1170.0625 L3,1151.7109 " fill="#EEEEEE" style="stroke:#000000;stroke-width:1.5;"/><rect fill="none" height="94.8906" style="stroke:#000000;stroke-width:1.5;" width="418" x="3" y="1151.7109"/><text fill="#000000" font-family="sans-serif" font-size="13" font-weight="bold" lengthAdjust="spacing" textLength="16" x="18" y="1166.2061">alt</text><text fill="#000000" font-family="sans-serif" font-size="11" font-weight="bold" lengthAdjust="spacing" textLength="122" x="79" y="1165.1299">[database unavailable]</text><polygon fill="#181818" points="11,1188.4141,1,1192.4141,11,1196.4141,7,1192.4141" style="stroke:#181818;stroke-width:1.0;"/><line style="stroke:#181818;stroke-width:1.0;stroke-dasharray:2.0,2.0;" x1="5" x2="360" y1="1192.4141" y2="1192.4141"/><text fill="#000000" font-family="sans-serif" font-size="13" font-weight="bold" lengthAdjust="spacing" textLength="14" x="17" y="1187.5576">25</text><text fill="#000000" font-family="sans-serif" font-size="13" lengthAdjust="spacing" textLength="163" x="35" y="1187.5576">Response status code - 503</text><line style="stroke:#000000;stroke-width:1.0;stroke-dasharray:2.0,2.0;" x1="3" x2="421" y1="1201.4141" y2="1201.4141"/><text fill="#000000" font-family="sans-serif" font-size="11" font-weight="bold" lengthAdjust="spacing" textLength="90" x="8" y="1212.833">[database error]</text><polygon fill="#181818" points="11,1234.6016,1,1238.6016,11,1242.6016,7,1238.6016" style="stroke:#181818;stroke-width:1.0;"/><line style="stroke:#181818;stroke-width:1.0;stroke-dasharray:2.0,2.0;" x1="5" x2="360" y1="1238.6016" y2="1238.6016"/><text fill="#000000" font-family="sans-serif" font-size="13" font-weight="bold" lengthAdjust="spacing" textLength="14" x="17" y="1233.7451">26</text><text fill="#000000" font-family="sans-serif" font-size="13" lengthAdjust="spacing" textLength="163" x="35" y="1233.7451">Response status code - 500</text><line style="stroke:#000000;stroke-width:1.0;stroke-dasharray:2.0,2.0;" x1="3" x2="563" y1="1254.6016" y2="1254.6016"/><text fill="#000000" font-family="sans-serif" font-size="11" font-weight="bold" lengthAdjust="spacing" textLength="117" x="8" y="1266.0205">[user not authorized]</text><polygon fill="#181818" points="11,1287.7891,1,1291.7891,11,1295.7891,7,1291.7891" style="stroke:#181818;stroke-width:1.0;"/><line style="stroke:#181818;stroke-width:1.0;stroke-dasharray:2.0,2.0;" x1="5" x2="360" y1="1291.7891" y2="1291.7891"/><text fill="#000000" font-family="sans-serif" font-size="13" font-weight="bold" lengthAdjust="spacing" textLength="14" x="17" y="1286.9326">27</text><text fill="#000000" font-family="sans-serif" font-size="13" lengthAdjust="spacing" textLength="163" x="35" y="1286.9326">Response status code - 401</text><!--SRC=[vLJBJiCm4BpxArQzHmrGBbNLGvG8SK68nmTiaWrOTPp8NbSg5V_EEeLGuD1877iRRMOyEsjdCN1dGrkIKtwZROyEM-Ynsk0BFVBE43YgM2dMBFYvhv49xf4rMQaAdNMbUxGCiqnKIM7h6Q27h83LgkhQlhF2NA-L2B54Jp3B1MM21bwU_UAfP1t5IxWfdgIHmSZFzy6JkwtVv_j6Eyzts99WWoDiWZ43L0eDGwG31dxjd7wZMeeLwstiFIkKalF59S-Mq6XRGxaxyFKnBy-KakQIePsbKZNz-3IQs8wXwO8LxIf98XSUo4iSYUePENYekfeWWKMwK8gCrCTP18jRr0PBGoVbr-dLftpmdUPvcQOYYiI_cOT9WfMXdLNi-6ZEBtNyFyudTHZsrFIeKooE9767nEdyC-Ge9-SwDq7u5VHxHF5gZjVSoVkvE1pn0G00]--></g></svg>