<?xml version="1.0" encoding="us-ascii" standalone="no"?><svg xmlns="http://www.w3.org/2000/svg" xmlns:xlink="http://www.w3.org/1999/xlink" contentStyleType="text/css" height="520px" preserveAspectRatio="none" style="width:381px;height:520px;background:#FFFFFF;" version="1.1" viewBox="0 0 381 520" width="381px" zoomAndPan="magnify"><defs/><g><text fill="#000000" font-family="sans-serif" font-size="14" font-weight="bold" lengthAdjust="spacing" textLength="184" x="99.5" y="29.5332">Create Operation Request</text><rect fill="#FFFFFF" height="256.1328" style="stroke:#181818;stroke-width:1.0;" width="10" x="196" y="157.1797"/><rect fill="#FFFFFF" height="30.3516" style="stroke:#181818;stroke-width:1.0;" width="10" x="313" y="212.8828"/><rect fill="none" height="234.1328" style="stroke:#000000;stroke-width:1.5;" width="371" x="3" y="172.1797"/><rect fill="none" height="94.8906" style="stroke:#000000;stroke-width:1.5;" width="258" x="3" y="258.2344"/><line style="stroke:#181818;stroke-width:0.5;stroke-dasharray:5.0,5.0;" x1="201" x2="201" y1="124.8281" y2="423.3125"/><line style="stroke:#181818;stroke-width:0.5;stroke-dasharray:5.0,5.0;" x1="318" x2="318" y1="124.8281" y2="423.3125"/><rect fill="#E2E2F0" height="49.2188" rx="2.5" ry="2.5" style="stroke:#181818;stroke-width:0.5;" width="100" x="151" y="74.6094"/><text fill="#000000" font-family="sans-serif" font-size="14" font-style="italic" lengthAdjust="spacing" textLength="86" x="158" y="96.1426">&#171;component&#187;</text><text fill="#000000" font-family="sans-serif" font-size="14" lengthAdjust="spacing" textLength="61" x="170.5" y="113.752">Back-End</text><rect fill="#E2E2F0" height="49.2188" rx="2.5" ry="2.5" style="stroke:#181818;stroke-width:0.5;" width="100" x="151" y="422.3125"/><text fill="#000000" font-family="sans-serif" font-size="14" font-style="italic" lengthAdjust="spacing" textLength="86" x="158" y="443.8457">&#171;component&#187;</text><text fill="#000000" font-family="sans-serif" font-size="14" lengthAdjust="spacing" textLength="61" x="170.5" y="461.4551">Back-End</text><text fill="#000000" font-family="sans-serif" font-size="14" font-style="italic" lengthAdjust="spacing" textLength="86" x="272" y="104.1426">&#171;component&#187;</text><text fill="#000000" font-family="sans-serif" font-size="14" lengthAdjust="spacing" textLength="62" x="284" y="121.752">DataBase</text><path d="M300,53.6094 C300,43.6094 318,43.6094 318,43.6094 C318,43.6094 336,43.6094 336,53.6094 L336,79.6094 C336,89.6094 318,89.6094 318,89.6094 C318,89.6094 300,89.6094 300,79.6094 L300,53.6094 " fill="#E2E2F0" style="stroke:#181818;stroke-width:1.5;"/><path d="M300,53.6094 C300,63.6094 318,63.6094 318,63.6094 C318,63.6094 336,63.6094 336,53.6094 " fill="none" style="stroke:#181818;stroke-width:1.5;"/><text fill="#000000" font-family="sans-serif" font-size="14" font-style="italic" lengthAdjust="spacing" textLength="86" x="272" y="436.8457">&#171;component&#187;</text><text fill="#000000" font-family="sans-serif" font-size="14" lengthAdjust="spacing" textLength="62" x="284" y="454.4551">DataBase</text><path d="M300,467.5313 C300,457.5313 318,457.5313 318,457.5313 C318,457.5313 336,457.5313 336,467.5313 L336,493.5313 C336,503.5313 318,503.5313 318,503.5313 C318,503.5313 300,503.5313 300,493.5313 L300,467.5313 " fill="#E2E2F0" style="stroke:#181818;stroke-width:1.5;"/><path d="M300,467.5313 C300,477.5313 318,477.5313 318,477.5313 C318,477.5313 336,477.5313 336,467.5313 " fill="none" style="stroke:#181818;stroke-width:1.5;"/><rect fill="#FFFFFF" height="256.1328" style="stroke:#181818;stroke-width:1.0;" width="10" x="196" y="157.1797"/><rect fill="#FFFFFF" height="30.3516" style="stroke:#181818;stroke-width:1.0;" width="10" x="313" y="212.8828"/><polygon fill="#181818" points="184,153.1797,194,157.1797,184,161.1797,188,157.1797" style="stroke:#181818;stroke-width:1.0;"/><line style="stroke:#181818;stroke-width:1.0;" x1="0" x2="190" y1="157.1797" y2="157.1797"/><text fill="#000000" font-family="sans-serif" font-size="13" font-weight="bold" lengthAdjust="spacing" textLength="7" x="7" y="152.3232">1</text><text fill="#000000" font-family="sans-serif" font-size="13" lengthAdjust="spacing" textLength="141" x="18" y="152.3232">POST /request {request}</text><path d="M3,172.1797 L64,172.1797 L64,180.5313 L54,190.5313 L3,190.5313 L3,172.1797 " fill="#EEEEEE" style="stroke:#000000;stroke-width:1.5;"/><rect fill="none" height="234.1328" style="stroke:#000000;stroke-width:1.5;" width="371" x="3" y="172.1797"/><text fill="#000000" font-family="sans-serif" font-size="13" font-weight="bold" lengthAdjust="spacing" textLength="16" x="18" y="186.6748">alt</text><text fill="#000000" font-family="sans-serif" font-size="11" font-weight="bold" lengthAdjust="spacing" textLength="96" x="79" y="185.5986">[user authorized]</text><polygon fill="#181818" points="301,208.8828,311,212.8828,301,216.8828,305,212.8828" style="stroke:#181818;stroke-width:1.0;"/><line style="stroke:#181818;stroke-width:1.0;" x1="206" x2="307" y1="212.8828" y2="212.8828"/><text fill="#000000" font-family="sans-serif" font-size="13" font-weight="bold" lengthAdjust="spacing" textLength="7" x="213" y="208.0264">2</text><text fill="#000000" font-family="sans-serif" font-size="13" lengthAdjust="spacing" textLength="77" x="224" y="208.0264">save(request)</text><polygon fill="#181818" points="217,239.2344,207,243.2344,217,247.2344,213,243.2344" style="stroke:#181818;stroke-width:1.0;"/><line style="stroke:#181818;stroke-width:1.0;stroke-dasharray:2.0,2.0;" x1="211" x2="317" y1="243.2344" y2="243.2344"/><text fill="#000000" font-family="sans-serif" font-size="13" font-weight="bold" lengthAdjust="spacing" textLength="7" x="223" y="238.3779">3</text><text fill="#000000" font-family="sans-serif" font-size="13" lengthAdjust="spacing" textLength="4" x="234" y="238.3779">&#160;</text><path d="M3,258.2344 L64,258.2344 L64,266.5859 L54,276.5859 L3,276.5859 L3,258.2344 " fill="#EEEEEE" style="stroke:#000000;stroke-width:1.5;"/><rect fill="none" height="94.8906" style="stroke:#000000;stroke-width:1.5;" width="258" x="3" y="258.2344"/><text fill="#000000" font-family="sans-serif" font-size="13" font-weight="bold" lengthAdjust="spacing" textLength="16" x="18" y="272.7295">alt</text><text fill="#000000" font-family="sans-serif" font-size="11" font-weight="bold" lengthAdjust="spacing" textLength="80" x="79" y="271.6533">[request valid]</text><polygon fill="#181818" points="11,294.9375,1,298.9375,11,302.9375,7,298.9375" style="stroke:#181818;stroke-width:1.0;"/><line style="stroke:#181818;stroke-width:1.0;stroke-dasharray:2.0,2.0;" x1="5" x2="195" y1="298.9375" y2="298.9375"/><text fill="#000000" font-family="sans-serif" font-size="13" font-weight="bold" lengthAdjust="spacing" textLength="7" x="17" y="294.0811">4</text><text fill="#000000" font-family="sans-serif" font-size="13" lengthAdjust="spacing" textLength="159" x="28" y="294.0811">Response status code -201</text><line style="stroke:#000000;stroke-width:1.0;stroke-dasharray:2.0,2.0;" x1="3" x2="261" y1="307.9375" y2="307.9375"/><text fill="#000000" font-family="sans-serif" font-size="11" font-weight="bold" lengthAdjust="spacing" textLength="122" x="8" y="319.3564">[database unavailable]</text><polygon fill="#181818" points="11,341.125,1,345.125,11,349.125,7,345.125" style="stroke:#181818;stroke-width:1.0;"/><line style="stroke:#181818;stroke-width:1.0;stroke-dasharray:2.0,2.0;" x1="5" x2="195" y1="345.125" y2="345.125"/><text fill="#000000" font-family="sans-serif" font-size="13" font-weight="bold" lengthAdjust="spacing" textLength="7" x="17" y="340.2686">5</text><text fill="#000000" font-family="sans-serif" font-size="13" lengthAdjust="spacing" textLength="159" x="28" y="340.2686">Response status code -503</text><line style="stroke:#000000;stroke-width:1.0;stroke-dasharray:2.0,2.0;" x1="3" x2="374" y1="361.125" y2="361.125"/><text fill="#000000" font-family="sans-serif" font-size="11" font-weight="bold" lengthAdjust="spacing" textLength="110" x="8" y="372.5439">[user unauthorized]</text><polygon fill="#181818" points="11,394.3125,1,398.3125,11,402.3125,7,398.3125" style="stroke:#181818;stroke-width:1.0;"/><line style="stroke:#181818;stroke-width:1.0;stroke-dasharray:2.0,2.0;" x1="5" x2="195" y1="398.3125" y2="398.3125"/><text fill="#000000" font-family="sans-serif" font-size="13" font-weight="bold" lengthAdjust="spacing" textLength="7" x="17" y="393.4561">6</text><text fill="#000000" font-family="sans-serif" font-size="13" lengthAdjust="spacing" textLength="159" x="28" y="393.4561">Response status code -401</text><!--SRC=[XP3FJeH038VlVOg6anw8wx_BXd0OuRncrnSeqBYJXG5dEYHgV7SBYmOzwAtfzElNtr2KtiMkOW_XPDr0dZeSg3xHCn_ajMNqN0k0MD7wmJC9usvWJs9xXtj-YHpqNK6njHt82IP6-RHqJO8Kq9IOPNNV3RrZ9taE3GbL51YJGYkZrJnNc5zpaEOAR_5nTtZ2AtysuVjIV01GAnW3UwGenzxRDswqMOiTfoDD2Q1kNLAOBGOQ-M91BrTJXG5GStfs0JJyusbIV9b7QgqAiZITpzfpq5CrHX2I6B3k6yRqPdCDmAsslsD6HoFPbggM_wFlDxTAksPPCOTJV1NlR_vkja_yAeT-n2S0]--></g></svg>