<?xml version="1.0" encoding="us-ascii" standalone="no"?><svg xmlns="http://www.w3.org/2000/svg" xmlns:xlink="http://www.w3.org/1999/xlink" contentStyleType="text/css" height="476px" preserveAspectRatio="none" style="width:521px;height:476px;background:#FFFFFF;" version="1.1" viewBox="0 0 521 476" width="521px" zoomAndPan="magnify"><defs/><g><text fill="#000000" font-family="sans-serif" font-size="14" font-weight="bold" lengthAdjust="spacing" textLength="136" x="193.5" y="29.5332">List All {Resources}</text><rect fill="#FFFFFF" height="271.4844" style="stroke:#181818;stroke-width:1.0;" width="10" x="227" y="126.1797"/><rect fill="#FFFFFF" height="241.1328" style="stroke:#181818;stroke-width:1.0;" width="10" x="435" y="156.5313"/><rect fill="none" height="234.1328" style="stroke:#000000;stroke-width:1.5;" width="511" x="3" y="171.5313"/><rect fill="none" height="94.8906" style="stroke:#000000;stroke-width:1.5;" width="289" x="3" y="227.2344"/><line style="stroke:#181818;stroke-width:0.5;stroke-dasharray:5.0,5.0;" x1="232" x2="232" y1="93.8281" y2="422.6641"/><line style="stroke:#181818;stroke-width:0.5;stroke-dasharray:5.0,5.0;" x1="440" x2="440" y1="93.8281" y2="422.6641"/><rect fill="#E2E2F0" height="49.2188" rx="2.5" ry="2.5" style="stroke:#181818;stroke-width:0.5;" width="100" x="182" y="43.6094"/><text fill="#000000" font-family="sans-serif" font-size="14" font-style="italic" lengthAdjust="spacing" textLength="86" x="189" y="65.1426">&#171;component&#187;</text><text fill="#000000" font-family="sans-serif" font-size="14" lengthAdjust="spacing" textLength="83" x="190.5" y="82.752">PortalModule</text><rect fill="#E2E2F0" height="49.2188" rx="2.5" ry="2.5" style="stroke:#181818;stroke-width:0.5;" width="100" x="182" y="421.6641"/><text fill="#000000" font-family="sans-serif" font-size="14" font-style="italic" lengthAdjust="spacing" textLength="86" x="189" y="443.1973">&#171;component&#187;</text><text fill="#000000" font-family="sans-serif" font-size="14" lengthAdjust="spacing" textLength="83" x="190.5" y="460.8066">PortalModule</text><rect fill="#E2E2F0" height="49.2188" rx="2.5" ry="2.5" style="stroke:#181818;stroke-width:0.5;" width="128" x="376" y="43.6094"/><text fill="#000000" font-family="sans-serif" font-size="14" font-style="italic" lengthAdjust="spacing" textLength="86" x="397" y="65.1426">&#171;component&#187;</text><text fill="#000000" font-family="sans-serif" font-size="14" lengthAdjust="spacing" textLength="114" x="383" y="82.752">BackOfficeModule</text><rect fill="#E2E2F0" height="49.2188" rx="2.5" ry="2.5" style="stroke:#181818;stroke-width:0.5;" width="128" x="376" y="421.6641"/><text fill="#000000" font-family="sans-serif" font-size="14" font-style="italic" lengthAdjust="spacing" textLength="86" x="397" y="443.1973">&#171;component&#187;</text><text fill="#000000" font-family="sans-serif" font-size="14" lengthAdjust="spacing" textLength="114" x="383" y="460.8066">BackOfficeModule</text><rect fill="#FFFFFF" height="271.4844" style="stroke:#181818;stroke-width:1.0;" width="10" x="227" y="126.1797"/><rect fill="#FFFFFF" height="241.1328" style="stroke:#181818;stroke-width:1.0;" width="10" x="435" y="156.5313"/><polygon fill="#181818" points="215,122.1797,225,126.1797,215,130.1797,219,126.1797" style="stroke:#181818;stroke-width:1.0;"/><line style="stroke:#181818;stroke-width:1.0;" x1="0" x2="221" y1="126.1797" y2="126.1797"/><text fill="#000000" font-family="sans-serif" font-size="13" font-weight="bold" lengthAdjust="spacing" textLength="7" x="7" y="121.3232">1</text><text fill="#000000" font-family="sans-serif" font-size="13" lengthAdjust="spacing" textLength="150" x="18" y="121.3232">onLoad {Resources} Page</text><polygon fill="#181818" points="423,152.5313,433,156.5313,423,160.5313,427,156.5313" style="stroke:#181818;stroke-width:1.0;"/><line style="stroke:#181818;stroke-width:1.0;" x1="237" x2="429" y1="156.5313" y2="156.5313"/><text fill="#000000" font-family="sans-serif" font-size="13" font-weight="bold" lengthAdjust="spacing" textLength="7" x="244" y="151.6748">2</text><text fill="#000000" font-family="sans-serif" font-size="13" lengthAdjust="spacing" textLength="111" x="255" y="151.6748">GET resources/{...}</text><path d="M3,171.5313 L64,171.5313 L64,179.8828 L54,189.8828 L3,189.8828 L3,171.5313 " fill="#EEEEEE" style="stroke:#000000;stroke-width:1.5;"/><rect fill="none" height="234.1328" style="stroke:#000000;stroke-width:1.5;" width="511" x="3" y="171.5313"/><text fill="#000000" font-family="sans-serif" font-size="13" font-weight="bold" lengthAdjust="spacing" textLength="16" x="18" y="186.0264">alt</text><text fill="#000000" font-family="sans-serif" font-size="11" font-weight="bold" lengthAdjust="spacing" textLength="55" x="79" y="184.9502">[success]</text><polygon fill="#181818" points="248,208.2344,238,212.2344,248,216.2344,244,212.2344" style="stroke:#181818;stroke-width:1.0;"/><line style="stroke:#181818;stroke-width:1.0;stroke-dasharray:2.0,2.0;" x1="242" x2="434" y1="212.2344" y2="212.2344"/><text fill="#000000" font-family="sans-serif" font-size="13" font-weight="bold" lengthAdjust="spacing" textLength="7" x="254" y="207.3779">3</text><text fill="#000000" font-family="sans-serif" font-size="13" lengthAdjust="spacing" textLength="163" x="265" y="207.3779">Response status code - 200</text><path d="M3,227.2344 L64,227.2344 L64,235.5859 L54,245.5859 L3,245.5859 L3,227.2344 " fill="#EEEEEE" style="stroke:#000000;stroke-width:1.5;"/><rect fill="none" height="94.8906" style="stroke:#000000;stroke-width:1.5;" width="289" x="3" y="227.2344"/><text fill="#000000" font-family="sans-serif" font-size="13" font-weight="bold" lengthAdjust="spacing" textLength="16" x="18" y="241.7295">alt</text><polygon fill="#181818" points="11,263.9375,1,267.9375,11,271.9375,7,267.9375" style="stroke:#181818;stroke-width:1.0;"/><line style="stroke:#181818;stroke-width:1.0;stroke-dasharray:2.0,2.0;" x1="5" x2="226" y1="267.9375" y2="267.9375"/><text fill="#000000" font-family="sans-serif" font-size="13" font-weight="bold" lengthAdjust="spacing" textLength="7" x="17" y="263.0811">4</text><text fill="#000000" font-family="sans-serif" font-size="13" lengthAdjust="spacing" textLength="136" x="28" y="263.0811">display {Resources} list</text><line style="stroke:#000000;stroke-width:1.0;stroke-dasharray:2.0,2.0;" x1="3" x2="292" y1="276.9375" y2="276.9375"/><text fill="#000000" font-family="sans-serif" font-size="11" font-weight="bold" lengthAdjust="spacing" textLength="133" x="8" y="288.3564">[no resources available]</text><polygon fill="#181818" points="11,310.125,1,314.125,11,318.125,7,314.125" style="stroke:#181818;stroke-width:1.0;"/><line style="stroke:#181818;stroke-width:1.0;stroke-dasharray:2.0,2.0;" x1="5" x2="226" y1="314.125" y2="314.125"/><text fill="#000000" font-family="sans-serif" font-size="13" font-weight="bold" lengthAdjust="spacing" textLength="7" x="17" y="309.2686">5</text><text fill="#000000" font-family="sans-serif" font-size="13" lengthAdjust="spacing" textLength="190" x="28" y="309.2686">display no {Resources} message</text><line style="stroke:#000000;stroke-width:1.0;stroke-dasharray:2.0,2.0;" x1="3" x2="514" y1="330.125" y2="330.125"/><text fill="#000000" font-family="sans-serif" font-size="11" font-weight="bold" lengthAdjust="spacing" textLength="122" x="8" y="341.5439">[database unavailable]</text><polygon fill="#181818" points="248,363.3125,238,367.3125,248,371.3125,244,367.3125" style="stroke:#181818;stroke-width:1.0;"/><line style="stroke:#181818;stroke-width:1.0;stroke-dasharray:2.0,2.0;" x1="242" x2="434" y1="367.3125" y2="367.3125"/><text fill="#000000" font-family="sans-serif" font-size="13" font-weight="bold" lengthAdjust="spacing" textLength="7" x="254" y="362.4561">6</text><text fill="#000000" font-family="sans-serif" font-size="13" lengthAdjust="spacing" textLength="163" x="265" y="362.4561">Response status code - 503</text><polygon fill="#181818" points="11,393.6641,1,397.6641,11,401.6641,7,397.6641" style="stroke:#181818;stroke-width:1.0;"/><line style="stroke:#181818;stroke-width:1.0;stroke-dasharray:2.0,2.0;" x1="5" x2="231" y1="397.6641" y2="397.6641"/><text fill="#000000" font-family="sans-serif" font-size="13" font-weight="bold" lengthAdjust="spacing" textLength="7" x="17" y="392.8076">7</text><text fill="#000000" font-family="sans-serif" font-size="13" lengthAdjust="spacing" textLength="128" x="28" y="392.8076">display error message</text><!--SRC=[ZP3DQW8n4CVlynH3xskbfHSHmTBIYrAnVO4n6Kimcop9H13ntJlHKdVhfJaDoV_Zbw4YCPHsmmdopeME4hNOaTdH5t_8mJCcDW8WJdHUk2muznwFQywn9CFv1A0cSSPr50JlLZ49-MMqnVCTKiRrQedJgObj5mC7cSs6-cVjUjzkdU6UvsN-rmFDh2PD46DOHB9z0bmfB00PSNiIhZg0MgiUJPhWs-kdVkD7VdySZKQddbmbG5um5wFF-UoSDit5gYtAa1cpa9IC9bh61X_6OwWcgC8pbtMvytGOS7bT5x1NTuXN0AGzEKyRpxTkrVK3MkMfV-DW0Iv9beGsf4C9rnpy3_FJ-17mff5JYkct2D3oO363YxhO2ugURm00]--></g></svg>