<?xml version="1.0" encoding="us-ascii" standalone="no"?><svg xmlns="http://www.w3.org/2000/svg" xmlns:xlink="http://www.w3.org/1999/xlink" contentStyleType="text/css" height="645px" preserveAspectRatio="none" style="width:662px;height:645px;background:#FFFFFF;" version="1.1" viewBox="0 0 662 645" width="662px" zoomAndPan="magnify"><defs/><g><text fill="#000000" font-family="sans-serif" font-size="14" font-weight="bold" lengthAdjust="spacing" textLength="129" x="267.75" y="29.5332">Create {Resource}</text><rect fill="#FFFFFF" height="386.6953" style="stroke:#181818;stroke-width:1.0;" width="10" x="54.5" y="148.8281"/><rect fill="#FFFFFF" height="349.3438" style="stroke:#181818;stroke-width:1.0;" width="10" x="358.5" y="171.1797"/><rect fill="#FFFFFF" height="311.9922" style="stroke:#181818;stroke-width:1.0;" width="10" x="566.5" y="171.1797"/><rect fill="none" height="342.3438" style="stroke:#000000;stroke-width:1.5;" width="645.5" x="10" y="186.1797"/><rect fill="none" height="203.1016" style="stroke:#000000;stroke-width:1.5;" width="342" x="303.5" y="288.0703"/><line style="stroke:#181818;stroke-width:0.5;stroke-dasharray:5.0,5.0;" x1="59" x2="59" y1="138.8281" y2="545.5234"/><line style="stroke:#181818;stroke-width:0.5;stroke-dasharray:5.0,5.0;" x1="363.5" x2="363.5" y1="138.8281" y2="545.5234"/><line style="stroke:#181818;stroke-width:0.5;stroke-dasharray:5.0,5.0;" x1="571.5" x2="571.5" y1="138.8281" y2="545.5234"/><text fill="#000000" font-family="sans-serif" font-size="14" font-style="italic" lengthAdjust="spacing" textLength="73" x="20" y="118.1426">&#171;DEI User&#187;</text><text fill="#000000" font-family="sans-serif" font-size="14" lengthAdjust="spacing" textLength="29" x="42" y="135.752">User</text><ellipse cx="59.5" cy="52.1094" fill="#E2E2F0" rx="8" ry="8" style="stroke:#181818;stroke-width:0.5;"/><path d="M59.5,60.1094 L59.5,87.1094 M46.5,68.1094 L72.5,68.1094 M59.5,87.1094 L46.5,102.1094 M59.5,87.1094 L72.5,102.1094 " fill="none" style="stroke:#181818;stroke-width:0.5;"/><text fill="#000000" font-family="sans-serif" font-size="14" font-style="italic" lengthAdjust="spacing" textLength="73" x="20" y="559.0566">&#171;DEI User&#187;</text><text fill="#000000" font-family="sans-serif" font-size="14" lengthAdjust="spacing" textLength="29" x="42" y="576.666">User</text><ellipse cx="59.5" cy="588.2422" fill="#E2E2F0" rx="8" ry="8" style="stroke:#181818;stroke-width:0.5;"/><path d="M59.5,596.2422 L59.5,623.2422 M46.5,604.2422 L72.5,604.2422 M59.5,623.2422 L46.5,638.2422 M59.5,623.2422 L72.5,638.2422 " fill="none" style="stroke:#181818;stroke-width:0.5;"/><rect fill="#E2E2F0" height="49.2188" rx="2.5" ry="2.5" style="stroke:#181818;stroke-width:0.5;" width="100" x="313.5" y="88.6094"/><text fill="#000000" font-family="sans-serif" font-size="14" font-style="italic" lengthAdjust="spacing" textLength="86" x="320.5" y="110.1426">&#171;component&#187;</text><text fill="#000000" font-family="sans-serif" font-size="14" lengthAdjust="spacing" textLength="83" x="322" y="127.752">PortalModule</text><rect fill="#E2E2F0" height="49.2188" rx="2.5" ry="2.5" style="stroke:#181818;stroke-width:0.5;" width="100" x="313.5" y="544.5234"/><text fill="#000000" font-family="sans-serif" font-size="14" font-style="italic" lengthAdjust="spacing" textLength="86" x="320.5" y="566.0566">&#171;component&#187;</text><text fill="#000000" font-family="sans-serif" font-size="14" lengthAdjust="spacing" textLength="83" x="322" y="583.666">PortalModule</text><rect fill="#E2E2F0" height="49.2188" rx="2.5" ry="2.5" style="stroke:#181818;stroke-width:0.5;" width="128" x="507.5" y="88.6094"/><text fill="#000000" font-family="sans-serif" font-size="14" font-style="italic" lengthAdjust="spacing" textLength="86" x="528.5" y="110.1426">&#171;component&#187;</text><text fill="#000000" font-family="sans-serif" font-size="14" lengthAdjust="spacing" textLength="114" x="514.5" y="127.752">BackOfficeModule</text><rect fill="#E2E2F0" height="49.2188" rx="2.5" ry="2.5" style="stroke:#181818;stroke-width:0.5;" width="128" x="507.5" y="544.5234"/><text fill="#000000" font-family="sans-serif" font-size="14" font-style="italic" lengthAdjust="spacing" textLength="86" x="528.5" y="566.0566">&#171;component&#187;</text><text fill="#000000" font-family="sans-serif" font-size="14" lengthAdjust="spacing" textLength="114" x="514.5" y="583.666">BackOfficeModule</text><rect fill="#FFFFFF" height="386.6953" style="stroke:#181818;stroke-width:1.0;" width="10" x="54.5" y="148.8281"/><rect fill="#FFFFFF" height="349.3438" style="stroke:#181818;stroke-width:1.0;" width="10" x="358.5" y="171.1797"/><rect fill="#FFFFFF" height="311.9922" style="stroke:#181818;stroke-width:1.0;" width="10" x="566.5" y="171.1797"/><polygon fill="#181818" points="346.5,167.1797,356.5,171.1797,346.5,175.1797,350.5,171.1797" style="stroke:#181818;stroke-width:1.0;"/><line style="stroke:#181818;stroke-width:1.0;" x1="64.5" x2="352.5" y1="171.1797" y2="171.1797"/><text fill="#000000" font-family="sans-serif" font-size="13" font-weight="bold" lengthAdjust="spacing" textLength="7" x="71.5" y="166.3232">1</text><text fill="#000000" font-family="sans-serif" font-size="13" lengthAdjust="spacing" textLength="264" x="82.5" y="166.3232">Fills and submits the {Resource} Create Form</text><path d="M10,186.1797 L71,186.1797 L71,194.5313 L61,204.5313 L10,204.5313 L10,186.1797 " fill="#EEEEEE" style="stroke:#000000;stroke-width:1.5;"/><rect fill="none" height="342.3438" style="stroke:#000000;stroke-width:1.5;" width="645.5" x="10" y="186.1797"/><text fill="#000000" font-family="sans-serif" font-size="13" font-weight="bold" lengthAdjust="spacing" textLength="16" x="25" y="200.6748">alt</text><text fill="#000000" font-family="sans-serif" font-size="11" font-weight="bold" lengthAdjust="spacing" textLength="55" x="86" y="199.5986">[success]</text><polygon fill="#181818" points="379.5,222.8828,369.5,226.8828,379.5,230.8828,375.5,226.8828" style="stroke:#181818;stroke-width:1.0;"/><line style="stroke:#181818;stroke-width:1.0;stroke-dasharray:2.0,2.0;" x1="373.5" x2="565.5" y1="226.8828" y2="226.8828"/><text fill="#000000" font-family="sans-serif" font-size="13" font-weight="bold" lengthAdjust="spacing" textLength="7" x="385.5" y="222.0264">2</text><text fill="#000000" font-family="sans-serif" font-size="13" lengthAdjust="spacing" textLength="163" x="396.5" y="222.0264">Response status code - 201</text><polygon fill="#181818" points="75.5,253.2344,65.5,257.2344,75.5,261.2344,71.5,257.2344" style="stroke:#181818;stroke-width:1.0;"/><line style="stroke:#181818;stroke-width:1.0;stroke-dasharray:2.0,2.0;" x1="69.5" x2="357.5" y1="257.2344" y2="257.2344"/><text fill="#000000" font-family="sans-serif" font-size="13" font-weight="bold" lengthAdjust="spacing" textLength="7" x="81.5" y="252.3779">3</text><text fill="#000000" font-family="sans-serif" font-size="13" lengthAdjust="spacing" textLength="158" x="92.5" y="252.3779">displays success message</text><line style="stroke:#000000;stroke-width:1.0;stroke-dasharray:2.0,2.0;" x1="10" x2="655.5" y1="266.2344" y2="266.2344"/><text fill="#000000" font-family="sans-serif" font-size="11" font-weight="bold" lengthAdjust="spacing" textLength="83" x="15" y="277.6533">[unsuccessful]</text><path d="M303.5,288.0703 L364.5,288.0703 L364.5,296.4219 L354.5,306.4219 L303.5,306.4219 L303.5,288.0703 " fill="#EEEEEE" style="stroke:#000000;stroke-width:1.5;"/><rect fill="none" height="203.1016" style="stroke:#000000;stroke-width:1.5;" width="342" x="303.5" y="288.0703"/><text fill="#000000" font-family="sans-serif" font-size="13" font-weight="bold" lengthAdjust="spacing" textLength="16" x="318.5" y="302.5654">alt</text><line style="stroke:#000000;stroke-width:1.0;stroke-dasharray:2.0,2.0;" x1="303.5" x2="645.5" y1="307.4219" y2="307.4219"/><text fill="#000000" font-family="sans-serif" font-size="11" font-weight="bold" lengthAdjust="spacing" textLength="69" x="308.5" y="318.8408">[invalid data]</text><polygon fill="#181818" points="379.5,340.6094,369.5,344.6094,379.5,348.6094,375.5,344.6094" style="stroke:#181818;stroke-width:1.0;"/><line style="stroke:#181818;stroke-width:1.0;stroke-dasharray:2.0,2.0;" x1="373.5" x2="565.5" y1="344.6094" y2="344.6094"/><text fill="#000000" font-family="sans-serif" font-size="13" font-weight="bold" lengthAdjust="spacing" textLength="7" x="385.5" y="339.7529">4</text><text fill="#000000" font-family="sans-serif" font-size="13" lengthAdjust="spacing" textLength="163" x="396.5" y="339.7529">Response status code - 400</text><line style="stroke:#000000;stroke-width:1.0;stroke-dasharray:2.0,2.0;" x1="303.5" x2="645.5" y1="353.6094" y2="353.6094"/><text fill="#000000" font-family="sans-serif" font-size="11" font-weight="bold" lengthAdjust="spacing" textLength="115" x="308.5" y="365.0283">[resource not found]</text><polygon fill="#181818" points="379.5,386.7969,369.5,390.7969,379.5,394.7969,375.5,390.7969" style="stroke:#181818;stroke-width:1.0;"/><line style="stroke:#181818;stroke-width:1.0;stroke-dasharray:2.0,2.0;" x1="373.5" x2="565.5" y1="390.7969" y2="390.7969"/><text fill="#000000" font-family="sans-serif" font-size="13" font-weight="bold" lengthAdjust="spacing" textLength="7" x="385.5" y="385.9404">5</text><text fill="#000000" font-family="sans-serif" font-size="13" lengthAdjust="spacing" textLength="163" x="396.5" y="385.9404">Response status code - 404</text><line style="stroke:#000000;stroke-width:1.0;stroke-dasharray:2.0,2.0;" x1="303.5" x2="645.5" y1="399.7969" y2="399.7969"/><text fill="#000000" font-family="sans-serif" font-size="11" font-weight="bold" lengthAdjust="spacing" textLength="119" x="308.5" y="411.2158">[entity already exists]</text><polygon fill="#181818" points="379.5,432.9844,369.5,436.9844,379.5,440.9844,375.5,436.9844" style="stroke:#181818;stroke-width:1.0;"/><line style="stroke:#181818;stroke-width:1.0;stroke-dasharray:2.0,2.0;" x1="373.5" x2="565.5" y1="436.9844" y2="436.9844"/><text fill="#000000" font-family="sans-serif" font-size="13" font-weight="bold" lengthAdjust="spacing" textLength="7" x="385.5" y="432.1279">6</text><text fill="#000000" font-family="sans-serif" font-size="13" lengthAdjust="spacing" textLength="163" x="396.5" y="432.1279">Response status code - 409</text><line style="stroke:#000000;stroke-width:1.0;stroke-dasharray:2.0,2.0;" x1="303.5" x2="645.5" y1="445.9844" y2="445.9844"/><text fill="#000000" font-family="sans-serif" font-size="11" font-weight="bold" lengthAdjust="spacing" textLength="122" x="308.5" y="457.4033">[database unavailable]</text><polygon fill="#181818" points="379.5,479.1719,369.5,483.1719,379.5,487.1719,375.5,483.1719" style="stroke:#181818;stroke-width:1.0;"/><line style="stroke:#181818;stroke-width:1.0;stroke-dasharray:2.0,2.0;" x1="373.5" x2="570.5" y1="483.1719" y2="483.1719"/><text fill="#000000" font-family="sans-serif" font-size="13" font-weight="bold" lengthAdjust="spacing" textLength="7" x="385.5" y="478.3154">7</text><text fill="#000000" font-family="sans-serif" font-size="13" lengthAdjust="spacing" textLength="163" x="396.5" y="478.3154">Response status code - 503</text><polygon fill="#181818" points="75.5,516.5234,65.5,520.5234,75.5,524.5234,71.5,520.5234" style="stroke:#181818;stroke-width:1.0;"/><line style="stroke:#181818;stroke-width:1.0;stroke-dasharray:2.0,2.0;" x1="69.5" x2="362.5" y1="520.5234" y2="520.5234"/><text fill="#000000" font-family="sans-serif" font-size="13" font-weight="bold" lengthAdjust="spacing" textLength="7" x="81.5" y="515.667">8</text><text fill="#000000" font-family="sans-serif" font-size="13" lengthAdjust="spacing" textLength="128" x="92.5" y="515.667">display error message</text><!--SRC=[ZPB1IWCn48RlUOgXzuMgzM0f1RKMF1HBPHzWDfdLq6oo99FY8hwxoMwBgrxs4i8m_pV__0b6TZOs5NaHZjgswB615kKHt-YLEqFWIR8Gh3dT7pqX4tmUABZe9Nq9WPATXraPoCy00vImMcsUdY4NrckHWAobRj4opFRECvgTKz5GttpOxrAxT4thB5d-s_-GVBpKjPOqqcpk_sgo1ttAnaeXIYZMcRi4s6fZ0g1L46BLQ0x0xsFpbtMspZS_ZAGT4TCqWOOJGKeAGVIEYoBNbv18oKGW28mS0qYd20gudbzb7xcjDw9qQ0rsuGA19XqfNo78976qvteTJPurLBKzeT4A538Ac39sCPyFKdzU4AnZg5sqQYfWCG1Ih9exG9FoKHtGXmuSfZBk1aRsNM6_7fvG6wmCJKFSpcy4AFhr19Ht-1yfaFVfzrto78doAsRHk5QARm00]--></g></svg>