<?xml version="1.0" encoding="us-ascii" standalone="no"?><svg xmlns="http://www.w3.org/2000/svg" xmlns:xlink="http://www.w3.org/1999/xlink" contentStyleType="text/css" height="519px" preserveAspectRatio="none" style="width:406px;height:519px;background:#FFFFFF;" version="1.1" viewBox="0 0 406 519" width="406px" zoomAndPan="magnify"><defs/><g><text fill="#000000" font-family="sans-serif" font-size="14" font-weight="bold" lengthAdjust="spacing" textLength="174" x="117.25" y="29.5332">List Filtered {Resources}</text><rect fill="#FFFFFF" height="260.6484" style="stroke:#181818;stroke-width:1.0;" width="10" x="54.5" y="148.8281"/><rect fill="#FFFFFF" height="223.2969" style="stroke:#181818;stroke-width:1.0;" width="10" x="331.5" y="171.1797"/><rect fill="none" height="94.8906" style="stroke:#000000;stroke-width:1.5;" width="389.5" x="10" y="307.5859"/><line style="stroke:#181818;stroke-width:0.5;stroke-dasharray:5.0,5.0;" x1="59" x2="59" y1="138.8281" y2="419.4766"/><line style="stroke:#181818;stroke-width:0.5;stroke-dasharray:5.0,5.0;" x1="336.5" x2="336.5" y1="138.8281" y2="419.4766"/><text fill="#000000" font-family="sans-serif" font-size="14" font-style="italic" lengthAdjust="spacing" textLength="73" x="20" y="118.1426">&#171;DEI User&#187;</text><text fill="#000000" font-family="sans-serif" font-size="14" lengthAdjust="spacing" textLength="29" x="42" y="135.752">User</text><ellipse cx="59.5" cy="52.1094" fill="#E2E2F0" rx="8" ry="8" style="stroke:#181818;stroke-width:0.5;"/><path d="M59.5,60.1094 L59.5,87.1094 M46.5,68.1094 L72.5,68.1094 M59.5,87.1094 L46.5,102.1094 M59.5,87.1094 L72.5,102.1094 " fill="none" style="stroke:#181818;stroke-width:0.5;"/><text fill="#000000" font-family="sans-serif" font-size="14" font-style="italic" lengthAdjust="spacing" textLength="73" x="20" y="433.0098">&#171;DEI User&#187;</text><text fill="#000000" font-family="sans-serif" font-size="14" lengthAdjust="spacing" textLength="29" x="42" y="450.6191">User</text><ellipse cx="59.5" cy="462.1953" fill="#E2E2F0" rx="8" ry="8" style="stroke:#181818;stroke-width:0.5;"/><path d="M59.5,470.1953 L59.5,497.1953 M46.5,478.1953 L72.5,478.1953 M59.5,497.1953 L46.5,512.1953 M59.5,497.1953 L72.5,512.1953 " fill="none" style="stroke:#181818;stroke-width:0.5;"/><rect fill="#E2E2F0" height="49.2188" rx="2.5" ry="2.5" style="stroke:#181818;stroke-width:0.5;" width="106" x="283.5" y="88.6094"/><text fill="#000000" font-family="sans-serif" font-size="14" font-style="italic" lengthAdjust="spacing" textLength="92" x="290.5" y="110.1426">&#171;system (C4)&#187;</text><text fill="#000000" font-family="sans-serif" font-size="14" lengthAdjust="spacing" textLength="50" x="311.5" y="127.752">Hospital</text><rect fill="#E2E2F0" height="49.2188" rx="2.5" ry="2.5" style="stroke:#181818;stroke-width:0.5;" width="106" x="283.5" y="418.4766"/><text fill="#000000" font-family="sans-serif" font-size="14" font-style="italic" lengthAdjust="spacing" textLength="92" x="290.5" y="440.0098">&#171;system (C4)&#187;</text><text fill="#000000" font-family="sans-serif" font-size="14" lengthAdjust="spacing" textLength="50" x="311.5" y="457.6191">Hospital</text><rect fill="#FFFFFF" height="260.6484" style="stroke:#181818;stroke-width:1.0;" width="10" x="54.5" y="148.8281"/><rect fill="#FFFFFF" height="223.2969" style="stroke:#181818;stroke-width:1.0;" width="10" x="331.5" y="171.1797"/><polygon fill="#181818" points="319.5,167.1797,329.5,171.1797,319.5,175.1797,323.5,171.1797" style="stroke:#181818;stroke-width:1.0;"/><line style="stroke:#181818;stroke-width:1.0;" x1="64.5" x2="325.5" y1="171.1797" y2="171.1797"/><text fill="#000000" font-family="sans-serif" font-size="13" font-weight="bold" lengthAdjust="spacing" textLength="7" x="71.5" y="166.3232">1</text><text fill="#000000" font-family="sans-serif" font-size="13" lengthAdjust="spacing" textLength="182" x="82.5" y="166.3232">Asks to list filtered {Resources}</text><polygon fill="#181818" points="75.5,197.5313,65.5,201.5313,75.5,205.5313,71.5,201.5313" style="stroke:#181818;stroke-width:1.0;"/><line style="stroke:#181818;stroke-width:1.0;stroke-dasharray:2.0,2.0;" x1="69.5" x2="330.5" y1="201.5313" y2="201.5313"/><text fill="#000000" font-family="sans-serif" font-size="13" font-weight="bold" lengthAdjust="spacing" textLength="7" x="81.5" y="196.6748">2</text><text fill="#000000" font-family="sans-serif" font-size="13" lengthAdjust="spacing" textLength="185" x="92.5" y="196.6748">Asks the user to select the filter</text><polygon fill="#181818" points="319.5,227.8828,329.5,231.8828,319.5,235.8828,323.5,231.8828" style="stroke:#181818;stroke-width:1.0;"/><line style="stroke:#181818;stroke-width:1.0;" x1="64.5" x2="325.5" y1="231.8828" y2="231.8828"/><text fill="#000000" font-family="sans-serif" font-size="13" font-weight="bold" lengthAdjust="spacing" textLength="7" x="71.5" y="227.0264">3</text><text fill="#000000" font-family="sans-serif" font-size="13" lengthAdjust="spacing" textLength="94" x="82.5" y="227.0264">Selects the filter</text><polygon fill="#181818" points="75.5,258.2344,65.5,262.2344,75.5,266.2344,71.5,262.2344" style="stroke:#181818;stroke-width:1.0;"/><line style="stroke:#181818;stroke-width:1.0;stroke-dasharray:2.0,2.0;" x1="69.5" x2="330.5" y1="262.2344" y2="262.2344"/><text fill="#000000" font-family="sans-serif" font-size="13" font-weight="bold" lengthAdjust="spacing" textLength="7" x="81.5" y="257.3779">4</text><text fill="#000000" font-family="sans-serif" font-size="13" lengthAdjust="spacing" textLength="225" x="92.5" y="257.3779">Asks the user to select the filter values</text><polygon fill="#181818" points="319.5,288.5859,329.5,292.5859,319.5,296.5859,323.5,292.5859" style="stroke:#181818;stroke-width:1.0;"/><line style="stroke:#181818;stroke-width:1.0;" x1="64.5" x2="325.5" y1="292.5859" y2="292.5859"/><text fill="#000000" font-family="sans-serif" font-size="13" font-weight="bold" lengthAdjust="spacing" textLength="7" x="71.5" y="287.7295">5</text><text fill="#000000" font-family="sans-serif" font-size="13" lengthAdjust="spacing" textLength="157" x="82.5" y="287.7295">Input/select the filter values</text><path d="M10,307.5859 L71,307.5859 L71,315.9375 L61,325.9375 L10,325.9375 L10,307.5859 " fill="#EEEEEE" style="stroke:#000000;stroke-width:1.5;"/><rect fill="none" height="94.8906" style="stroke:#000000;stroke-width:1.5;" width="389.5" x="10" y="307.5859"/><text fill="#000000" font-family="sans-serif" font-size="13" font-weight="bold" lengthAdjust="spacing" textLength="16" x="25" y="322.0811">alt</text><polygon fill="#181818" points="75.5,344.2891,65.5,348.2891,75.5,352.2891,71.5,348.2891" style="stroke:#181818;stroke-width:1.0;"/><line style="stroke:#181818;stroke-width:1.0;stroke-dasharray:2.0,2.0;" x1="69.5" x2="330.5" y1="348.2891" y2="348.2891"/><text fill="#000000" font-family="sans-serif" font-size="13" font-weight="bold" lengthAdjust="spacing" textLength="7" x="81.5" y="343.4326">6</text><text fill="#000000" font-family="sans-serif" font-size="13" lengthAdjust="spacing" textLength="178" x="92.5" y="343.4326">display filtered {Resources} list</text><line style="stroke:#000000;stroke-width:1.0;stroke-dasharray:2.0,2.0;" x1="10" x2="399.5" y1="357.2891" y2="357.2891"/><text fill="#000000" font-family="sans-serif" font-size="11" font-weight="bold" lengthAdjust="spacing" textLength="133" x="15" y="368.708">[no resources available]</text><polygon fill="#181818" points="75.5,390.4766,65.5,394.4766,75.5,398.4766,71.5,394.4766" style="stroke:#181818;stroke-width:1.0;"/><line style="stroke:#181818;stroke-width:1.0;stroke-dasharray:2.0,2.0;" x1="69.5" x2="335.5" y1="394.4766" y2="394.4766"/><text fill="#000000" font-family="sans-serif" font-size="13" font-weight="bold" lengthAdjust="spacing" textLength="7" x="81.5" y="389.6201">7</text><text fill="#000000" font-family="sans-serif" font-size="13" lengthAdjust="spacing" textLength="232" x="92.5" y="389.6201">display no filtered {Resources} message</text><!--SRC=[ZP7FIiGm4CRlynH3JteeNZn9AOYwTC6JInzWjXqrD6r2Ph9Gn7StQGMBxeAtyENxVlEFehefZaSE88EPF0KQqLCtq1iVTBQCWJi5KAFf_Mn4SMUiSk0UFrvON0mTooS0TUe25grmA904MwognwSzPg6k8O7LTCRJf5WqJhnHieknIKQPHNd4guVRw-JDB7CYPMm1MYnhREuGxsKGL8Ssz_1wgOSrr-HSLPOvkERU6MFg90E4RHffaLRCfiXX-PDVd_ycuObiPDa0zvEFUdFP26Jrfq9ln5kQpuwt30viXN5owIhVEjA9ZAMZvR-Ov3jB6baatHTwtcoCfnwsIjhz5m00]--></g></svg>