<?xml version="1.0" encoding="us-ascii" standalone="no"?><svg xmlns="http://www.w3.org/2000/svg" xmlns:xlink="http://www.w3.org/1999/xlink" contentStyleType="text/css" height="3250px" preserveAspectRatio="none" style="width:653px;height:3250px;background:#FFFFFF;" version="1.1" viewBox="0 0 653 3250" width="653px" zoomAndPan="magnify"><defs/><g><text fill="#000000" font-family="sans-serif" font-size="14" font-weight="bold" lengthAdjust="spacing" textLength="127" x="256.381" y="24.5332">Use Case Diagram</text><!--entity adm--><g id="elem_adm"><ellipse cx="70.5" cy="2434.6094" fill="#F1F1F1" rx="8" ry="8" style="stroke:#181818;stroke-width:0.5;"/><path d="M70.5,2442.6094 L70.5,2469.6094 M57.5,2450.6094 L83.5,2450.6094 M70.5,2469.6094 L57.5,2484.6094 M70.5,2469.6094 L83.5,2484.6094 " fill="none" style="stroke:#181818;stroke-width:0.5;"/><text fill="#000000" font-family="sans-serif" font-size="14" lengthAdjust="spacing" textLength="83" x="29" y="2500.6426">Administrator</text></g><g id="elem_Register backoffice users"><ellipse cx="421.613" cy="1859.932" fill="#F1F1F1" rx="99.613" ry="22.3226" style="stroke:#181818;stroke-width:0.5;"/><text fill="#000000" font-family="sans-serif" font-size="14" lengthAdjust="spacing" textLength="160" x="341.613" y="1863.6605">Register backoffice users</text></g><g id="elem_Register patients"><ellipse cx="421.6203" cy="1935.9334" fill="#F1F1F1" rx="77.1203" ry="17.8241" style="stroke:#181818;stroke-width:0.5;"/><text fill="#000000" font-family="sans-serif" font-size="14" lengthAdjust="spacing" textLength="107" x="365.7783" y="1940.295">Register patients</text></g><g id="elem_Edit a patients profile"><ellipse cx="421.3193" cy="2009.0732" fill="#F1F1F1" rx="87.8193" ry="19.9639" style="stroke:#181818;stroke-width:0.5;"/><text fill="#000000" font-family="sans-serif" font-size="14" lengthAdjust="spacing" textLength="133" x="354.8193" y="2012.8017">Edit a patients profile</text></g><g id="elem_Delete patients profile"><ellipse cx="421.4659" cy="2085.0025" fill="#F1F1F1" rx="89.9659" ry="20.3932" style="stroke:#181818;stroke-width:0.5;"/><text fill="#000000" font-family="sans-serif" font-size="14" lengthAdjust="spacing" textLength="138" x="352.4659" y="2088.7311">Delete patients profile</text></g><g id="elem_List/Search patients profiles"><ellipse cx="421.3456" cy="2164.2785" fill="#F1F1F1" rx="106.3456" ry="23.6691" style="stroke:#181818;stroke-width:0.5;"/><text fill="#000000" font-family="sans-serif" font-size="14" lengthAdjust="spacing" textLength="175" x="333.8456" y="2168.007">List/Search patients profiles</text></g><g id="elem_Register staff"><ellipse cx="421.2688" cy="2239.2631" fill="#F1F1F1" rx="68.7688" ry="16.1538" style="stroke:#181818;stroke-width:0.5;"/><text fill="#000000" font-family="sans-serif" font-size="14" lengthAdjust="spacing" textLength="84" x="376.2688" y="2243.7797">Register staff</text></g><g id="elem_Edit a staff's profile"><ellipse cx="421.3351" cy="2308.9764" fill="#F1F1F1" rx="82.3351" ry="18.867" style="stroke:#181818;stroke-width:0.5;"/><text fill="#000000" font-family="sans-serif" font-size="14" lengthAdjust="spacing" textLength="120" x="361.3351" y="2312.7049">Edit a staff's profile</text></g><g id="elem_Deactivate a staff's profile"><ellipse cx="421.4506" cy="2386.1995" fill="#F1F1F1" rx="100.9506" ry="22.5901" style="stroke:#181818;stroke-width:0.5;"/><text fill="#000000" font-family="sans-serif" font-size="14" lengthAdjust="spacing" textLength="163" x="339.9506" y="2389.928">Deactivate a staff's profile</text></g><g id="elem_List/Search staff profiles"><ellipse cx="421.5702" cy="2465.2234" fill="#F1F1F1" rx="96.0702" ry="21.614" style="stroke:#181818;stroke-width:0.5;"/><text fill="#000000" font-family="sans-serif" font-size="14" lengthAdjust="spacing" textLength="152" x="345.5702" y="2468.9519">List/Search staff profiles</text></g><g id="elem_Add new operation types"><ellipse cx="421.337" cy="2544.0768" fill="#F1F1F1" rx="97.837" ry="21.9674" style="stroke:#181818;stroke-width:0.5;"/><text fill="#000000" font-family="sans-serif" font-size="14" lengthAdjust="spacing" textLength="156" x="343.337" y="2547.8053">Add new operation types</text></g><g id="elem_Edit operation types"><ellipse cx="421.3478" cy="2620.9789" fill="#F1F1F1" rx="84.8478" ry="19.3696" style="stroke:#181818;stroke-width:0.5;"/><text fill="#000000" font-family="sans-serif" font-size="14" lengthAdjust="spacing" textLength="126" x="358.3478" y="2624.7075">Edit operation types</text></g><g id="elem_Remove operation types"><ellipse cx="421.4525" cy="2697.8999" fill="#F1F1F1" rx="96.9525" ry="21.7905" style="stroke:#181818;stroke-width:0.5;"/><text fill="#000000" font-family="sans-serif" font-size="14" lengthAdjust="spacing" textLength="154" x="344.4525" y="2701.6284">Remove operation types</text></g><g id="elem_List/Search operation types"><ellipse cx="421.4418" cy="2779.0977" fill="#F1F1F1" rx="105.4418" ry="23.4884" style="stroke:#181818;stroke-width:0.5;"/><text fill="#000000" font-family="sans-serif" font-size="14" lengthAdjust="spacing" textLength="173" x="334.9418" y="2782.8262">List/Search operation types</text></g><g id="elem_Obtain the better scheduling of a set\n of operations in a certain operation room\n in a specific day"><ellipse cx="421.4337" cy="2879.0961" fill="#F1F1F1" rx="192.9337" ry="40.9867" style="stroke:#181818;stroke-width:0.5;"/><text fill="#000000" font-family="sans-serif" font-size="14" lengthAdjust="spacing" textLength="230" x="306.4337" y="2865.2153">Obtain the better scheduling of a set</text><text fill="#000000" font-family="sans-serif" font-size="14" lengthAdjust="spacing" textLength="257" x="294.9337" y="2882.8246">of operations in a certain operation room</text><text fill="#000000" font-family="sans-serif" font-size="14" lengthAdjust="spacing" textLength="101" x="372.9337" y="2900.434">in a specific day</text></g><g id="elem_Know till till what dimension in terms\n of number of surgeries is possible\n to ask for the better solution "><ellipse cx="421.5912" cy="2996.0592" fill="#F1F1F1" rx="169.5912" ry="40.4498" style="stroke:#181818;stroke-width:0.5;"/><text fill="#000000" font-family="sans-serif" font-size="14" lengthAdjust="spacing" textLength="223" x="307.0912" y="2982.9664">Know till till what dimension in terms</text><text fill="#000000" font-family="sans-serif" font-size="14" lengthAdjust="spacing" textLength="213" x="314.0912" y="3000.5758">of number of surgeries is possible</text><text fill="#000000" font-family="sans-serif" font-size="14" lengthAdjust="spacing" textLength="177" x="330.0912" y="3018.1851">to ask for the better solution</text></g><g id="elem_Obtain a good schedule"><ellipse cx="421.63" cy="3093.1354" fill="#F1F1F1" rx="95.63" ry="21.526" style="stroke:#181818;stroke-width:0.5;"/><text fill="#000000" font-family="sans-serif" font-size="14" lengthAdjust="spacing" textLength="151" x="346.13" y="3096.8639">Obtain a good schedule</text></g><g id="elem_Identify and quantify the risks involved in the recommended solution"><ellipse cx="421.381" cy="3197.2856" fill="#F1F1F1" rx="226.381" ry="47.6762" style="stroke:#181818;stroke-width:0.5;"/><text fill="#000000" font-family="sans-serif" font-size="14" lengthAdjust="spacing" textLength="426" x="208.381" y="3201.0141">Identify and quantify the risks involved in the recommended solution</text></g><!--entity dc--><g id="elem_dc"><ellipse cx="70.5" cy="1615.6094" fill="#F1F1F1" rx="8" ry="8" style="stroke:#181818;stroke-width:0.5;"/><path d="M70.5,1623.6094 L70.5,1650.6094 M57.5,1631.6094 L83.5,1631.6094 M70.5,1650.6094 L57.5,1665.6094 M70.5,1650.6094 L83.5,1665.6094 " fill="none" style="stroke:#181818;stroke-width:0.5;"/><text fill="#000000" font-family="sans-serif" font-size="14" lengthAdjust="spacing" textLength="42" x="49.5" y="1681.6426">Doctor</text></g><g id="elem_Request an operation"><ellipse cx="421.535" cy="1523.9164" fill="#F1F1F1" rx="89.535" ry="20.307" style="stroke:#181818;stroke-width:0.5;"/><text fill="#000000" font-family="sans-serif" font-size="14" lengthAdjust="spacing" textLength="137" x="353.035" y="1527.6449">Request an operation</text></g><g id="elem_Update an operation request"><ellipse cx="421.5675" cy="1604.3229" fill="#F1F1F1" rx="109.0675" ry="24.2135" style="stroke:#181818;stroke-width:0.5;"/><text fill="#000000" font-family="sans-serif" font-size="14" lengthAdjust="spacing" textLength="181" x="331.0675" y="1608.0514">Update an operation request</text></g><g id="elem_Remove an operation request"><ellipse cx="421.2614" cy="1687.9617" fill="#F1F1F1" rx="112.2614" ry="24.8523" style="stroke:#181818;stroke-width:0.5;"/><text fill="#000000" font-family="sans-serif" font-size="14" lengthAdjust="spacing" textLength="188" x="327.2614" y="1691.6902">Remove an operation request</text></g><g id="elem_List/Search all operation requests"><ellipse cx="421.3414" cy="1775.1777" fill="#F1F1F1" rx="123.3414" ry="27.0683" style="stroke:#181818;stroke-width:0.5;"/><text fill="#000000" font-family="sans-serif" font-size="14" lengthAdjust="spacing" textLength="212" x="315.3414" y="1778.9062">List/Search all operation requests</text></g><!--entity sm--><g id="elem_sm"><ellipse cx="70.5" cy="1260.6094" fill="#F1F1F1" rx="8" ry="8" style="stroke:#181818;stroke-width:0.5;"/><path d="M70.5,1268.6094 L70.5,1295.6094 M57.5,1276.6094 L83.5,1276.6094 M70.5,1295.6094 L57.5,1310.6094 M70.5,1295.6094 L83.5,1310.6094 " fill="none" style="stroke:#181818;stroke-width:0.5;"/><text fill="#000000" font-family="sans-serif" font-size="14" lengthAdjust="spacing" textLength="80" x="30.5" y="1326.6426">StaffMember</text></g><g id="elem_Visualize the 3D representation\n of the hospital/clinic floor"><ellipse cx="421.4814" cy="1130.0057" fill="#F1F1F1" rx="139.9814" ry="30.3963" style="stroke:#181818;stroke-width:0.5;"/><text fill="#000000" font-family="sans-serif" font-size="14" lengthAdjust="spacing" textLength="197" x="319.9814" y="1125.7176">Visualize the 3D representation</text><text fill="#000000" font-family="sans-serif" font-size="14" lengthAdjust="spacing" textLength="156" x="342.4814" y="1143.327">of the hospital/clinic floor</text></g><g id="elem_See the appropriate textures\n mapped onto the floor, walls,\n and so on "><ellipse cx="421.3" cy="1235.9645" fill="#F1F1F1" rx="142.3" ry="40.3551" style="stroke:#181818;stroke-width:0.5;"/><text fill="#000000" font-family="sans-serif" font-size="14" lengthAdjust="spacing" textLength="180" x="331.3" y="1222.0836">See the appropriate textures</text><text fill="#000000" font-family="sans-serif" font-size="14" lengthAdjust="spacing" textLength="181" x="332.8" y="1239.693">mapped onto the floor, walls,</text><text fill="#000000" font-family="sans-serif" font-size="14" lengthAdjust="spacing" textLength="63" x="389.8" y="1257.3024">and so on</text></g><g id="elem_See the hospital/clinic floor iluminated\n with ambient and direction light"><ellipse cx="421.4877" cy="1345.1069" fill="#F1F1F1" rx="155.4877" ry="33.4975" style="stroke:#181818;stroke-width:0.5;"/><text fill="#000000" font-family="sans-serif" font-size="14" lengthAdjust="spacing" textLength="237" x="302.9877" y="1340.0307">See the hospital/clinic floor iluminated</text><text fill="#000000" font-family="sans-serif" font-size="14" lengthAdjust="spacing" textLength="194" x="326.4877" y="1357.6401">with ambient and direction light</text></g><g id="elem_Control the camera with the mouse"><ellipse cx="421.6055" cy="1441.3305" fill="#F1F1F1" rx="126.6055" ry="27.7211" style="stroke:#181818;stroke-width:0.5;"/><text fill="#000000" font-family="sans-serif" font-size="14" lengthAdjust="spacing" textLength="219" x="312.1055" y="1445.059">Control the camera with the mouse</text></g><!--entity pt--><g id="elem_pt"><ellipse cx="70.5" cy="843.6094" fill="#F1F1F1" rx="8" ry="8" style="stroke:#181818;stroke-width:0.5;"/><path d="M70.5,851.6094 L70.5,878.6094 M57.5,859.6094 L83.5,859.6094 M70.5,878.6094 L57.5,893.6094 M70.5,878.6094 L83.5,893.6094 " fill="none" style="stroke:#181818;stroke-width:0.5;"/><text fill="#000000" font-family="sans-serif" font-size="14" lengthAdjust="spacing" textLength="44" x="48.5" y="909.6426">Patient</text></g><g id="elem_Register into the healthcare application"><ellipse cx="421.2783" cy="751.965" fill="#F1F1F1" rx="139.7783" ry="30.3557" style="stroke:#181818;stroke-width:0.5;"/><text fill="#000000" font-family="sans-serif" font-size="14" lengthAdjust="spacing" textLength="247" x="297.7783" y="755.6936">Register into the healthcare application</text></g><g id="elem_Update their profile"><ellipse cx="421.3351" cy="836.9764" fill="#F1F1F1" rx="82.3351" ry="18.867" style="stroke:#181818;stroke-width:0.5;"/><text fill="#000000" font-family="sans-serif" font-size="14" lengthAdjust="spacing" textLength="120" x="361.3351" y="840.7049">Update their profile</text></g><g id="elem_Delete their profile"><ellipse cx="421.6887" cy="910.1471" fill="#F1F1F1" rx="80.6887" ry="18.5377" style="stroke:#181818;stroke-width:0.5;"/><text fill="#000000" font-family="sans-serif" font-size="14" lengthAdjust="spacing" textLength="116" x="363.0015" y="914.0754">Delete their profile</text></g><g id="elem_Log in"><ellipse cx="421.5624" cy="979.0611" fill="#F1F1F1" rx="39.0624" ry="15.4517" style="stroke:#181818;stroke-width:0.5;"/><text fill="#000000" font-family="sans-serif" font-size="14" lengthAdjust="spacing" textLength="39" x="402.0624" y="982.7896">Log in</text></g><!--entity bu--><g id="elem_bu"><ellipse cx="70.5" cy="986.6094" fill="#F1F1F1" rx="8" ry="8" style="stroke:#181818;stroke-width:0.5;"/><path d="M70.5,994.6094 L70.5,1021.6094 M57.5,1002.6094 L83.5,1002.6094 M70.5,1021.6094 L57.5,1036.6094 M70.5,1021.6094 L83.5,1036.6094 " fill="none" style="stroke:#181818;stroke-width:0.5;"/><text fill="#000000" font-family="sans-serif" font-size="14" lengthAdjust="spacing" textLength="94" x="23.5" y="1052.6426">BackofficeUser</text></g><g id="elem_Reset password"><ellipse cx="421.3525" cy="1046.9799" fill="#F1F1F1" rx="74.8525" ry="17.3705" style="stroke:#181818;stroke-width:0.5;"/><text fill="#000000" font-family="sans-serif" font-size="14" lengthAdjust="spacing" textLength="101" x="367.8525" y="1051.4965">Reset password</text></g><!--entity sa--><g id="elem_sa"><ellipse cx="70.5" cy="319.6094" fill="#F1F1F1" rx="8" ry="8" style="stroke:#181818;stroke-width:0.5;"/><path d="M70.5,327.6094 L70.5,354.6094 M57.5,335.6094 L83.5,335.6094 M70.5,354.6094 L57.5,369.6094 M70.5,354.6094 L83.5,369.6094 " fill="none" style="stroke:#181818;stroke-width:0.5;"/><text fill="#000000" font-family="sans-serif" font-size="14" lengthAdjust="spacing" textLength="129" x="6" y="385.6426">SystemAdministrator</text></g><g id="elem_Deploy one of the RFP modules in a DEI VM"><ellipse cx="421.5357" cy="77.9165" fill="#F1F1F1" rx="154.5357" ry="33.3071" style="stroke:#181818;stroke-width:0.5;"/><text fill="#000000" font-family="sans-serif" font-size="14" lengthAdjust="spacing" textLength="278" x="282.5357" y="81.645">Deploy one of the RFP modules in a DEI VM</text></g><g id="elem_Make only the clients on the DEI internal network\n to be able to access the solution"><ellipse cx="421.2505" cy="185.9595" fill="#F1F1F1" rx="184.7505" ry="39.3501" style="stroke:#181818;stroke-width:0.5;"/><text fill="#000000" font-family="sans-serif" font-size="14" lengthAdjust="spacing" textLength="306" x="268.2505" y="180.8833">Make only the clients on the DEI internal network</text><text fill="#000000" font-family="sans-serif" font-size="14" lengthAdjust="spacing" textLength="204" x="321.2505" y="198.4927">to be able to access the solution</text></g><g id="elem_Make the clients that were listed previously\n defined by changing a text file"><ellipse cx="421.3086" cy="297.2711" fill="#F1F1F1" rx="168.8086" ry="36.1617" style="stroke:#181818;stroke-width:0.5;"/><text fill="#000000" font-family="sans-serif" font-size="14" lengthAdjust="spacing" textLength="269" x="286.8086" y="292.1949">Make the clients that were listed previously</text><text fill="#000000" font-family="sans-serif" font-size="14" lengthAdjust="spacing" textLength="188" x="329.3086" y="309.8043">defined by changing a text file</text></g><g id="elem_Define the MBCO to propose to stakeholders"><ellipse cx="421.4296" cy="401.8953" fill="#F1F1F1" rx="156.9296" ry="33.7859" style="stroke:#181818;stroke-width:0.5;"/><text fill="#000000" font-family="sans-serif" font-size="14" lengthAdjust="spacing" textLength="283" x="279.9296" y="405.6238">Define the MBCO to propose to stakeholders</text></g><g id="elem_Define a public folder for all users registered on the system,\n where they can read whatever is places there"><ellipse cx="421.5452" cy="517.2184" fill="#F1F1F1" rx="216.0452" ry="45.609" style="stroke:#181818;stroke-width:0.5;"/><text fill="#000000" font-family="sans-serif" font-size="14" lengthAdjust="spacing" textLength="376" x="233.5452" y="512.1422">Define a public folder for all users registered on the system,</text><text fill="#000000" font-family="sans-serif" font-size="14" lengthAdjust="spacing" textLength="286" x="280.5452" y="529.7516">where they can read whatever is places there</text></g><g id="elem_Get all the users with more than 3 incorrect accesses attempts"><ellipse cx="421.7415" cy="641.9577" fill="#F1F1F1" rx="209.7415" ry="44.3483" style="stroke:#181818;stroke-width:0.5;"/><text fill="#000000" font-family="sans-serif" font-size="14" lengthAdjust="spacing" textLength="392" x="225.7415" y="645.6862">Get all the users with more than 3 incorrect accesses attempts</text></g><!--link adm to Register backoffice users--><g id="link_adm_Register backoffice users"><path d="M74.55,2425.7594 C84.35,2310.0694 118.9,1974.5394 195,1901.1094 C229,1868.2994 273.9898,1857.4523 318.8798,1854.8823 " fill="none" id="adm-to-Register backoffice users" style="stroke:#181818;stroke-width:1.0;"/><polygon fill="#181818" points="324.87,1854.5394,315.6561,1851.0603,319.8782,1854.8252,316.1133,1859.0473,324.87,1854.5394" style="stroke:#181818;stroke-width:1.0;"/></g><!--link adm to Register patients--><g id="link_adm_Register patients"><path d="M75.81,2425.7694 C88.2,2320.1294 127.43,2034.0294 195,1972.1094 C236.65,1933.9394 295.8026,1926.934 345.3926,1928.384 " fill="none" id="adm-to-Register patients" style="stroke:#181818;stroke-width:1.0;"/><polygon fill="#181818" points="351.39,1928.5594,342.5108,1924.298,346.3921,1928.4132,342.2769,1932.2946,351.39,1928.5594" style="stroke:#181818;stroke-width:1.0;"/></g><!--link adm to Edit a patients profile--><g id="link_adm_Edit a patients profile"><path d="M77.68,2426.0194 C93.33,2332.1894 137.38,2098.1794 195,2047.1094 C233.47,2013.0094 284.7311,2003.7925 331.9211,2002.9025 " fill="none" id="adm-to-Edit a patients profile" style="stroke:#181818;stroke-width:1.0;"/><polygon fill="#181818" points="337.92,2002.7894,328.8462,1998.9598,332.9209,2002.8837,328.997,2006.9584,337.92,2002.7894" style="stroke:#181818;stroke-width:1.0;"/></g><!--link adm to Delete patients profile--><g id="link_adm_Delete patients profile"><path d="M73.37,2425.9594 C79.07,2353.9194 102.08,2200.6794 195,2123.1094 C233.33,2091.1194 282.4137,2081.59 328.5437,2079.97 " fill="none" id="adm-to-Delete patients profile" style="stroke:#181818;stroke-width:1.0;"/><polygon fill="#181818" points="334.54,2079.7594,325.4052,2076.0777,329.5431,2079.9349,325.6859,2084.0728,334.54,2079.7594" style="stroke:#181818;stroke-width:1.0;"/></g><!--link adm to List/Search patients profiles--><g id="link_adm_List/Search patients profiles"><path d="M78.57,2426.0694 C91.19,2368.3594 123.3,2261.1894 195,2206.1094 C228.87,2180.0894 267.9788,2169.1808 308.9188,2164.5008 " fill="none" id="adm-to-List/Search patients profiles" style="stroke:#181818;stroke-width:1.0;"/><polygon fill="#181818" points="314.88,2163.8194,305.4839,2160.8674,309.9124,2164.3872,306.3925,2168.8157,314.88,2163.8194" style="stroke:#181818;stroke-width:1.0;"/></g><!--link adm to Register staff--><g id="link_adm_Register staff"><path d="M85.27,2425.8694 C103.17,2381.0994 138.94,2309.3994 195,2273.1094 C242.28,2242.5094 300.6401,2235.452 348.5001,2235.192 " fill="none" id="adm-to-Register staff" style="stroke:#181818;stroke-width:1.0;"/><polygon fill="#181818" points="354.5,2235.1594,345.4784,2231.2083,349.5001,2235.1865,345.5219,2239.2082,354.5,2235.1594" style="stroke:#181818;stroke-width:1.0;"/></g><!--link adm to Edit a staff's profile--><g id="link_adm_Edit a staff's profile"><path d="M101.15,2426.0294 C123.82,2399.1094 157.47,2364.9294 195,2346.1094 C239.51,2323.7994 288.5907,2314.967 333.1707,2311.257 " fill="none" id="adm-to-Edit a staff's profile" style="stroke:#181818;stroke-width:1.0;"/><polygon fill="#181818" points="339.15,2310.7594,329.8493,2307.5196,334.1672,2311.174,330.5127,2315.492,339.15,2310.7594" style="stroke:#181818;stroke-width:1.0;"/></g><!--link adm to Deactivate a staff's profile--><g id="link_adm_Deactivate a staff's profile"><path d="M112.01,2450.8494 C135.93,2442.7994 166.94,2432.9994 195,2426.1094 C241.34,2414.7394 287.8568,2406.1963 330.5068,2399.3063 " fill="none" id="adm-to-Deactivate a staff's profile" style="stroke:#181818;stroke-width:1.0;"/><polygon fill="#181818" points="336.43,2398.3494,326.9073,2395.8359,331.494,2399.1468,328.1831,2403.7335,336.43,2398.3494" style="stroke:#181818;stroke-width:1.0;"/></g><!--link adm to List/Search staff profiles--><g id="link_adm_List/Search staff profiles"><path d="M112.22,2465.1094 C164.09,2465.1094 249.39,2465.1094 319.21,2465.1094 " fill="none" id="adm-to-List/Search staff profiles" style="stroke:#181818;stroke-width:1.0;"/><polygon fill="#181818" points="325.21,2465.1094,316.21,2461.1094,320.21,2465.1094,316.21,2469.1094,325.21,2465.1094" style="stroke:#181818;stroke-width:1.0;"/></g><!--link adm to Add new operation types--><g id="link_adm_Add new operation types"><path d="M112.01,2479.3694 C135.93,2487.4194 166.94,2497.2194 195,2504.1094 C242.21,2515.6994 289.8258,2524.3887 332.8858,2531.2987 " fill="none" id="adm-to-Add new operation types" style="stroke:#181818;stroke-width:1.0;"/><polygon fill="#181818" points="338.81,2532.2494,330.5575,2526.8739,333.8732,2531.4571,329.2899,2534.7728,338.81,2532.2494" style="stroke:#181818;stroke-width:1.0;"/></g><!--link adm to Edit operation types--><g id="link_adm_Edit operation types"><path d="M101.15,2504.1894 C123.82,2531.1094 157.47,2565.2894 195,2584.1094 C238.71,2606.0194 286.6227,2614.888 330.7627,2618.738 " fill="none" id="adm-to-Edit operation types" style="stroke:#181818;stroke-width:1.0;"/><polygon fill="#181818" points="336.74,2619.2594,328.1216,2614.4925,331.7589,2618.8249,327.4265,2622.4622,336.74,2619.2594" style="stroke:#181818;stroke-width:1.0;"/></g><!--link adm to Remove operation types--><g id="link_adm_Remove operation types"><path d="M85.38,2504.2994 C103.39,2549.0594 139.25,2620.8994 195,2658.1094 C232.78,2683.3294 275.7875,2693.4251 318.4275,2697.5251 " fill="none" id="adm-to-Remove operation types" style="stroke:#181818;stroke-width:1.0;"/><polygon fill="#181818" points="324.4,2698.0994,315.8242,2693.2563,319.423,2697.6208,315.0585,2701.2196,324.4,2698.0994" style="stroke:#181818;stroke-width:1.0;"/></g><!--link adm to List/Search operation types--><g id="link_adm_List/Search operation types"><path d="M77.5,2504.2594 C88.93,2564.5694 119.76,2679.3594 195,2738.1094 C229.03,2764.6794 268.7526,2775.4645 310.1026,2779.7945 " fill="none" id="adm-to-List/Search operation types" style="stroke:#181818;stroke-width:1.0;"/><polygon fill="#181818" points="316.07,2780.4194,307.5355,2775.5038,311.0972,2779.8986,306.7024,2783.4603,316.07,2780.4194" style="stroke:#181818;stroke-width:1.0;"/></g><!--link adm to Obtain the better scheduling of a set\n of operations in a certain operation room\n in a specific day--><g id="link_adm_Obtain the better scheduling of a set\n of operations in a certain operation room\n in a specific day"><path d="M73.52,2504.3494 C79.46,2577.4994 102.86,2734.9694 195,2820.1094 C212.83,2836.5894 229.0783,2846.4561 252.0983,2855.1661 " fill="none" id="adm-to-Obtain the better scheduling of a set\n of operations in a certain operation room\n in a specific day" style="stroke:#181818;stroke-width:1.0;"/><polygon fill="#181818" points="257.71,2857.2894,250.7079,2850.3633,253.0336,2855.52,247.8769,2857.8456,257.71,2857.2894" style="stroke:#181818;stroke-width:1.0;"/></g><!--link adm to Know till till what dimension in terms\n of number of surgeries is possible\n to ask for the better solution --><g id="link_adm_Know till till what dimension in terms\n of number of surgeries is possible\n to ask for the better solution "><path d="M76.6,2504.3894 C90.64,2606.4194 132.92,2876.2594 195,2938.1094 C214.54,2957.5794 234.0048,2968.8813 260.3848,2977.7813 " fill="none" id="adm-to-Know till till what dimension in terms\n of number of surgeries is possible\n to ask for the better solution " style="stroke:#181818;stroke-width:1.0;"/><polygon fill="#181818" points="266.07,2979.6994,258.8209,2973.0322,261.3324,2978.101,256.2636,2980.6124,266.07,2979.6994" style="stroke:#181818;stroke-width:1.0;"/></g><!--link adm to Obtain a good schedule--><g id="link_adm_Obtain a good schedule"><path d="M74.13,2504.5094 C82.91,2623.7394 115.31,2977.1994 195,3054.1094 C230.52,3088.3894 278.6828,3098.3969 325.0228,3099.8069 " fill="none" id="adm-to-Obtain a good schedule" style="stroke:#181818;stroke-width:1.0;"/><polygon fill="#181818" points="331.02,3099.9894,322.1458,3095.7175,326.0223,3099.8373,321.9025,3103.7138,331.02,3099.9894" style="stroke:#181818;stroke-width:1.0;"/></g><!--link adm to Identify and quantify the risks involved in the recommended solution--><g id="link_adm_Identify and quantify the risks involved in the recommended solution"><path d="M73.47,2504.1894 C80.72,2632.5594 110.05,3038.4394 195,3132.1094 C208.55,3147.0494 219.9099,3155.9833 238.0999,3164.9633 " fill="none" id="adm-to-Identify and quantify the risks involved in the recommended solution" style="stroke:#181818;stroke-width:1.0;"/><polygon fill="#181818" points="243.48,3167.6194,237.1805,3160.0486,238.9966,3165.406,233.6392,3167.2221,243.48,3167.6194" style="stroke:#181818;stroke-width:1.0;"/></g><!--link dc to Request an operation--><g id="link_dc_Request an operation"><path d="M91.8,1628.4694 C115.09,1609.2294 155.2,1579.0794 195,1563.1094 C239.71,1545.1694 286.6934,1536.1994 330.0434,1530.9594 " fill="none" id="dc-to-Request an operation" style="stroke:#181818;stroke-width:1.0;"/><polygon fill="#181818" points="336,1530.2394,326.585,1527.3483,331.0361,1530.8394,327.5451,1535.2905,336,1530.2394" style="stroke:#181818;stroke-width:1.0;"/></g><!--link dc to Update an operation request--><g id="link_dc_Update an operation request"><path d="M91.52,1643.6994 C135.91,1638.3594 239.093,1625.9361 319.543,1616.2561 " fill="none" id="dc-to-Update an operation request" style="stroke:#181818;stroke-width:1.0;"/><polygon fill="#181818" points="325.5,1615.5394,316.0866,1612.6432,320.5358,1616.1367,317.0423,1620.5859,325.5,1615.5394" style="stroke:#181818;stroke-width:1.0;"/></g><!--link dc to Remove an operation request--><g id="link_dc_Remove an operation request"><path d="M91.52,1648.5194 C135.33,1653.7894 236.253,1665.932 316.383,1675.582 " fill="none" id="dc-to-Remove an operation request" style="stroke:#181818;stroke-width:1.0;"/><polygon fill="#181818" points="322.34,1676.2994,313.8828,1671.252,317.3759,1675.7015,312.9263,1679.1946,322.34,1676.2994" style="stroke:#181818;stroke-width:1.0;"/></g><!--link dc to List/Search all operation requests--><g id="link_dc_List/Search all operation requests"><path d="M91.79,1664.0294 C115.06,1683.5994 155.17,1714.3694 195,1731.1094 C231.31,1746.3694 267.259,1755.3695 304.969,1761.9395 " fill="none" id="dc-to-List/Search all operation requests" style="stroke:#181818;stroke-width:1.0;"/><polygon fill="#181818" points="310.88,1762.9694,302.7001,1757.484,305.9542,1762.1112,301.327,1765.3653,310.88,1762.9694" style="stroke:#181818;stroke-width:1.0;"/></g><!--link sm to Visualize the 3D representation\n of the hospital/clinic floor--><g id="link_sm_Visualize the 3D representation\n of the hospital/clinic floor"><path d="M104.05,1252.0994 C126.96,1227.1894 159.73,1196.2694 195,1178.1094 C226.32,1161.9894 256.8747,1152.4962 291.2047,1145.3862 " fill="none" id="sm-to-Visualize the 3D representation\n of the hospital/clinic floor" style="stroke:#181818;stroke-width:1.0;"/><polygon fill="#181818" points="297.08,1144.1694,287.4558,1142.0777,292.1839,1145.1834,289.0782,1149.9115,297.08,1144.1694" style="stroke:#181818;stroke-width:1.0;"/></g><!--link sm to See the appropriate textures\n mapped onto the floor, walls,\n and so on --><g id="link_sm_See the appropriate textures\n mapped onto the floor, walls,\n and so on "><path d="M110.52,1284.9594 C155.34,1277.8994 225.2132,1266.8836 290.6232,1256.5736 " fill="none" id="sm-to-See the appropriate textures\n mapped onto the floor, walls,\n and so on " style="stroke:#181818;stroke-width:1.0;"/><polygon fill="#181818" points="296.55,1255.6394,287.037,1253.0894,291.611,1256.4179,288.2826,1260.9919,296.55,1255.6394" style="stroke:#181818;stroke-width:1.0;"/></g><!--link sm to See the hospital/clinic floor iluminated\n with ambient and direction light--><g id="link_sm_See the hospital/clinic floor iluminated\n with ambient and direction light"><path d="M110.52,1297.1494 C154.9,1304.0094 223.7005,1314.6622 288.6705,1324.7122 " fill="none" id="sm-to-See the hospital/clinic floor iluminated\n with ambient and direction light" style="stroke:#181818;stroke-width:1.0;"/><polygon fill="#181818" points="294.6,1325.6294,286.3173,1320.3006,289.6588,1324.865,285.0943,1328.2065,294.6,1325.6294" style="stroke:#181818;stroke-width:1.0;"/></g><!--link sm to Control the camera with the mouse--><g id="link_sm_Control the camera with the mouse"><path d="M107.34,1330.2794 C130.25,1352.9294 161.82,1380.0494 195,1396.1094 C229.23,1412.6794 263.2952,1422.0746 300.0052,1428.6946 " fill="none" id="sm-to-Control the camera with the mouse" style="stroke:#181818;stroke-width:1.0;"/><polygon fill="#181818" points="305.91,1429.7594,297.7627,1424.2256,300.9894,1428.872,296.343,1432.0987,305.91,1429.7594" style="stroke:#181818;stroke-width:1.0;"/></g><!--link pt to Register into the healthcare application--><g id="link_pt_Register into the healthcare application"><path d="M92.72,858.6894 C116.5,842.1094 156.74,816.1194 195,801.1094 C230.15,787.3194 264.1034,778.25 300.4134,770.77 " fill="none" id="pt-to-Register into the healthcare application" style="stroke:#181818;stroke-width:1.0;"/><polygon fill="#181818" points="306.29,769.5594,296.668,767.4575,301.3928,770.5682,298.2822,775.293,306.29,769.5594" style="stroke:#181818;stroke-width:1.0;"/></g><!--link pt to Update their profile--><g id="link_pt_Update their profile"><path d="M92.55,871.8794 C141.62,866.6794 259.6234,854.1617 340.3034,845.6117 " fill="none" id="pt-to-Update their profile" style="stroke:#181818;stroke-width:1.0;"/><polygon fill="#181818" points="346.27,844.9794,336.8986,841.9501,341.2978,845.5063,337.7417,849.9056,346.27,844.9794" style="stroke:#181818;stroke-width:1.0;"/></g><!--link pt to Delete their profile--><g id="link_pt_Delete their profile"><path d="M92.55,876.2794 C141.91,881.3694 261.1117,893.6636 341.7517,901.9836 " fill="none" id="pt-to-Delete their profile" style="stroke:#181818;stroke-width:1.0;"/><polygon fill="#181818" points="347.72,902.5994,339.178,897.6968,342.7464,902.0862,338.357,905.6546,347.72,902.5994" style="stroke:#181818;stroke-width:1.0;"/></g><!--link pt to Log in--><g id="link_pt_Log in"><path d="M92.57,889.8094 C116.22,906.5894 156.35,932.5894 195,946.1094 C258.3,968.2594 330.6483,975.2247 376.3483,977.6247 " fill="none" id="pt-to-Log in" style="stroke:#181818;stroke-width:1.0;"/><polygon fill="#181818" points="382.34,977.9394,373.5622,973.4729,377.3469,977.6772,373.1426,981.4619,382.34,977.9394" style="stroke:#181818;stroke-width:1.0;"/></g><!--link bu to Log in--><g id="link_bu_Log in"><path d="M117.84,1012.0594 C188.03,1004.4194 313.8753,990.7192 377.8553,983.7492 " fill="none" id="bu-to-Log in" style="stroke:#181818;stroke-width:1.0;"/><polygon fill="#181818" points="383.82,983.0994,374.4397,980.0976,378.8494,983.6409,375.3061,988.0505,383.82,983.0994" style="stroke:#181818;stroke-width:1.0;"/></g><!--link bu to Reset password--><g id="link_bu_Reset password"><path d="M117.84,1021.0894 C177.46,1026.2194 275.562,1034.6562 344.762,1040.5962 " fill="none" id="bu-to-Reset password" style="stroke:#181818;stroke-width:1.0;"/><polygon fill="#181818" points="350.74,1041.1094,342.1151,1036.3543,345.7583,1040.6818,341.4309,1044.325,350.74,1041.1094" style="stroke:#181818;stroke-width:1.0;"/></g><!--link sa to Deploy one of the RFP modules in a DEI VM--><g id="link_sa_Deploy one of the RFP modules in a DEI VM"><path d="M82.54,310.6994 C98.7,260.5394 133.74,174.8894 195,129.1094 C219.43,110.8494 243.4315,100.4331 273.2515,92.7131 " fill="none" id="sa-to-Deploy one of the RFP modules in a DEI VM" style="stroke:#181818;stroke-width:1.0;"/><polygon fill="#181818" points="279.06,91.2094,269.3447,89.5927,274.2196,92.4625,271.3497,97.3373,279.06,91.2094" style="stroke:#181818;stroke-width:1.0;"/></g><!--link sa to Make only the clients on the DEI internal network\n to be able to access the solution--><g id="link_sa_Make only the clients on the DEI internal network\n to be able to access the solution"><path d="M107.25,311.0394 C130.24,288.1194 161.92,260.3594 195,243.1094 C220.78,229.6594 244.1122,220.8869 272.6522,212.8969 " fill="none" id="sa-to-Make only the clients on the DEI internal network\n to be able to access the solution" style="stroke:#181818;stroke-width:1.0;"/><polygon fill="#181818" points="278.43,211.2794,268.6849,209.8538,273.6151,212.6273,270.8416,217.5576,278.43,211.2794" style="stroke:#181818;stroke-width:1.0;"/></g><!--link sa to Make the clients that were listed previously\n defined by changing a text file--><g id="link_sa_Make the clients that were listed previously\n defined by changing a text file"><path d="M135.11,340.4494 C176.49,334.1694 226.158,326.6199 277.278,318.8599 " fill="none" id="sa-to-Make the clients that were listed previously\n defined by changing a text file" style="stroke:#181818;stroke-width:1.0;"/><polygon fill="#181818" points="283.21,317.9594,273.7116,315.3554,278.2666,318.7098,274.9123,323.2648,283.21,317.9594" style="stroke:#181818;stroke-width:1.0;"/></g><!--link sa to Define the MBCO to propose to stakeholders--><g id="link_sa_Define the MBCO to propose to stakeholders"><path d="M135.11,359.5894 C178.75,366.0894 232.2756,374.0649 285.6156,382.0149 " fill="none" id="sa-to-Define the MBCO to propose to stakeholders" style="stroke:#181818;stroke-width:1.0;"/><polygon fill="#181818" points="291.55,382.8994,283.238,377.6163,286.6046,382.1623,282.0587,385.5289,291.55,382.8994" style="stroke:#181818;stroke-width:1.0;"/></g><!--link sa to Define a public folder for all users registered on the system,\n where they can read whatever is places there--><g id="link_sa_Define a public folder for all users registered on the system,\n where they can read whatever is places there"><path d="M109.82,389.3494 C132.77,410.8694 163.52,436.4894 195,453.1094 C218.66,465.5994 239.3281,474.0624 265.4781,482.4724 " fill="none" id="sa-to-Define a public folder for all users registered on the system,\n where they can read whatever is places there" style="stroke:#181818;stroke-width:1.0;"/><polygon fill="#181818" points="271.19,484.3094,263.8468,477.746,266.4301,482.7786,261.3975,485.3618,271.19,484.3094" style="stroke:#181818;stroke-width:1.0;"/></g><!--link sa to Get all the users with more than 3 incorrect accesses attempts--><g id="link_sa_Get all the users with more than 3 incorrect accesses attempts"><path d="M82.01,389.3194 C97.85,440.8294 132.81,530.5194 195,580.1094 C213.33,594.7294 229.2649,603.7686 251.6249,612.3086 " fill="none" id="sa-to-Get all the users with more than 3 incorrect accesses attempts" style="stroke:#181818;stroke-width:1.0;"/><polygon fill="#181818" points="257.23,614.4494,250.2495,607.5015,252.5591,612.6654,247.3952,614.975,257.23,614.4494" style="stroke:#181818;stroke-width:1.0;"/></g><!--SRC=[VLN1Zjiu3BtxAtZR3T2YXzuBj9FkejWEMioWFUs5bkXOY6ovafmq-_NxACUEPvAPYs5BrDFZ8_cSNVP2FvBG7UEnTRoBt5MLboPJ3XJThiraNHIJNUYhgcAJGwIFjdEzIpcoVd4YjZY51xrz-u7-V90TDYLIpMOVciOPeJ59J9iRCGDd9trUxtssBXClEpJ4q3WlguYjUCdoMiHNeBzx58wclGgxoIDbRffh4cNvZziS88OxC7Yy5hOcKg9kiVXeBVLof308D8NKb4-3N6doylQ3TE4WhmIiQRmSzQtExB3S2jMIYooc5Jjwr-yeD9gev7zxVLr04k44av5Opbx0OmWTOijk6iGuD09PFgtk-wSFHyhE- -bnR5dRhPC-AO0oaTYbwS9-x6eGmbiQuqwY4zmCnKDAhlQ287GifpqrwCbr1i6FXSzrdaox4EoSuxfgNomQnZKdujxIhv6d3qMDBkqrvKFm1x5qLWiJ4ZhmjbYQBzpCux8DvZmdrbILDNF9VesIq6ChpJRBxe_1bivw8kXqOhE2A5L_FMXTUOR8Lw5f8Vge_NalHMUmJHZgT1RafqiZU_UVb7JVRt5uY9AWKi6QIgHRRKY3o-pV6JGD2jxu4E9cmNcK2O47ZC4GdIQPvNSU0GQG3kkGCFIefOQLqs_e2EBf3VQr72bGgUPpo9ita_CZp0hNM1m_kWmHkbhje60jtaPUlUu2UWSACVW2RBY3PDDX_Uu2t6mHxVlaBYhOaAjgoC-CnSsvjC8-juPZoTuxSoxvVE9SSeIwU36IUVTiUI_iVWqxNBHm-hGOByozrB8UgweUdmRFtm-eOuPBfdGCqLwwuGJ-tPNN9qPNy4ngyE64SiXS_eU_laCVdQQpBsm_Vw6Vzvlbo3tl4TpxQPfGgkBCOHeZ3OPU4dlsCCGCFljfi6k8XYalCswCf5JYBwFs17wDdDLJZWBHlTR3GZivE5JGdu1ifN4z5kiJcPRxdVeSbuQaIU1BfXfOaEy_tNrJ7jh08HLACFQzjC7RyfDxTWP_ih7ssf0beFYJ3cBv9MAEfZufNJybLNJNRZ-soXjhOCSwhsoBHyf1-mhzvXbIQ41SKVqRnLHynPhkA9tRXO85dFVGs8IedNyM4o0Ci-o6OWR_0m00]--></g></svg>