<?xml version="1.0" encoding="us-ascii" standalone="no"?><svg xmlns="http://www.w3.org/2000/svg" xmlns:xlink="http://www.w3.org/1999/xlink" contentStyleType="text/css" height="706px" preserveAspectRatio="none" style="width:698px;height:706px;background:#FFFFFF;" version="1.1" viewBox="0 0 698 706" width="698px" zoomAndPan="magnify"><defs/><g><text fill="#000000" font-family="sans-serif" font-size="14" font-weight="bold" lengthAdjust="spacing" textLength="136" x="282.25" y="29.5332">Delete {Resources}</text><rect fill="#FFFFFF" height="448.0781" style="stroke:#181818;stroke-width:1.0;" width="10" x="64.5" y="148.8281"/><rect fill="#FFFFFF" height="410.7266" style="stroke:#181818;stroke-width:1.0;" width="10" x="394.5" y="171.1797"/><rect fill="#FFFFFF" height="282.3203" style="stroke:#181818;stroke-width:1.0;" width="10" x="602.5" y="262.2344"/><rect fill="none" height="312.6719" style="stroke:#000000;stroke-width:1.5;" width="681.5" x="10" y="277.2344"/><rect fill="none" height="94.8906" style="stroke:#000000;stroke-width:1.5;" width="439.5" x="20" y="332.9375"/><rect fill="none" height="94.8906" style="stroke:#000000;stroke-width:1.5;" width="342" x="339.5" y="457.6641"/><line style="stroke:#181818;stroke-width:0.5;stroke-dasharray:5.0,5.0;" x1="69" x2="69" y1="138.8281" y2="606.9063"/><line style="stroke:#181818;stroke-width:0.5;stroke-dasharray:5.0,5.0;" x1="399.5" x2="399.5" y1="138.8281" y2="606.9063"/><line style="stroke:#181818;stroke-width:0.5;stroke-dasharray:5.0,5.0;" x1="607.5" x2="607.5" y1="138.8281" y2="606.9063"/><text fill="#000000" font-family="sans-serif" font-size="14" font-style="italic" lengthAdjust="spacing" textLength="73" x="30" y="118.1426">&#171;DEI User&#187;</text><text fill="#000000" font-family="sans-serif" font-size="14" lengthAdjust="spacing" textLength="29" x="52" y="135.752">User</text><ellipse cx="69.5" cy="52.1094" fill="#E2E2F0" rx="8" ry="8" style="stroke:#181818;stroke-width:0.5;"/><path d="M69.5,60.1094 L69.5,87.1094 M56.5,68.1094 L82.5,68.1094 M69.5,87.1094 L56.5,102.1094 M69.5,87.1094 L82.5,102.1094 " fill="none" style="stroke:#181818;stroke-width:0.5;"/><text fill="#000000" font-family="sans-serif" font-size="14" font-style="italic" lengthAdjust="spacing" textLength="73" x="30" y="620.4395">&#171;DEI User&#187;</text><text fill="#000000" font-family="sans-serif" font-size="14" lengthAdjust="spacing" textLength="29" x="52" y="638.0488">User</text><ellipse cx="69.5" cy="649.625" fill="#E2E2F0" rx="8" ry="8" style="stroke:#181818;stroke-width:0.5;"/><path d="M69.5,657.625 L69.5,684.625 M56.5,665.625 L82.5,665.625 M69.5,684.625 L56.5,699.625 M69.5,684.625 L82.5,699.625 " fill="none" style="stroke:#181818;stroke-width:0.5;"/><rect fill="#E2E2F0" height="49.2188" rx="2.5" ry="2.5" style="stroke:#181818;stroke-width:0.5;" width="100" x="349.5" y="88.6094"/><text fill="#000000" font-family="sans-serif" font-size="14" font-style="italic" lengthAdjust="spacing" textLength="86" x="356.5" y="110.1426">&#171;component&#187;</text><text fill="#000000" font-family="sans-serif" font-size="14" lengthAdjust="spacing" textLength="83" x="358" y="127.752">PortalModule</text><rect fill="#E2E2F0" height="49.2188" rx="2.5" ry="2.5" style="stroke:#181818;stroke-width:0.5;" width="100" x="349.5" y="605.9063"/><text fill="#000000" font-family="sans-serif" font-size="14" font-style="italic" lengthAdjust="spacing" textLength="86" x="356.5" y="627.4395">&#171;component&#187;</text><text fill="#000000" font-family="sans-serif" font-size="14" lengthAdjust="spacing" textLength="83" x="358" y="645.0488">PortalModule</text><rect fill="#E2E2F0" height="49.2188" rx="2.5" ry="2.5" style="stroke:#181818;stroke-width:0.5;" width="128" x="543.5" y="88.6094"/><text fill="#000000" font-family="sans-serif" font-size="14" font-style="italic" lengthAdjust="spacing" textLength="86" x="564.5" y="110.1426">&#171;component&#187;</text><text fill="#000000" font-family="sans-serif" font-size="14" lengthAdjust="spacing" textLength="114" x="550.5" y="127.752">BackOfficeModule</text><rect fill="#E2E2F0" height="49.2188" rx="2.5" ry="2.5" style="stroke:#181818;stroke-width:0.5;" width="128" x="543.5" y="605.9063"/><text fill="#000000" font-family="sans-serif" font-size="14" font-style="italic" lengthAdjust="spacing" textLength="86" x="564.5" y="627.4395">&#171;component&#187;</text><text fill="#000000" font-family="sans-serif" font-size="14" lengthAdjust="spacing" textLength="114" x="550.5" y="645.0488">BackOfficeModule</text><rect fill="#FFFFFF" height="448.0781" style="stroke:#181818;stroke-width:1.0;" width="10" x="64.5" y="148.8281"/><rect fill="#FFFFFF" height="410.7266" style="stroke:#181818;stroke-width:1.0;" width="10" x="394.5" y="171.1797"/><rect fill="#FFFFFF" height="282.3203" style="stroke:#181818;stroke-width:1.0;" width="10" x="602.5" y="262.2344"/><polygon fill="#181818" points="382.5,167.1797,392.5,171.1797,382.5,175.1797,386.5,171.1797" style="stroke:#181818;stroke-width:1.0;"/><line style="stroke:#181818;stroke-width:1.0;" x1="74.5" x2="388.5" y1="171.1797" y2="171.1797"/><text fill="#000000" font-family="sans-serif" font-size="13" font-weight="bold" lengthAdjust="spacing" textLength="7" x="81.5" y="166.3232">1</text><text fill="#000000" font-family="sans-serif" font-size="13" lengthAdjust="spacing" textLength="158" x="92.5" y="166.3232">Asks to delete {Resources}</text><polygon fill="#181818" points="85.5,197.5313,75.5,201.5313,85.5,205.5313,81.5,201.5313" style="stroke:#181818;stroke-width:1.0;"/><line style="stroke:#181818;stroke-width:1.0;stroke-dasharray:2.0,2.0;" x1="79.5" x2="393.5" y1="201.5313" y2="201.5313"/><text fill="#000000" font-family="sans-serif" font-size="13" font-weight="bold" lengthAdjust="spacing" textLength="7" x="91.5" y="196.6748">2</text><text fill="#000000" font-family="sans-serif" font-size="13" lengthAdjust="spacing" textLength="285" x="102.5" y="196.6748">Asks the user to select the {Resources} to delete</text><polygon fill="#181818" points="382.5,227.8828,392.5,231.8828,382.5,235.8828,386.5,231.8828" style="stroke:#181818;stroke-width:1.0;"/><line style="stroke:#181818;stroke-width:1.0;" x1="74.5" x2="388.5" y1="231.8828" y2="231.8828"/><text fill="#000000" font-family="sans-serif" font-size="13" font-weight="bold" lengthAdjust="spacing" textLength="7" x="81.5" y="227.0264">3</text><text fill="#000000" font-family="sans-serif" font-size="13" lengthAdjust="spacing" textLength="194" x="92.5" y="227.0264">Selects the {Resources} to delete</text><polygon fill="#181818" points="590.5,258.2344,600.5,262.2344,590.5,266.2344,594.5,262.2344" style="stroke:#181818;stroke-width:1.0;"/><line style="stroke:#181818;stroke-width:1.0;" x1="404.5" x2="596.5" y1="262.2344" y2="262.2344"/><text fill="#000000" font-family="sans-serif" font-size="13" font-weight="bold" lengthAdjust="spacing" textLength="7" x="411.5" y="257.3779">4</text><text fill="#000000" font-family="sans-serif" font-size="13" lengthAdjust="spacing" textLength="135" x="422.5" y="257.3779">DELETE resources/{...}</text><path d="M10,277.2344 L71,277.2344 L71,285.5859 L61,295.5859 L10,295.5859 L10,277.2344 " fill="#EEEEEE" style="stroke:#000000;stroke-width:1.5;"/><rect fill="none" height="312.6719" style="stroke:#000000;stroke-width:1.5;" width="681.5" x="10" y="277.2344"/><text fill="#000000" font-family="sans-serif" font-size="13" font-weight="bold" lengthAdjust="spacing" textLength="16" x="25" y="291.7295">alt</text><text fill="#000000" font-family="sans-serif" font-size="11" font-weight="bold" lengthAdjust="spacing" textLength="55" x="86" y="290.6533">[success]</text><polygon fill="#181818" points="415.5,313.9375,405.5,317.9375,415.5,321.9375,411.5,317.9375" style="stroke:#181818;stroke-width:1.0;"/><line style="stroke:#181818;stroke-width:1.0;stroke-dasharray:2.0,2.0;" x1="409.5" x2="601.5" y1="317.9375" y2="317.9375"/><text fill="#000000" font-family="sans-serif" font-size="13" font-weight="bold" lengthAdjust="spacing" textLength="7" x="421.5" y="313.0811">5</text><text fill="#000000" font-family="sans-serif" font-size="13" lengthAdjust="spacing" textLength="163" x="432.5" y="313.0811">Response status code - 200</text><path d="M20,332.9375 L81,332.9375 L81,341.2891 L71,351.2891 L20,351.2891 L20,332.9375 " fill="#EEEEEE" style="stroke:#000000;stroke-width:1.5;"/><rect fill="none" height="94.8906" style="stroke:#000000;stroke-width:1.5;" width="439.5" x="20" y="332.9375"/><text fill="#000000" font-family="sans-serif" font-size="13" font-weight="bold" lengthAdjust="spacing" textLength="16" x="35" y="347.4326">alt</text><polygon fill="#181818" points="85.5,369.6406,75.5,373.6406,85.5,377.6406,81.5,373.6406" style="stroke:#181818;stroke-width:1.0;"/><line style="stroke:#181818;stroke-width:1.0;stroke-dasharray:2.0,2.0;" x1="79.5" x2="393.5" y1="373.6406" y2="373.6406"/><text fill="#000000" font-family="sans-serif" font-size="13" font-weight="bold" lengthAdjust="spacing" textLength="7" x="91.5" y="368.7842">6</text><text fill="#000000" font-family="sans-serif" font-size="13" lengthAdjust="spacing" textLength="218" x="102.5" y="368.7842">display deleted {Resources} message</text><line style="stroke:#000000;stroke-width:1.0;stroke-dasharray:2.0,2.0;" x1="20" x2="459.5" y1="382.6406" y2="382.6406"/><text fill="#000000" font-family="sans-serif" font-size="11" font-weight="bold" lengthAdjust="spacing" textLength="133" x="25" y="394.0596">[no resources available]</text><polygon fill="#181818" points="85.5,415.8281,75.5,419.8281,85.5,423.8281,81.5,419.8281" style="stroke:#181818;stroke-width:1.0;"/><line style="stroke:#181818;stroke-width:1.0;stroke-dasharray:2.0,2.0;" x1="79.5" x2="393.5" y1="419.8281" y2="419.8281"/><text fill="#000000" font-family="sans-serif" font-size="13" font-weight="bold" lengthAdjust="spacing" textLength="7" x="91.5" y="414.9717">7</text><text fill="#000000" font-family="sans-serif" font-size="13" lengthAdjust="spacing" textLength="240" x="102.5" y="414.9717">display not deleted {Resources} message</text><line style="stroke:#000000;stroke-width:1.0;stroke-dasharray:2.0,2.0;" x1="10" x2="691.5" y1="435.8281" y2="435.8281"/><text fill="#000000" font-family="sans-serif" font-size="11" font-weight="bold" lengthAdjust="spacing" textLength="83" x="15" y="447.2471">[unsuccessful]</text><path d="M339.5,457.6641 L400.5,457.6641 L400.5,466.0156 L390.5,476.0156 L339.5,476.0156 L339.5,457.6641 " fill="#EEEEEE" style="stroke:#000000;stroke-width:1.5;"/><rect fill="none" height="94.8906" style="stroke:#000000;stroke-width:1.5;" width="342" x="339.5" y="457.6641"/><text fill="#000000" font-family="sans-serif" font-size="13" font-weight="bold" lengthAdjust="spacing" textLength="16" x="354.5" y="472.1592">alt</text><text fill="#000000" font-family="sans-serif" font-size="11" font-weight="bold" lengthAdjust="spacing" textLength="95" x="415.5" y="471.083">[entity not found]</text><polygon fill="#181818" points="415.5,494.3672,405.5,498.3672,415.5,502.3672,411.5,498.3672" style="stroke:#181818;stroke-width:1.0;"/><line style="stroke:#181818;stroke-width:1.0;stroke-dasharray:2.0,2.0;" x1="409.5" x2="601.5" y1="498.3672" y2="498.3672"/><text fill="#000000" font-family="sans-serif" font-size="13" font-weight="bold" lengthAdjust="spacing" textLength="7" x="421.5" y="493.5107">8</text><text fill="#000000" font-family="sans-serif" font-size="13" lengthAdjust="spacing" textLength="163" x="432.5" y="493.5107">Response status code - 404</text><line style="stroke:#000000;stroke-width:1.0;stroke-dasharray:2.0,2.0;" x1="339.5" x2="681.5" y1="507.3672" y2="507.3672"/><text fill="#000000" font-family="sans-serif" font-size="11" font-weight="bold" lengthAdjust="spacing" textLength="122" x="344.5" y="518.7861">[database unavailable]</text><polygon fill="#181818" points="415.5,540.5547,405.5,544.5547,415.5,548.5547,411.5,544.5547" style="stroke:#181818;stroke-width:1.0;"/><line style="stroke:#181818;stroke-width:1.0;stroke-dasharray:2.0,2.0;" x1="409.5" x2="606.5" y1="544.5547" y2="544.5547"/><text fill="#000000" font-family="sans-serif" font-size="13" font-weight="bold" lengthAdjust="spacing" textLength="7" x="421.5" y="539.6982">9</text><text fill="#000000" font-family="sans-serif" font-size="13" lengthAdjust="spacing" textLength="163" x="432.5" y="539.6982">Response status code - 503</text><polygon fill="#181818" points="85.5,577.9063,75.5,581.9063,85.5,585.9063,81.5,581.9063" style="stroke:#181818;stroke-width:1.0;"/><line style="stroke:#181818;stroke-width:1.0;stroke-dasharray:2.0,2.0;" x1="79.5" x2="398.5" y1="581.9063" y2="581.9063"/><text fill="#000000" font-family="sans-serif" font-size="13" font-weight="bold" lengthAdjust="spacing" textLength="14" x="91.5" y="577.0498">10</text><text fill="#000000" font-family="sans-serif" font-size="13" lengthAdjust="spacing" textLength="128" x="109.5" y="577.0498">display error message</text><!--SRC=[ZP91Qm8n48Nl-HM3TwsqzY8YjEYXKAbezmUCsR4DncH99e98_tidknPNA-9jcNtlotkJO6BlqdP5GSMDSHK6t4A5UeDVjEIz9GYaMIasBDyJiiG4XmL5duAc-ACKQlO1EaMaq06CKC1eD9c-GHwCnqg8RBIfq35qvZumsfalawLQl9ZFHAxzjlAE75_gNoN8ntfjDBKyavTBJyvWTYZ92gKAw8upTmZm4ZSHs4DvFNPZ4MasZRhTnjMOlWcI5CZkA6xDzQX5E77FZbpMudXBdJkBNceCOJ9zdtvEPST7uSEXr-krqubAeMM8ISllM9jprDejVDb198YCd29eNn9quR7VLzdKRbMQM5dS7qEKPzcs0fRhLcG5vVmf3U0EZSMLfMiev_aspfMgOIPtZBzEjau6Sc-66yJQ9n72FSK6_K43B95nXJNv5F4kn7F_IPLqjjwS4uf_zIW4UTT_PLJRbPzCThL6XVe5]--></g></svg>