<?xml version="1.0" encoding="us-ascii" standalone="no"?><svg xmlns="http://www.w3.org/2000/svg" xmlns:xlink="http://www.w3.org/1999/xlink" contentStyleType="text/css" height="736px" preserveAspectRatio="none" style="width:487px;height:736px;background:#FFFFFF;" version="1.1" viewBox="0 0 487 736" width="487px" zoomAndPan="magnify"><defs/><g><text fill="#000000" font-family="sans-serif" font-size="14" font-weight="bold" lengthAdjust="spacing" textLength="111" x="189" y="29.5332">Deactivate Staff</text><rect fill="#FFFFFF" height="471.9141" style="stroke:#181818;stroke-width:1.0;" width="10" x="203" y="157.1797"/><rect fill="#FFFFFF" height="30.3516" style="stroke:#181818;stroke-width:1.0;" width="10" x="419" y="212.8828"/><rect fill="#FFFFFF" height="30.3516" style="stroke:#181818;stroke-width:1.0;" width="10" x="419" y="428.6641"/><rect fill="none" height="449.9141" style="stroke:#000000;stroke-width:1.5;" width="477" x="3" y="172.1797"/><rect fill="none" height="141.0781" style="stroke:#000000;stroke-width:1.5;" width="265" x="3" y="258.2344"/><rect fill="none" height="94.8906" style="stroke:#000000;stroke-width:1.5;" width="265" x="3" y="474.0156"/><line style="stroke:#181818;stroke-width:0.5;stroke-dasharray:5.0,5.0;" x1="208" x2="208" y1="124.8281" y2="639.0938"/><line style="stroke:#181818;stroke-width:0.5;stroke-dasharray:5.0,5.0;" x1="424" x2="424" y1="124.8281" y2="639.0938"/><rect fill="#E2E2F0" height="49.2188" rx="2.5" ry="2.5" style="stroke:#181818;stroke-width:0.5;" width="100" x="158" y="74.6094"/><text fill="#000000" font-family="sans-serif" font-size="14" font-style="italic" lengthAdjust="spacing" textLength="86" x="165" y="96.1426">&#171;component&#187;</text><text fill="#000000" font-family="sans-serif" font-size="14" lengthAdjust="spacing" textLength="61" x="177.5" y="113.752">Back-End</text><rect fill="#E2E2F0" height="49.2188" rx="2.5" ry="2.5" style="stroke:#181818;stroke-width:0.5;" width="100" x="158" y="638.0938"/><text fill="#000000" font-family="sans-serif" font-size="14" font-style="italic" lengthAdjust="spacing" textLength="86" x="165" y="659.627">&#171;component&#187;</text><text fill="#000000" font-family="sans-serif" font-size="14" lengthAdjust="spacing" textLength="61" x="177.5" y="677.2363">Back-End</text><text fill="#000000" font-family="sans-serif" font-size="14" font-style="italic" lengthAdjust="spacing" textLength="86" x="378" y="104.1426">&#171;component&#187;</text><text fill="#000000" font-family="sans-serif" font-size="14" lengthAdjust="spacing" textLength="62" x="390" y="121.752">DataBase</text><path d="M406,53.6094 C406,43.6094 424,43.6094 424,43.6094 C424,43.6094 442,43.6094 442,53.6094 L442,79.6094 C442,89.6094 424,89.6094 424,89.6094 C424,89.6094 406,89.6094 406,79.6094 L406,53.6094 " fill="#E2E2F0" style="stroke:#181818;stroke-width:1.5;"/><path d="M406,53.6094 C406,63.6094 424,63.6094 424,63.6094 C424,63.6094 442,63.6094 442,53.6094 " fill="none" style="stroke:#181818;stroke-width:1.5;"/><text fill="#000000" font-family="sans-serif" font-size="14" font-style="italic" lengthAdjust="spacing" textLength="86" x="378" y="652.627">&#171;component&#187;</text><text fill="#000000" font-family="sans-serif" font-size="14" lengthAdjust="spacing" textLength="62" x="390" y="670.2363">DataBase</text><path d="M406,683.3125 C406,673.3125 424,673.3125 424,673.3125 C424,673.3125 442,673.3125 442,683.3125 L442,709.3125 C442,719.3125 424,719.3125 424,719.3125 C424,719.3125 406,719.3125 406,709.3125 L406,683.3125 " fill="#E2E2F0" style="stroke:#181818;stroke-width:1.5;"/><path d="M406,683.3125 C406,693.3125 424,693.3125 424,693.3125 C424,693.3125 442,693.3125 442,683.3125 " fill="none" style="stroke:#181818;stroke-width:1.5;"/><rect fill="#FFFFFF" height="471.9141" style="stroke:#181818;stroke-width:1.0;" width="10" x="203" y="157.1797"/><rect fill="#FFFFFF" height="30.3516" style="stroke:#181818;stroke-width:1.0;" width="10" x="419" y="212.8828"/><rect fill="#FFFFFF" height="30.3516" style="stroke:#181818;stroke-width:1.0;" width="10" x="419" y="428.6641"/><polygon fill="#181818" points="191,153.1797,201,157.1797,191,161.1797,195,157.1797" style="stroke:#181818;stroke-width:1.0;"/><line style="stroke:#181818;stroke-width:1.0;" x1="0" x2="197" y1="157.1797" y2="157.1797"/><text fill="#000000" font-family="sans-serif" font-size="13" font-weight="bold" lengthAdjust="spacing" textLength="7" x="7" y="152.3232">1</text><text fill="#000000" font-family="sans-serif" font-size="13" lengthAdjust="spacing" textLength="155" x="18" y="152.3232">PUT /staff/{licenseNumber}</text><path d="M3,172.1797 L64,172.1797 L64,180.5313 L54,190.5313 L3,190.5313 L3,172.1797 " fill="#EEEEEE" style="stroke:#000000;stroke-width:1.5;"/><rect fill="none" height="449.9141" style="stroke:#000000;stroke-width:1.5;" width="477" x="3" y="172.1797"/><text fill="#000000" font-family="sans-serif" font-size="13" font-weight="bold" lengthAdjust="spacing" textLength="16" x="18" y="186.6748">alt</text><text fill="#000000" font-family="sans-serif" font-size="11" font-weight="bold" lengthAdjust="spacing" textLength="96" x="79" y="185.5986">[authorized user]</text><polygon fill="#181818" points="407,208.8828,417,212.8828,407,216.8828,411,212.8828" style="stroke:#181818;stroke-width:1.0;"/><line style="stroke:#181818;stroke-width:1.0;" x1="213" x2="413" y1="212.8828" y2="212.8828"/><text fill="#000000" font-family="sans-serif" font-size="13" font-weight="bold" lengthAdjust="spacing" textLength="7" x="220" y="208.0264">2</text><text fill="#000000" font-family="sans-serif" font-size="13" lengthAdjust="spacing" textLength="176" x="231" y="208.0264">deacrivatestaff(licenseNumber)</text><polygon fill="#181818" points="224,239.2344,214,243.2344,224,247.2344,220,243.2344" style="stroke:#181818;stroke-width:1.0;"/><line style="stroke:#181818;stroke-width:1.0;stroke-dasharray:2.0,2.0;" x1="218" x2="423" y1="243.2344" y2="243.2344"/><text fill="#000000" font-family="sans-serif" font-size="13" font-weight="bold" lengthAdjust="spacing" textLength="7" x="230" y="238.3779">3</text><text fill="#000000" font-family="sans-serif" font-size="13" lengthAdjust="spacing" textLength="4" x="241" y="238.3779">&#160;</text><path d="M3,258.2344 L64,258.2344 L64,266.5859 L54,276.5859 L3,276.5859 L3,258.2344 " fill="#EEEEEE" style="stroke:#000000;stroke-width:1.5;"/><rect fill="none" height="141.0781" style="stroke:#000000;stroke-width:1.5;" width="265" x="3" y="258.2344"/><text fill="#000000" font-family="sans-serif" font-size="13" font-weight="bold" lengthAdjust="spacing" textLength="16" x="18" y="272.7295">alt</text><text fill="#000000" font-family="sans-serif" font-size="11" font-weight="bold" lengthAdjust="spacing" textLength="145" x="79" y="271.6533">[recordNumber not found]</text><polygon fill="#181818" points="11,294.9375,1,298.9375,11,302.9375,7,298.9375" style="stroke:#181818;stroke-width:1.0;"/><line style="stroke:#181818;stroke-width:1.0;stroke-dasharray:2.0,2.0;" x1="5" x2="202" y1="298.9375" y2="298.9375"/><text fill="#000000" font-family="sans-serif" font-size="13" font-weight="bold" lengthAdjust="spacing" textLength="7" x="17" y="294.0811">4</text><text fill="#000000" font-family="sans-serif" font-size="13" lengthAdjust="spacing" textLength="159" x="28" y="294.0811">Response status code -404</text><line style="stroke:#000000;stroke-width:1.0;stroke-dasharray:2.0,2.0;" x1="3" x2="268" y1="307.9375" y2="307.9375"/><text fill="#000000" font-family="sans-serif" font-size="11" font-weight="bold" lengthAdjust="spacing" textLength="122" x="8" y="319.3564">[database unavailable]</text><polygon fill="#181818" points="11,341.125,1,345.125,11,349.125,7,345.125" style="stroke:#181818;stroke-width:1.0;"/><line style="stroke:#181818;stroke-width:1.0;stroke-dasharray:2.0,2.0;" x1="5" x2="202" y1="345.125" y2="345.125"/><text fill="#000000" font-family="sans-serif" font-size="13" font-weight="bold" lengthAdjust="spacing" textLength="7" x="17" y="340.2686">5</text><text fill="#000000" font-family="sans-serif" font-size="13" lengthAdjust="spacing" textLength="159" x="28" y="340.2686">Response status code -503</text><line style="stroke:#000000;stroke-width:1.0;stroke-dasharray:2.0,2.0;" x1="3" x2="268" y1="354.125" y2="354.125"/><text fill="#000000" font-family="sans-serif" font-size="11" font-weight="bold" lengthAdjust="spacing" textLength="124" x="8" y="365.5439">[recordNumber found]</text><polygon fill="#181818" points="11,387.3125,1,391.3125,11,395.3125,7,391.3125" style="stroke:#181818;stroke-width:1.0;"/><line style="stroke:#181818;stroke-width:1.0;stroke-dasharray:2.0,2.0;" x1="5" x2="202" y1="391.3125" y2="391.3125"/><text fill="#000000" font-family="sans-serif" font-size="13" font-weight="bold" lengthAdjust="spacing" textLength="7" x="17" y="386.4561">6</text><text fill="#000000" font-family="sans-serif" font-size="13" lengthAdjust="spacing" textLength="159" x="28" y="386.4561">Response status code -200</text><polygon fill="#181818" points="407,424.6641,417,428.6641,407,432.6641,411,428.6641" style="stroke:#181818;stroke-width:1.0;"/><line style="stroke:#181818;stroke-width:1.0;stroke-dasharray:2.0,2.0;" x1="213" x2="413" y1="428.6641" y2="428.6641"/><text fill="#000000" font-family="sans-serif" font-size="13" font-weight="bold" lengthAdjust="spacing" textLength="7" x="220" y="423.8076">7</text><text fill="#000000" font-family="sans-serif" font-size="13" lengthAdjust="spacing" textLength="26" x="231" y="423.8076">save</text><polygon fill="#181818" points="224,455.0156,214,459.0156,224,463.0156,220,459.0156" style="stroke:#181818;stroke-width:1.0;"/><line style="stroke:#181818;stroke-width:1.0;stroke-dasharray:2.0,2.0;" x1="218" x2="423" y1="459.0156" y2="459.0156"/><text fill="#000000" font-family="sans-serif" font-size="13" font-weight="bold" lengthAdjust="spacing" textLength="7" x="230" y="454.1592">8</text><text fill="#000000" font-family="sans-serif" font-size="13" lengthAdjust="spacing" textLength="4" x="241" y="454.1592">&#160;</text><path d="M3,474.0156 L64,474.0156 L64,482.3672 L54,492.3672 L3,492.3672 L3,474.0156 " fill="#EEEEEE" style="stroke:#000000;stroke-width:1.5;"/><rect fill="none" height="94.8906" style="stroke:#000000;stroke-width:1.5;" width="265" x="3" y="474.0156"/><text fill="#000000" font-family="sans-serif" font-size="13" font-weight="bold" lengthAdjust="spacing" textLength="16" x="18" y="488.5107">alt</text><text fill="#000000" font-family="sans-serif" font-size="11" font-weight="bold" lengthAdjust="spacing" textLength="122" x="79" y="487.4346">[database unavailable]</text><polygon fill="#181818" points="11,510.7188,1,514.7188,11,518.7188,7,514.7188" style="stroke:#181818;stroke-width:1.0;"/><line style="stroke:#181818;stroke-width:1.0;stroke-dasharray:2.0,2.0;" x1="5" x2="202" y1="514.7188" y2="514.7188"/><text fill="#000000" font-family="sans-serif" font-size="13" font-weight="bold" lengthAdjust="spacing" textLength="7" x="17" y="509.8623">9</text><text fill="#000000" font-family="sans-serif" font-size="13" lengthAdjust="spacing" textLength="159" x="28" y="509.8623">Response status code -503</text><line style="stroke:#000000;stroke-width:1.0;stroke-dasharray:2.0,2.0;" x1="3" x2="268" y1="523.7188" y2="523.7188"/><text fill="#000000" font-family="sans-serif" font-size="11" font-weight="bold" lengthAdjust="spacing" textLength="88" x="8" y="535.1377">[inactivate staff]</text><polygon fill="#181818" points="11,556.9063,1,560.9063,11,564.9063,7,560.9063" style="stroke:#181818;stroke-width:1.0;"/><line style="stroke:#181818;stroke-width:1.0;stroke-dasharray:2.0,2.0;" x1="5" x2="202" y1="560.9063" y2="560.9063"/><text fill="#000000" font-family="sans-serif" font-size="13" font-weight="bold" lengthAdjust="spacing" textLength="14" x="17" y="556.0498">10</text><text fill="#000000" font-family="sans-serif" font-size="13" lengthAdjust="spacing" textLength="159" x="35" y="556.0498">Response status code -200</text><line style="stroke:#000000;stroke-width:1.0;stroke-dasharray:2.0,2.0;" x1="3" x2="480" y1="576.9063" y2="576.9063"/><text fill="#000000" font-family="sans-serif" font-size="11" font-weight="bold" lengthAdjust="spacing" textLength="110" x="8" y="588.3252">[user unauthorized]</text><polygon fill="#181818" points="11,610.0938,1,614.0938,11,618.0938,7,614.0938" style="stroke:#181818;stroke-width:1.0;"/><line style="stroke:#181818;stroke-width:1.0;stroke-dasharray:2.0,2.0;" x1="5" x2="202" y1="614.0938" y2="614.0938"/><text fill="#000000" font-family="sans-serif" font-size="13" font-weight="bold" lengthAdjust="spacing" textLength="14" x="17" y="609.2373">11</text><text fill="#000000" font-family="sans-serif" font-size="13" lengthAdjust="spacing" textLength="159" x="35" y="609.2373">Response status code -401</text><!--SRC=[fPBFJiCm3CRlVWfh9pXKAp0kqxH3r5qHOl00NkADQ5rIDUuaGBmxxXzL6vSDSRCI__nzdnDg98RciE4Qqjw7YcewO4LsJpjUoqV9MBCL0F6YTS5anHz96DT2sos00kAjhoW8JenosIgu2L92iyB5miP35GC7MIx1aT264kEaqCferVKLvbSVGBPKUexFRwyuJQtEzAlqbaFYfyxgDm2LWjJ8Uwpz9pjiaWQ0qPnP0QY-pYdC79swhhkBRjZDsQpR4wmm06edw_K179zTjPgwZLYx7iKG1RUn2GvWaMMjvHTEcaCpgf8q2MrqZDaidm5mgSVZ3ff0H_8bRKg-03_c3mDyfdsDxdsUAneSzjiOrf7eo7yB_I_NFeppKlzdhl8yqEt3jhBZKrzSzTs0d-JGx_03]--></g></svg>