<?xml version="1.0" encoding="us-ascii" standalone="no"?><svg xmlns="http://www.w3.org/2000/svg" xmlns:xlink="http://www.w3.org/1999/xlink" contentStyleType="text/css" height="399px" preserveAspectRatio="none" style="width:275px;height:399px;background:#FFFFFF;" version="1.1" viewBox="0 0 275 399" width="275px" zoomAndPan="magnify"><defs/><g><text fill="#000000" font-family="sans-serif" font-size="14" font-weight="bold" lengthAdjust="spacing" textLength="141" x="68" y="29.5332">Retrieve Resources</text><rect fill="#FFFFFF" height="210.2656" style="stroke:#181818;stroke-width:1.0;" width="10" x="200" y="126.1797"/><rect fill="none" height="187.2656" style="stroke:#000000;stroke-width:1.5;" width="265" x="3" y="141.1797"/><line style="stroke:#181818;stroke-width:0.5;stroke-dasharray:5.0,5.0;" x1="205" x2="205" y1="93.8281" y2="345.4453"/><rect fill="#E2E2F0" height="49.2188" rx="2.5" ry="2.5" style="stroke:#181818;stroke-width:0.5;" width="106" x="152" y="43.6094"/><text fill="#000000" font-family="sans-serif" font-size="14" font-style="italic" lengthAdjust="spacing" textLength="92" x="159" y="65.1426">&#171;system (C4)&#187;</text><text fill="#000000" font-family="sans-serif" font-size="14" lengthAdjust="spacing" textLength="50" x="180" y="82.752">Hospital</text><rect fill="#E2E2F0" height="49.2188" rx="2.5" ry="2.5" style="stroke:#181818;stroke-width:0.5;" width="106" x="152" y="344.4453"/><text fill="#000000" font-family="sans-serif" font-size="14" font-style="italic" lengthAdjust="spacing" textLength="92" x="159" y="365.9785">&#171;system (C4)&#187;</text><text fill="#000000" font-family="sans-serif" font-size="14" lengthAdjust="spacing" textLength="50" x="180" y="383.5879">Hospital</text><rect fill="#FFFFFF" height="210.2656" style="stroke:#181818;stroke-width:1.0;" width="10" x="200" y="126.1797"/><polygon fill="#181818" points="188,122.1797,198,126.1797,188,130.1797,192,126.1797" style="stroke:#181818;stroke-width:1.0;"/><line style="stroke:#181818;stroke-width:1.0;" x1="0" x2="194" y1="126.1797" y2="126.1797"/><text fill="#000000" font-family="sans-serif" font-size="13" font-weight="bold" lengthAdjust="spacing" textLength="7" x="7" y="121.3232">1</text><text fill="#000000" font-family="sans-serif" font-size="13" lengthAdjust="spacing" textLength="111" x="18" y="121.3232">GET resources/{...}</text><path d="M3,141.1797 L64,141.1797 L64,149.5313 L54,159.5313 L3,159.5313 L3,141.1797 " fill="#EEEEEE" style="stroke:#000000;stroke-width:1.5;"/><rect fill="none" height="187.2656" style="stroke:#000000;stroke-width:1.5;" width="265" x="3" y="141.1797"/><text fill="#000000" font-family="sans-serif" font-size="13" font-weight="bold" lengthAdjust="spacing" textLength="16" x="18" y="155.6748">alt</text><text fill="#000000" font-family="sans-serif" font-size="11" font-weight="bold" lengthAdjust="spacing" textLength="120" x="79" y="154.5986">[resources retrieved]</text><polygon fill="#181818" points="11,177.8828,1,181.8828,11,185.8828,7,181.8828" style="stroke:#181818;stroke-width:1.0;"/><line style="stroke:#181818;stroke-width:1.0;stroke-dasharray:2.0,2.0;" x1="5" x2="199" y1="181.8828" y2="181.8828"/><text fill="#000000" font-family="sans-serif" font-size="13" font-weight="bold" lengthAdjust="spacing" textLength="7" x="17" y="177.0264">2</text><text fill="#000000" font-family="sans-serif" font-size="13" lengthAdjust="spacing" textLength="163" x="28" y="177.0264">Response status code - 200</text><line style="stroke:#000000;stroke-width:1.0;stroke-dasharray:2.0,2.0;" x1="3" x2="268" y1="190.8828" y2="190.8828"/><text fill="#000000" font-family="sans-serif" font-size="11" font-weight="bold" lengthAdjust="spacing" textLength="81" x="8" y="202.3018">[unauthorized]</text><polygon fill="#181818" points="11,224.0703,1,228.0703,11,232.0703,7,228.0703" style="stroke:#181818;stroke-width:1.0;"/><line style="stroke:#181818;stroke-width:1.0;stroke-dasharray:2.0,2.0;" x1="5" x2="199" y1="228.0703" y2="228.0703"/><text fill="#000000" font-family="sans-serif" font-size="13" font-weight="bold" lengthAdjust="spacing" textLength="7" x="17" y="223.2139">3</text><text fill="#000000" font-family="sans-serif" font-size="13" lengthAdjust="spacing" textLength="163" x="28" y="223.2139">Response status code - 401</text><line style="stroke:#000000;stroke-width:1.0;stroke-dasharray:2.0,2.0;" x1="3" x2="268" y1="237.0703" y2="237.0703"/><text fill="#000000" font-family="sans-serif" font-size="11" font-weight="bold" lengthAdjust="spacing" textLength="122" x="8" y="248.4893">[database unavailable]</text><polygon fill="#181818" points="11,270.2578,1,274.2578,11,278.2578,7,274.2578" style="stroke:#181818;stroke-width:1.0;"/><line style="stroke:#181818;stroke-width:1.0;stroke-dasharray:2.0,2.0;" x1="5" x2="199" y1="274.2578" y2="274.2578"/><text fill="#000000" font-family="sans-serif" font-size="13" font-weight="bold" lengthAdjust="spacing" textLength="7" x="17" y="269.4014">4</text><text fill="#000000" font-family="sans-serif" font-size="13" lengthAdjust="spacing" textLength="163" x="28" y="269.4014">Response status code - 503</text><line style="stroke:#000000;stroke-width:1.0;stroke-dasharray:2.0,2.0;" x1="3" x2="268" y1="283.2578" y2="283.2578"/><text fill="#000000" font-family="sans-serif" font-size="11" font-weight="bold" lengthAdjust="spacing" textLength="90" x="8" y="294.6768">[database error]</text><polygon fill="#181818" points="11,316.4453,1,320.4453,11,324.4453,7,320.4453" style="stroke:#181818;stroke-width:1.0;"/><line style="stroke:#181818;stroke-width:1.0;stroke-dasharray:2.0,2.0;" x1="5" x2="199" y1="320.4453" y2="320.4453"/><text fill="#000000" font-family="sans-serif" font-size="13" font-weight="bold" lengthAdjust="spacing" textLength="7" x="17" y="315.5889">5</text><text fill="#000000" font-family="sans-serif" font-size="13" lengthAdjust="spacing" textLength="163" x="28" y="315.5889">Response status code - 500</text><!--SRC=[ZOx1QiCm343l-WhHKtT8cctTPOHSncZEQtz0SSHcwjZ6aWFTwB_NeON1Bklj8VIUH5c3pzF02UHeVQH44qOoH_halPuSOsAZ06gry0ThiZml824dmm9G5BN6HlAAgpv8j4fkXIJOOzlAIPGdNBzj7xeEeEgmVyNT-w5aRuNDJrtNPm0oQcTInhwmqz-5GjUh8m1YMrLBeZmGWnT6KT8iQCB8ME5Jqm2mA_FiAUjNIFRx7c_RFDwyaPG6kWPcieu6n__xBytpNvzJ2kaUS_dOZt01]--></g></svg>